<?xml version="1.0" encoding="utf-8"?>
<!-- Generator: Adobe Illustrator 22.0.0, SVG Export Plug-In . SVG Version: 6.00 Build 0)  -->
<svg version="1.1" id="图层_2" xmlns="http://www.w3.org/2000/svg" xmlns:xlink="http://www.w3.org/1999/xlink" x="0px" y="0px"
	 viewBox="0 0 192 147.75" enable-background="new 0 0 192 147.75" xml:space="preserve">
<rect x="-0.75" fill="#FFFFFF" width="193.5" height="148.5"/>
<polygon fill="#494949" points="13.75,94.75 172.04,100.8 169.54,127.55 9.75,122.5 "/>
<path d="M153.65,76.48c0,0-1.42-3.48-8.92-4.42c0,0-5.06-7.13-9.5-8.69s-18.13-2.69-18.13-2.69s-1.44-13.69-1.13-16.44
	s0.19-8-0.44-8.06s-2.06,4.13-2.06,5.69c0,0-2.44-7.63-4.88-8.13c0,0-0.75-9.19-2.44-9.56c0,0-2.06,1.38-1.5,6.75
	c0,0-1.19-8.25-3.19-9.25c0,0-5.81,7.31,0,18.81c0,0-6.17-5.1-7-18.19c0,0-3.67,1.17-3.42,5.08c0.25,3.92,1.25,10.25,2.67,12.25
	c0,0-12.42-8.33-15-16.33c0,0-0.33,3.5,0.5,5.25c0,0-3.92-4.67-4.58-7.67c0,0,0.75,5.17,2,7.5c0,0-4.75-6.58-5.5-11.33
	c0,0,1.58,12.5,4.5,16.67c0,0-9.5-11.67-11.08-13.5c0,0,3.92,11.5,8.5,16.92c0,0-11.5-6.33-15.17-5.83c-3.67,0.5-2,2.33-2,2.33
	s5,4.42,7.58,4.92c0,0-10-2-9.75,0.83c0.25,2.83,5,4.33,5,4.33s-5.5-0.08-4.08,1.92c1.42,2,7,3.17,7,3.17s-4.92,2.5-2.58,3.92
	c2.33,1.42,5.67,0.83,5.67,0.83s-1.92,1.33-0.58,1.92c1.33,0.58,4.83-0.42,4.83-0.42s1.33,1.83,3.42,0.75c0,0,1.08,1,2.58,1.25
	c0,0-3.83,1.58-3.17,2.5s4.75,1.25,6.5,1.08c0,0-2.08,3.67,1.83,4.08c0,0-6.67,3.75-7.67,5.75s-1.58,3.58-1.58,3.58
	s-44.08,24.25-49.08,28.75s12.5,10.33,18.83,7.67c6.33-2.67,28.67-27.17,28.67-27.17s-1.17,0.83-1.5,3.83s0.98,8.1,2.48,9.77
	l2.51,0.1c0,0-3.09-5.83-2.9-6.83l4.46-2.49l13.81,6.19l0.94,2.26l-5.86,1.35l9.89,0.39l-0.66-2.93l-1.69-1.88L75.67,86.5l1.63-0.81
	c0,0,15.75,2.25,17.69,1.94s5.5-1.88,7.63-2.25s16.54-1.15,22.04-2.56c5.5-1.42,18.17-7.17,19.58-8.17
	C144.23,74.65,151.08,76.79,153.65,76.48z"/>
</svg>
