<svg id="图层_2" data-name="图层 2" xmlns="http://www.w3.org/2000/svg" viewBox="0 0 458.67 310.67"><defs><style>.cls-1{fill:#fff5c2;}.cls-2,.cls-3,.cls-4{fill:none;stroke:#000;}.cls-2,.cls-4{stroke-linecap:round;stroke-linejoin:round;}.cls-3{stroke-miterlimit:10;stroke-width:1.5px;}.cls-4{stroke-width:2px;}</style></defs><title>葛饰北斋 猪</title><rect class="cls-1" width="458.67" height="310.67"/><path d="M84.58,167.25a19.29,19.29,0,0,1-2,3.9A29.22,29.22,0,0,1,80,174.68a35.56,35.56,0,0,1-3.12,3.14,42.21,42.21,0,0,1-3.5,2.74l.41-.55a72.94,72.94,0,0,0-1.36,8.62,68.51,68.51,0,0,0-.36,8.7,50.63,50.63,0,0,0,.95,8.54,33.66,33.66,0,0,0,2.87,7.91l-.14,1.65a1.49,1.49,0,0,0,.26-.5,1.57,1.57,0,0,0,0-.16,1.38,1.38,0,0,0-.13-.89,1.42,1.42,0,0,0-.74-.69,1.1,1.1,0,0,0-.29-.09,1.3,1.3,0,0,0-.52,0l-.09,0-.09,0,.1-.05.3-.16.65-.4c.43-.29.86-.6,1.28-.92a29.81,29.81,0,0,0,2.4-2.08,17.71,17.71,0,0,0,3.68-5,11.27,11.27,0,0,0,1.13-5.92,13.86,13.86,0,0,0-2.07-5.87l1.48-.1A53.47,53.47,0,0,1,79,198.8a23.32,23.32,0,0,1-5.2,5.2,18.2,18.2,0,0,0,2.38-2.74,35.76,35.76,0,0,0,2-3c.63-1,1.21-2.08,1.77-3.15s1.11-2.15,1.6-3.22l.59-1.31.88,1.21a15,15,0,0,1,2.84,6.56,13.26,13.26,0,0,1-1,7.23,20.23,20.23,0,0,1-4,5.95,24.86,24.86,0,0,1-2.63,2.4c-.47.36-1,.72-1.45,1.05-.25.17-.51.34-.78.5l-.44.25-.28.13A2.71,2.71,0,0,1,75,216l-.14,0a1.56,1.56,0,0,1-.57,0c-.09,0,0,0-.31-.09a1.49,1.49,0,0,1-.88-1.6,1.08,1.08,0,0,1,0-.17,1.53,1.53,0,0,1,.29-.55l-.14,1.65a32.41,32.41,0,0,1-3.22-8.74,50.13,50.13,0,0,1-.88-9.12,68,68,0,0,1,.72-9,64.62,64.62,0,0,1,2-8.83l.11-.38.29-.17a41.81,41.81,0,0,0,3.55-2.34,40.44,40.44,0,0,0,3.29-2.71,37.75,37.75,0,0,0,2.95-3.11A22.39,22.39,0,0,0,84.58,167.25Z" transform="translate(1.67 -0.67)"/><path d="M84.5,194.72a32.55,32.55,0,0,1-1.83,3.36,34.76,34.76,0,0,1-2.15,3.09A31.45,31.45,0,0,1,78.07,204a30.88,30.88,0,0,1-2.74,2.5,28.77,28.77,0,0,0,2.36-2.83,29.22,29.22,0,0,0,2-3.06,33.86,33.86,0,0,0,1.65-3.23A26.81,26.81,0,0,0,82.61,194Z" transform="translate(1.67 -0.67)"/><path d="M85.62,198.5c-.62,1.05-1.27,2-2,3s-1.39,1.9-2.13,2.82a31,31,0,0,1-5,4.95,29.56,29.56,0,0,0,4.14-5.53c.59-1,1.15-2,1.67-3s1-2.07,1.44-3.09Z" transform="translate(1.67 -0.67)"/><path d="M83.44,177.58a3.51,3.51,0,0,1,.55.65c.14.2.24.41.36.61l.26.64.18.65a6.14,6.14,0,0,1,0,2.53,10.4,10.4,0,0,1-2,4,22.69,22.69,0,0,1-2.92,3c-1,.93-2.16,1.73-3.26,2.54.94-1,1.88-2,2.71-3.05a22,22,0,0,0,2.21-3.32,8.86,8.86,0,0,0,1-3.51,3.5,3.5,0,0,0-.26-1.52l-.15-.32-.19-.28c-.08-.07-.14-.17-.22-.23s-.18-.16-.14-.1a1.5,1.5,0,0,1,1.88-2.34Z" transform="translate(1.67 -0.67)"/><path d="M84.73,189.5a3.88,3.88,0,0,0,1.2-1.82,8.68,8.68,0,0,0,.45-2.08,17,17,0,0,0,.06-2.14c0-.72-.09-1.44-.15-2.17a1.28,1.28,0,0,1,2.47-.57l.08.22a12.94,12.94,0,0,0,.7,1.48,11.15,11.15,0,0,0,.92,1.39A8.74,8.74,0,0,0,92.82,186l-2.22,1.43a28.35,28.35,0,0,1,0-3.57,27.8,27.8,0,0,1,.43-3.51A23.57,23.57,0,0,1,92,176.9a14.4,14.4,0,0,1,1.61-3.15c-.12,1.17-.24,2.29-.29,3.42s-.07,2.24-.06,3.35,0,2.22.1,3.32.13,2.23.23,3.27v0a1.47,1.47,0,0,1-1.32,1.6,1.39,1.39,0,0,1-.9-.2,9.25,9.25,0,0,1-1.82-1.33,10,10,0,0,1-1.45-1.67A12.05,12.05,0,0,1,87,183.66a11.24,11.24,0,0,1-.69-2.1l2.55-.35a20,20,0,0,1-.24,2.42A12.71,12.71,0,0,1,88,186a7.45,7.45,0,0,1-1.24,2.17A3.59,3.59,0,0,1,84.73,189.5Z" transform="translate(1.67 -0.67)"/><path d="M35.24,121.71a21.12,21.12,0,0,0,.48-3.62,17.35,17.35,0,0,0-.13-3.54,27.69,27.69,0,0,0-1-3.23,30.84,30.84,0,0,0-1.36-3.24h0a.1.1,0,0,1,0-.14h.08a5.55,5.55,0,0,1,3.06,2.59,8.13,8.13,0,0,1,.73,3.92,15.15,15.15,0,0,1-.48,3.82,19.18,19.18,0,0,1-1.28,3.54.12.12,0,0,1-.14,0A.11.11,0,0,1,35.24,121.71Z" transform="translate(1.67 -0.67)"/><path d="M40.24,126.22a25.21,25.21,0,0,0,.06-4.75,18.09,18.09,0,0,1-.33-2.24,11.28,11.28,0,0,1,.27-2.44h0a.13.13,0,0,1,.15-.09l0,0A4.11,4.11,0,0,1,42,118.93a5.76,5.76,0,0,1-.05,2.58,13.75,13.75,0,0,1-.53,2.47,15.41,15.41,0,0,1-.94,2.3.1.1,0,0,1-.14,0A.09.09,0,0,1,40.24,126.22Z" transform="translate(1.67 -0.67)"/><path d="M45.74,121.71a10.47,10.47,0,0,0,.09-4.13A5.44,5.44,0,0,0,44,114.33a13,13,0,0,0-3.48-1.48c-.64-.16-1.29-.37-1.95-.58a12.31,12.31,0,0,1-2.09-.67h0a.11.11,0,0,1-.05-.14.09.09,0,0,1,.06-.06,11,11,0,0,1,2.2-.53,13.37,13.37,0,0,1,2.28,0,7.64,7.64,0,0,1,4.14,2.26,6.77,6.77,0,0,1,1.77,4.31,10,10,0,0,1-.89,4.32.1.1,0,0,1-.14,0,.09.09,0,0,1,0-.11Z" transform="translate(1.67 -0.67)"/><path d="M50,116.63a19.15,19.15,0,0,0-1-3.49,6.74,6.74,0,0,0-1.76-2.76c-.8-.61-1.5-.36-2.47-.09s-2,.84-3.3,1.28a.11.11,0,0,1-.14-.07.12.12,0,0,1,0-.08,5.85,5.85,0,0,1,2.64-3,3.51,3.51,0,0,1,2.27-.41,3.78,3.78,0,0,1,2.08,1.17A7.24,7.24,0,0,1,50,112.87a16.33,16.33,0,0,1,.22,3.75.09.09,0,0,1-.1.09A.11.11,0,0,1,50,116.63Z" transform="translate(1.67 -0.67)"/><path d="M28.17,111.5a12.18,12.18,0,0,0-2.8-5.48,5.19,5.19,0,0,0-5-1.39c-.46.12-.91.28-1.37.41s-.9.39-1.35.58a6.48,6.48,0,0,0-2.24,1.52,7.44,7.44,0,0,0-2,4.86,13.44,13.44,0,0,0,.06,2.9,19,19,0,0,0,.54,2.94,26.84,26.84,0,0,0,2.19,5.69,23.3,23.3,0,0,0,3.47,5.06,9.71,9.71,0,0,0,5.2,3.24,6.57,6.57,0,0,1-3.26-.48,12.3,12.3,0,0,1-2.93-1.66,20.14,20.14,0,0,1-4.5-5,24,24,0,0,1-2.9-6.09,18,18,0,0,1-.86-6.88,11.87,11.87,0,0,1,.89-3.55,8.44,8.44,0,0,1,2.16-3.1,9.34,9.34,0,0,1,3.17-1.88c.55-.19,1.07-.43,1.65-.57s1.17-.24,1.76-.32a14.11,14.11,0,0,1,1.84,0,6.34,6.34,0,0,1,1.82.47,6.25,6.25,0,0,1,2.84,2.29,9.15,9.15,0,0,1,1.35,3.14A12.06,12.06,0,0,1,28.17,111.5Z" transform="translate(1.67 -0.67)"/><path class="cls-2" d="M34.88,136s-8.88,3.5-9.71-9.75a6.2,6.2,0,0,0-2.84-4.75" transform="translate(1.67 -0.67)"/><path d="M48.68,142.6a8.81,8.81,0,0,1-4.68-.32,9.57,9.57,0,0,1-4-2.75,31,31,0,0,0-3.09-3,14.8,14.8,0,0,0-3.58-2.42h0a.09.09,0,0,1,0-.13.12.12,0,0,1,.06-.06,6.14,6.14,0,0,1,4.77,1,7.44,7.44,0,0,1,1.82,1.67c.24.33.5.65.71,1l.63,1a8.24,8.24,0,0,0,3.13,2.81,8.86,8.86,0,0,0,4.26,1h0a.1.1,0,0,1,.1.1A.1.1,0,0,1,48.68,142.6Z" transform="translate(1.67 -0.67)"/><path d="M107.24,142.63a47.63,47.63,0,0,1-13.16,9.14A27.77,27.77,0,0,1,86.27,154l-1,.14-1,0c-.69,0-1.4,0-2,0l-4-.12a76.46,76.46,0,0,1-8.08-.59c-.67-.1-1.34-.24-2-.37s-1.33-.32-2-.5-1.3-.45-2-.67-1.26-.55-1.9-.81A34.65,34.65,0,0,1,50,140.57a.11.11,0,0,1,0-.14.09.09,0,0,1,.12,0h0c1.05.84,2,1.79,3,2.59l1.54,1.25,1.58,1.16a36.56,36.56,0,0,0,6.73,3.88c4.71,2.05,9.91,2.81,15.21,3.16l4,.27c.67.07,1.3,0,2,.06l1,0,1-.1a27,27,0,0,0,7.56-1.87,47.16,47.16,0,0,0,13.41-8.36h0a.1.1,0,0,1,.14.15Z" transform="translate(1.67 -0.67)"/><path d="M206.91,209.34a12.14,12.14,0,0,1-2-1A13.61,13.61,0,0,1,203,207a5.17,5.17,0,0,1-1.6-1.72,3.78,3.78,0,0,1-.3-2.44.11.11,0,0,1,.14-.09h0a7.51,7.51,0,0,1,1.79,1.42,10.63,10.63,0,0,1,1.11,1.75,23.26,23.26,0,0,0,2.81,3.28.11.11,0,0,1,0,.15A.12.12,0,0,1,206.91,209.34Z" transform="translate(1.67 -0.67)"/><path d="M201.14,211.32a24.33,24.33,0,0,1-2.13-1.66,23.3,23.3,0,0,1-1.94-1.91,7.69,7.69,0,0,1-1.71-2.14,5.3,5.3,0,0,1-.49-2.82.11.11,0,0,1,.13-.1l.05,0a9.28,9.28,0,0,1,2,1.85,15.25,15.25,0,0,1,1.29,2.23c.91,1.47,1.87,3,2.93,4.39a.11.11,0,0,1,0,.14A.09.09,0,0,1,201.14,211.32Z" transform="translate(1.67 -0.67)"/><path d="M193.65,210.58a19.93,19.93,0,0,1-2.32-1.55,19.4,19.4,0,0,1-2.09-1.87,7.54,7.54,0,0,1-1.8-2.21A5.11,5.11,0,0,1,187,202a.11.11,0,0,1,.13-.1l.06,0a11.78,11.78,0,0,1,2,2,19,19,0,0,1,1.34,2.24,37.23,37.23,0,0,0,3.28,4.26.1.1,0,0,1,0,.14A.11.11,0,0,1,193.65,210.58Z" transform="translate(1.67 -0.67)"/><path d="M187,212.7a27.39,27.39,0,0,1-2.63-2.06,26.77,26.77,0,0,1-2.35-2.41,10.53,10.53,0,0,1-2-2.75,6.8,6.8,0,0,1-.54-3.45.1.1,0,0,1,.12-.09.09.09,0,0,1,.07,0,18.37,18.37,0,0,1,2.11,2.55c.64.83,1,1.85,1.54,2.77a47.83,47.83,0,0,0,3.82,5.26.1.1,0,0,1,0,.14A.11.11,0,0,1,187,212.7Z" transform="translate(1.67 -0.67)"/><path d="M180.65,212.7a21.81,21.81,0,0,1-2.74-2,24.33,24.33,0,0,1-2.44-2.43,10.82,10.82,0,0,1-2.09-2.75,7.71,7.71,0,0,1-.76-3.45.11.11,0,0,1,.11-.11.15.15,0,0,1,.07,0,14.83,14.83,0,0,1,2.3,2.51c.67.85,1.06,1.89,1.65,2.81s1.22,1.82,1.89,2.7a30.22,30.22,0,0,0,2.13,2.57.1.1,0,0,1,0,.14A.1.1,0,0,1,180.65,212.7Z" transform="translate(1.67 -0.67)"/><path d="M171.87,211.3c-.64-.72-1.23-1.48-1.84-2.24s-1.17-1.54-1.72-2.34a11.17,11.17,0,0,1-1.57-2.44,7.11,7.11,0,0,1-.5-3,.11.11,0,0,1,.13-.1l0,0a8.42,8.42,0,0,1,2.09,2.13,13.87,13.87,0,0,1,1.2,2.59l1.18,2.62L172,211.2a.09.09,0,0,1,0,.13A.1.1,0,0,1,171.87,211.3Z" transform="translate(1.67 -0.67)"/><path d="M166.25,210.56a26.38,26.38,0,0,1-1.95-2.39,26.85,26.85,0,0,1-1.66-2.61,9.88,9.88,0,0,1-1.34-2.82,6.52,6.52,0,0,1,.06-3.22.12.12,0,0,1,.14-.08l.06,0a12.3,12.3,0,0,1,1.64,2.62,22.34,22.34,0,0,1,.9,2.8,57.44,57.44,0,0,0,2.31,5.54.1.1,0,0,1,0,.14A.11.11,0,0,1,166.25,210.56Z" transform="translate(1.67 -0.67)"/><path d="M157.11,207.91c-.45-.86-.83-1.75-1.22-2.63s-.73-1.79-1-2.71a9.75,9.75,0,0,1-.81-2.81,5.5,5.5,0,0,1,.57-3,.1.1,0,0,1,.15,0,.1.1,0,0,1,.05,0,12.38,12.38,0,0,1,1.2,2.66,15.78,15.78,0,0,1,.39,2.78l.9,5.65a.1.1,0,0,1-.08.12A.12.12,0,0,1,157.11,207.91Z" transform="translate(1.67 -0.67)"/><path d="M149,205c-.34-.93-.6-1.88-.87-2.84s-.48-1.91-.66-2.89a10.16,10.16,0,0,1-.41-2.95,6.3,6.3,0,0,1,.93-3,.11.11,0,0,1,.16,0s0,0,0,0a10.84,10.84,0,0,1,.87,2.88,16.17,16.17,0,0,1,0,2.87l.12,5.85a.11.11,0,0,1-.1.11A.1.1,0,0,1,149,205Z" transform="translate(1.67 -0.67)"/><path d="M140,201.24c0-1.25.07-2.49.13-3.73s.16-2.48.3-3.72a16,16,0,0,1,.52-3.71,10.52,10.52,0,0,1,.74-1.77,5.42,5.42,0,0,1,1.2-1.6.1.1,0,0,1,.15,0,.09.09,0,0,1,0,.06h0a26.53,26.53,0,0,1-.17,3.72,25.43,25.43,0,0,1-.9,3.56l-1.8,7.19a.1.1,0,0,1-.12.08A.11.11,0,0,1,140,201.24Z" transform="translate(1.67 -0.67)"/><path d="M133.73,198A53,53,0,0,1,135,189.3a16.32,16.32,0,0,1,1.29-4.29,8.37,8.37,0,0,1,3-3.45.1.1,0,0,1,.14,0,.08.08,0,0,1,0,.08h0l-1.33,4.1c-.41,1.34-1.11,2.6-1.6,4s-.95,2.73-1.35,4.12-.82,2.79-1.2,4.2a.1.1,0,0,1-.12.08A.11.11,0,0,1,133.73,198Z" transform="translate(1.67 -0.67)"/><path d="M130.11,189.82c.21-1.45.51-2.88.81-4.31s.69-2.84,1.08-4.26a18.61,18.61,0,0,1,1.46-4.19l.58-1c.23-.31.45-.62.69-.91a10.71,10.71,0,0,1,.81-.84,7,7,0,0,1,1-.67.1.1,0,0,1,.14,0,.1.1,0,0,1,0,.09h0l-1.38,4.07c-.44,1.35-1.21,2.57-1.77,3.9s-1.12,2.66-1.63,4-1,2.71-1.57,4.07a.1.1,0,0,1-.13.06A.12.12,0,0,1,130.11,189.82Z" transform="translate(1.67 -0.67)"/><path d="M127.86,181.78a28.88,28.88,0,0,1,.83-4.2,30.32,30.32,0,0,1,1.49-4.05,11.62,11.62,0,0,1,2.35-3.75,7,7,0,0,1,4-2,.12.12,0,0,1,.12.1.11.11,0,0,1,0,.08h0c-1,1.11-1.82,2.09-2.61,3.14s-1.69,2-2.43,3.18a27.62,27.62,0,0,0-2,3.64,34.73,34.73,0,0,0-1.57,3.89.1.1,0,0,1-.13.06A.1.1,0,0,1,127.86,181.78Z" transform="translate(1.67 -0.67)"/><path d="M126.87,169.33c.35-1,.77-2,1.21-3a30.7,30.7,0,0,1,1.49-2.91,10,10,0,0,1,1.89-2.74c.22-.19.44-.37.68-.54s.5-.32.76-.45a6.66,6.66,0,0,1,.85-.31,3.66,3.66,0,0,1,.92-.08.12.12,0,0,1,.11.12s0,0,0,.06h0c-.72.9-1.21,1.69-1.8,2.54s-1.39,1.49-2.05,2.3-1.31,1.66-1.95,2.51-1.27,1.72-1.89,2.6a.1.1,0,0,1-.14,0A.11.11,0,0,1,126.87,169.33Z" transform="translate(1.67 -0.67)"/><path d="M127.87,159.32a26.86,26.86,0,0,1,1.52-2.66,24.57,24.57,0,0,1,1.85-2.48,9.27,9.27,0,0,1,2.2-2.22,5.78,5.78,0,0,1,3.1-.92.11.11,0,0,1,.11.11.11.11,0,0,1,0,.06,14.62,14.62,0,0,1-2,2.33,24,24,0,0,1-2.29,1.77,52.36,52.36,0,0,0-4.33,4.12.1.1,0,0,1-.14,0A.13.13,0,0,1,127.87,159.32Z" transform="translate(1.67 -0.67)"/><path d="M129,151a77.9,77.9,0,0,1,6.37-5.08,17.6,17.6,0,0,1,3.43-2.24,9.63,9.63,0,0,1,4.1-.94.11.11,0,0,1,.11.11.12.12,0,0,1,0,.08,26.81,26.81,0,0,1-3.21,2.5,36.12,36.12,0,0,1-3.55,1.85c-1.19.61-2.37,1.26-3.54,1.92l-3.55,2a.11.11,0,0,1-.14,0A.12.12,0,0,1,129,151Z" transform="translate(1.67 -0.67)"/><path d="M132.21,143.92a68.47,68.47,0,0,1,7.29-5.22,19.48,19.48,0,0,1,3.94-2.2,11.08,11.08,0,0,1,4.55-.72.11.11,0,0,1,.1.11.09.09,0,0,1-.05.08,36.11,36.11,0,0,1-3.78,2.36c-1.26.72-2.67,1.15-4,1.77s-2.66,1.27-4,1.94-2.64,1.35-3.95,2a.1.1,0,0,1-.14,0A.11.11,0,0,1,132.21,143.92Z" transform="translate(1.67 -0.67)"/><path d="M144.79,131.74c1.22-.75,2.46-1.43,3.7-2.13s2.52-1.33,3.79-2a21.5,21.5,0,0,1,3.91-1.77,10.79,10.79,0,0,1,4.37-.46.1.1,0,0,1,.09.12.12.12,0,0,1,0,.08,26.45,26.45,0,0,1-3.72,2.13,32.93,32.93,0,0,1-4,1.38l-8,2.81a.1.1,0,0,1-.09-.18Z" transform="translate(1.67 -0.67)"/><path d="M67,106.69c-1.84,1.19-3.7,2.32-5.55,3.47a22.69,22.69,0,0,1-2.79,1.68,13.87,13.87,0,0,1-3.15,1,.08.08,0,0,1-.1-.06.14.14,0,0,1,0-.07,10.9,10.9,0,0,1,2.5-2.22,17.94,17.94,0,0,1,3-1.43c2-.9,4-1.77,6-2.54a.07.07,0,0,1,.1,0A.08.08,0,0,1,67,106.69Z" transform="translate(1.67 -0.67)"/><path d="M84.92,99.69c-3.09,2-6.12,4.15-9.13,6.3s-6,4.3-9,6.54-5.78,4.59-8.68,6.86-5.78,4.54-8.65,6.91a.06.06,0,0,1-.1,0,.06.06,0,0,1,0-.09c.58-.73,1.19-1.43,1.79-2.15s1.29-1.35,1.93-2c1.3-1.33,2.68-2.58,4.09-3.79a105,105,0,0,1,8.92-6.67c6.07-4.26,12.32-8.24,18.71-12a.07.07,0,0,1,.1,0A.08.08,0,0,1,84.92,99.69Z" transform="translate(1.67 -0.67)"/><path d="M69,113.94c-1.37,1-2.77,1.93-4.16,2.87a13.57,13.57,0,0,1-2.1,1.38,9.2,9.2,0,0,1-2.48.75s-.09,0-.09-.07a.07.07,0,0,1,0-.06A6.35,6.35,0,0,1,62,116.9a10.46,10.46,0,0,1,2.27-1.13c1.54-.7,3.09-1.37,4.68-2a.07.07,0,0,1,.1,0A.08.08,0,0,1,69,113.94Z" transform="translate(1.67 -0.67)"/><path d="M75.39,110.43c-.35.61-.67,1.27-1,1.91l-1,1.93a8.87,8.87,0,0,1-1,1.89,5.73,5.73,0,0,1-1.7,1.48.09.09,0,0,1-.12,0s0,0,0,0a5.49,5.49,0,0,1,.56-2.2,8.51,8.51,0,0,1,1.29-1.75l1.38-1.69c.49-.54.94-1.1,1.5-1.61a.08.08,0,0,1,.11,0,.06.06,0,0,1,0,.08Z" transform="translate(1.67 -0.67)"/><path d="M86,109.08c-2,1.37-3.95,2.68-5.93,4a26.3,26.3,0,0,1-3,2,22.3,22.3,0,0,1-3.32,1.39h0a.07.07,0,0,1-.1-.05.07.07,0,0,1,0-.06,10.51,10.51,0,0,1,2.64-2.56,21.76,21.76,0,0,1,3.15-1.71c2.13-1.08,4.28-2.14,6.47-3.1a.07.07,0,0,1,.1,0A.07.07,0,0,1,86,109.08Z" transform="translate(1.67 -0.67)"/><path d="M83.73,114.06l-7.17,3.26-7.18,3.21c-2.4,1.07-4.74,2.27-7.19,3.19s-4.93,1.81-7.45,2.6a.07.07,0,0,1-.09,0,.08.08,0,0,1,0-.09,47.42,47.42,0,0,1,6.93-3.84c2.37-1.13,4.87-2,7.31-2.91l7.37-2.81,7.39-2.7a.09.09,0,0,1,.1,0A.08.08,0,0,1,83.73,114.06Z" transform="translate(1.67 -0.67)"/><path d="M91.35,114c-1.2.53-2.41,1.14-3.61,1.72l-3.6,1.75a33.09,33.09,0,0,1-3.61,1.72,21,21,0,0,1-3.91,1,.08.08,0,0,1-.09-.07.07.07,0,0,1,0-.07,15.87,15.87,0,0,1,3.37-2.28,27.94,27.94,0,0,1,3.75-1.45L87.46,115c1.28-.41,2.53-.86,3.86-1.18a.08.08,0,0,1,.09.06.07.07,0,0,1,0,.08Z" transform="translate(1.67 -0.67)"/><path d="M93.59,121.57l-7.22,1.23L79.15,124c-2.41.39-4.8.91-7.23,1.14s-4.86.42-7.32.46a.07.07,0,0,1-.08-.07.08.08,0,0,1,0-.07,42.67,42.67,0,0,1,7.14-1.8c2.4-.45,4.85-.59,7.28-.84l7.29-.73,7.29-.63a.07.07,0,0,1,.09.06A.08.08,0,0,1,93.59,121.57Z" transform="translate(1.67 -0.67)"/><path d="M79.08,130.45l-6.34.3L66.4,131c-2.12.07-4.23.27-6.35.16a45.49,45.49,0,0,1-6.34-.68.08.08,0,0,1-.06-.09s0-.05.06-.06a44,44,0,0,1,6.34-.67c2.12-.12,4.23.08,6.35.15l6.34.22,6.34.3a.07.07,0,0,1,.07.08A.07.07,0,0,1,79.08,130.45Z" transform="translate(1.67 -0.67)"/><path d="M95.94,137.2c-3.61-.47-7.21-1-10.8-1.59a54,54,0,0,1-5.38-1,27.08,27.08,0,0,1-5.2-1.84.08.08,0,0,1,0-.1.07.07,0,0,1,.07,0,41,41,0,0,1,5.46.51c1.8.27,3.54.82,5.31,1.24,3.54.85,7.08,1.7,10.6,2.62a.08.08,0,0,1,.06.09A.09.09,0,0,1,95.94,137.2Z" transform="translate(1.67 -0.67)"/><path d="M77.72,141.94l-8.38-2.72c-1.39-.46-2.83-.77-4.17-1.35a39.2,39.2,0,0,1-4-1.92.08.08,0,0,1,0-.11.08.08,0,0,1,.07,0,15.22,15.22,0,0,1,4.43.65,30.93,30.93,0,0,1,4.11,1.65c2.7,1.16,5.38,2.38,8,3.71a.07.07,0,0,1,0,.1A.07.07,0,0,1,77.72,141.94Z" transform="translate(1.67 -0.67)"/><path d="M82.55,148.94c-2.79-.95-5.54-2-8.3-3a37.15,37.15,0,0,1-4.1-1.62,20.59,20.59,0,0,1-3.78-2.37s0-.07,0-.11a.08.08,0,0,1,.08,0,21.34,21.34,0,0,1,4.31,1.13,38.11,38.11,0,0,1,4,1.88c2.64,1.3,5.28,2.61,7.88,4a.07.07,0,0,1,0,.1A.06.06,0,0,1,82.55,148.94Z" transform="translate(1.67 -0.67)"/><path d="M99,89.29a63.38,63.38,0,0,1-5.35,7.87,25.64,25.64,0,0,1-3.14,3.61,15.84,15.84,0,0,1-4,2.66.08.08,0,0,1-.1,0,.09.09,0,0,1,0-.07c1-1.31,2-2.45,3.06-3.62s2.22-2.18,3.3-3.32c2.14-2.28,4.18-4.69,6.13-7.17a.08.08,0,0,1,.1,0A.08.08,0,0,1,99,89.29Z" transform="translate(1.67 -0.67)"/><path d="M101.77,93A72.05,72.05,0,0,1,98,99.29a18.12,18.12,0,0,1-2.19,3,9.78,9.78,0,0,1-3,2.18.08.08,0,0,1-.11,0,.09.09,0,0,1,0-.07,34.17,34.17,0,0,1,2-3c.69-1,1.59-1.78,2.37-2.7,1.57-1.83,3.09-3.72,4.62-5.61a.07.07,0,0,1,.1,0A.07.07,0,0,1,101.77,93Z" transform="translate(1.67 -0.67)"/><path d="M105.36,106.7c-3.29,1.48-6.61,2.87-9.93,4.28l.42-.65a13,13,0,0,1,0,2.41,7,7,0,0,1-.59,2.39,4.59,4.59,0,0,1-1.55,2,3.22,3.22,0,0,1-2.41.52.09.09,0,0,1-.07-.09.09.09,0,0,1,.06-.06h0a3.69,3.69,0,0,0,1.75-1.12,5,5,0,0,0,.87-1.78c.18-.66.3-1.36.42-2.06a15.77,15.77,0,0,0,.2-2.15v-.07a.59.59,0,0,1,.41-.58c3.44-1.09,6.87-2.2,10.33-3.22a.08.08,0,0,1,.09.06A.09.09,0,0,1,105.36,106.7Z" transform="translate(1.67 -0.67)"/><path d="M68.9,159.42a18.93,18.93,0,0,1-3-3.68,7.12,7.12,0,0,1-1.12-2.13,4.8,4.8,0,0,1,0-2.47.08.08,0,0,1,.1-.06l0,0a9.89,9.89,0,0,1,1.28,2,18.12,18.12,0,0,1,.78,2.1,34.44,34.44,0,0,0,2,4.14.07.07,0,0,1,0,.1A.07.07,0,0,1,68.9,159.42Z" transform="translate(1.67 -0.67)"/><path d="M73.64,161.7a41.16,41.16,0,0,1-2.27-4.31,9.3,9.3,0,0,1-.91-2.27,5.35,5.35,0,0,1,.08-2.54.1.1,0,0,1,.11-.06l0,0a10.76,10.76,0,0,1,1.21,2.14,14.65,14.65,0,0,1,.6,2.3c.41,1.54.86,3.08,1.28,4.65a.07.07,0,0,1-.06.09A.08.08,0,0,1,73.64,161.7Z" transform="translate(1.67 -0.67)"/><path d="M80.59,166.2c-.76-1.11-1.48-2.23-2.24-3.3a9.87,9.87,0,0,1-1.13-1.57,10.78,10.78,0,0,1-.69-1.9h0a.09.09,0,0,1,.06-.11h0a3.38,3.38,0,0,1,1.83,1.17,6.11,6.11,0,0,1,.94,1.83,25.74,25.74,0,0,1,1.32,3.82.07.07,0,0,1,0,.09A.08.08,0,0,1,80.59,166.2Z" transform="translate(1.67 -0.67)"/><path d="M89.1,167.3c-1-.66-1.89-1.34-2.82-2a7.26,7.26,0,0,1-1.37-1,7,7,0,0,1-1-1.47h0a.1.1,0,0,1,0-.12h0a2.9,2.9,0,0,1,1.87.44,5,5,0,0,1,1.23,1.27,26.26,26.26,0,0,1,2.12,2.79.08.08,0,0,1,0,.1A.08.08,0,0,1,89.1,167.3Z" transform="translate(1.67 -0.67)"/><path d="M97.19,168a30.94,30.94,0,0,1-4-.76,6.47,6.47,0,0,1-1.93-.6,4,4,0,0,1-1.52-1.52.08.08,0,0,1,0-.11h0a6.8,6.8,0,0,1,2,.26,9.41,9.41,0,0,1,1.75.85l3.58,1.74a.07.07,0,0,1,0,.1A.08.08,0,0,1,97.19,168Z" transform="translate(1.67 -0.67)"/><path d="M103.46,167.94c-1-.39-1.93-.85-2.88-1.32a4.69,4.69,0,0,1-1.39-.76,3.34,3.34,0,0,1-.9-1.42.09.09,0,0,1,.06-.12h0a3.53,3.53,0,0,1,1.68.33,4.69,4.69,0,0,1,1.19,1c.78.7,1.55,1.4,2.29,2.18a.08.08,0,0,1-.08.13Z" transform="translate(1.67 -0.67)"/><path d="M94.83,173.68a11.17,11.17,0,0,0,3.23-1.31c.48-.3.79-.76,1.25-1a16,16,0,0,1,1.54-.89h0a.08.08,0,0,1,.11,0,0,0,0,0,1,0,0,2.65,2.65,0,0,1-.66,1.94,3.82,3.82,0,0,1-1.75,1,8,8,0,0,1-3.74.37.07.07,0,0,1,0-.14Z" transform="translate(1.67 -0.67)"/><path d="M99.84,174.76a19.89,19.89,0,0,0,3.66-1,13.56,13.56,0,0,1,1.68-.73,7.92,7.92,0,0,1,1.94-.29.11.11,0,0,1,.1.08s0,0,0,.05a3.47,3.47,0,0,1-1.44,1.54,5,5,0,0,1-2,.51,12.29,12.29,0,0,1-4,0,.08.08,0,0,1-.06-.09A.11.11,0,0,1,99.84,174.76Z" transform="translate(1.67 -0.67)"/><path d="M110.94,177.21a26.24,26.24,0,0,1-1.93-1.87c-.31-.32-.72-.57-.88-1a2.72,2.72,0,0,1-.19-1.46.1.1,0,0,1,.12-.09h0a2.78,2.78,0,0,1,1.31.7,3.29,3.29,0,0,1,.62,1.17c.38.8.76,1.61,1.07,2.46a.07.07,0,0,1,0,.1A.08.08,0,0,1,110.94,177.21Z" transform="translate(1.67 -0.67)"/><path d="M126,181.7a21.62,21.62,0,0,1-5.83-.92,9,9,0,0,1-2.78-1.17,5.47,5.47,0,0,1-1.94-2.39.1.1,0,0,1,0-.11h.07c1,.41,1.76.81,2.59,1.21s1.59.93,2.44,1.33a31.56,31.56,0,0,0,5.42,1.89.08.08,0,0,1,.06.09A.09.09,0,0,1,126,181.7Z" transform="translate(1.67 -0.67)"/><path d="M137.27,117.68l-7.5-6c-2.49-2-5-4-7.52-5.88a20.43,20.43,0,0,0-1.9-1.28,9.57,9.57,0,0,0-2-.82,10.63,10.63,0,0,0-4.25-.19,19.17,19.17,0,0,0-4.37,1.22c-1.44.58-2.87,1.25-4.34,1.94a.1.1,0,0,1-.13,0,.11.11,0,0,1,0-.12,18,18,0,0,1,8.46-5,9.55,9.55,0,0,1,5.21.28,13.79,13.79,0,0,1,4.29,2.72c2.46,2.08,4.82,4.23,7.18,6.38l7,6.57a.1.1,0,0,1,0,.14A.09.09,0,0,1,137.27,117.68Z" transform="translate(1.67 -0.67)"/><path d="M125.05,115a16.21,16.21,0,0,1-11.43,2.22A12.8,12.8,0,0,1,108,115a13.93,13.93,0,0,1-2.23-2,15.41,15.41,0,0,1-1.66-2.49.1.1,0,0,1,0-.14h.11c.9.48,1.66,1,2.44,1.56.42.23.8.49,1.2.73l.57.38.62.31q.6.33,1.17.69c.41.19.81.39,1.21.61a6.52,6.52,0,0,0,1.23.57,9,9,0,0,0,1.29.46,14.68,14.68,0,0,0,5.49.51,16.74,16.74,0,0,0,5.49-1.34h0a.09.09,0,0,1,.13,0A.1.1,0,0,1,125.05,115Z" transform="translate(1.67 -0.67)"/><ellipse cx="115.23" cy="109.01" rx="2.94" ry="3.85" transform="translate(-19.17 26.81) rotate(-12.48)"/><path d="M135.09,142.08a40.29,40.29,0,0,0-4.4-1.41,43.83,43.83,0,0,0-4.53-.93,35.23,35.23,0,0,0-4.58-.39,27.5,27.5,0,0,0-4.54.31h0a.84.84,0,0,1-1-.72.85.85,0,0,1,.72-1h0a29,29,0,0,1,4.83-.15,36.18,36.18,0,0,1,4.76.58,43.21,43.21,0,0,1,4.62,1.13,38.76,38.76,0,0,1,4.48,1.63.49.49,0,0,1,.26.65.5.5,0,0,1-.64.27Z" transform="translate(1.67 -0.67)"/><path d="M127.26,145.47c-1.84.41-3.67.8-5.5,1.25s-3.65.85-5.46,1.32-3.57,1.14-5.39,1.48-3.62.69-5.53,1l-.09-.18a15,15,0,0,1,5.09-2.73,29.77,29.77,0,0,1,5.59-1.12,112.44,112.44,0,0,1,11.27-1.2Z" transform="translate(1.67 -0.67)"/><path class="cls-3" d="M111,147.9s-9.83-16.4-9.67-18.07,2.5-.33,4.84.92,15.91,12,18.83,14.94" transform="translate(1.67 -0.67)"/><path d="M142.78,160.79l-.13-1.74q0-.92-.06-1.83c0-1.22,0-2.45,0-3.68s.18-2.46.36-3.7a37.36,37.36,0,0,1,.79-3.69c.67-2.41,1.33-5.09,3.24-7.07a9.71,9.71,0,0,1,7.11-3.39.21.21,0,0,1,.21.22.2.2,0,0,1-.05.14h0c-.87,1-1.62,1.87-2.29,2.76s-1.25,1.79-1.81,2.7-1.12,1.81-1.73,2.73a18.06,18.06,0,0,0-1.66,2.95,44.55,44.55,0,0,0-2.2,6.64c-.3,1.14-.56,2.31-.78,3.49l-.32,1.77-.16.89-.08.45,0,.23a2.27,2.27,0,0,1-.08.29.18.18,0,0,1-.24.1.16.16,0,0,1-.11-.15Z" transform="translate(1.67 -0.67)"/><path d="M133.83,196.75a16.22,16.22,0,0,0-3.94-.85,13,13,0,0,0-3.94.21,8.23,8.23,0,0,0-3.44,1.57,9.47,9.47,0,0,0-2.15,3.08,54.29,54.29,0,0,0-2.56,7.57,35.87,35.87,0,0,1-3,7.84l-.64.94-.58.81c-.38.53-.75,1.07-1.1,1.63-.72,1.1-1.4,2.24-2,3.4a77.72,77.72,0,0,0-3.51,7.16,33.31,33.31,0,0,0-1.33,3.61,5.68,5.68,0,0,0,.42,3.12,40.4,40.4,0,0,0,3.58,6.93c.7,1.14,1.41,2.27,2.14,3.41s1.48,2.32,2.17,3.48l4.19,7c1.39,2.32,2.8,4.61,4.28,6.83.74,1.11,1.51,2.2,2.3,3.24.4.52.81,1,1.23,1.48a6.28,6.28,0,0,0,1.22,1.11.19.19,0,0,1,.09,0l0,0h0s0,0,0,0a1.4,1.4,0,0,0,.37-.25,5.92,5.92,0,0,0,1-1.38,22.68,22.68,0,0,0,1.51-3.55,38.3,38.3,0,0,0,1.74-7.73c.3-2.62.43-5.35-.61-7.73a6.47,6.47,0,0,0-6.25-4,7,7,0,0,1,4,.64,6.86,6.86,0,0,1,3,3,10.8,10.8,0,0,1,1.22,4,25.28,25.28,0,0,1,.12,4.17,39.42,39.42,0,0,1-1.33,8.19,21.89,21.89,0,0,1-1.48,4,8.13,8.13,0,0,1-1.31,1.95,3.22,3.22,0,0,1-1.32.86,2.1,2.1,0,0,1-1,.06l-.26-.05-.19-.07-.37-.16a8,8,0,0,1-1.88-1.49c-.51-.52-1-1-1.43-1.59-.89-1.08-1.71-2.2-2.5-3.32-1.59-2.24-3.08-4.53-4.54-6.82s-2.85-4.63-4.27-6.92c-.71-1.17-1.41-2.26-2.16-3.4s-1.49-2.29-2.21-3.46a43.47,43.47,0,0,1-3.79-7.53,12.54,12.54,0,0,1-.56-2.23,6.08,6.08,0,0,1,.12-2.6,28,28,0,0,1,1.53-4,77.16,77.16,0,0,1,3.83-7.33c.71-1.19,1.43-2.37,2.24-3.51.39-.57.81-1.13,1.25-1.68.21-.27.46-.57.64-.81l.53-.72a36.07,36.07,0,0,0,3.09-7.2,55.24,55.24,0,0,1,3.12-7.64,10.65,10.65,0,0,1,2.75-3.32,8.78,8.78,0,0,1,4-1.47A14.57,14.57,0,0,1,133.83,196.75Z" transform="translate(1.67 -0.67)"/><path d="M143,210.54A7.07,7.07,0,0,1,139,213a19.69,19.69,0,0,1-4.78.54c-.79,0-1.6,0-2.4-.08a14.51,14.51,0,0,1-2.36-.38,17.62,17.62,0,0,1-4.44-1.75.07.07,0,0,1,0-.1.07.07,0,0,1,.07,0,18.39,18.39,0,0,1,2.37.15c.78.09,1.55.16,2.31.27,1.53.18,3,.57,4.54.73a19.31,19.31,0,0,0,4.56-.07,6.9,6.9,0,0,0,4.09-1.8h0a.07.07,0,1,1,.11.09Z" transform="translate(1.67 -0.67)"/><path d="M130.91,213a39.88,39.88,0,0,0-3.6,5.49c-1,1.91-1.91,4-1.57,5.92a20.81,20.81,0,0,0,2.47,5.84,19.37,19.37,0,0,1,1.34,3.15,7.86,7.86,0,0,1,.31,3.67l0,.12a.74.74,0,0,1-.88.59.69.69,0,0,1-.46-.29,40.38,40.38,0,0,1-2.57-3.94.1.1,0,0,1,.14-.13,39,39,0,0,1,3.6,3l-1.36.42c0-1.84-1.11-3.75-1.92-5.77a24.1,24.1,0,0,1-2.06-6.53,7.53,7.53,0,0,1,.61-3.52,16.07,16.07,0,0,1,1.61-3,35.6,35.6,0,0,1,4.21-5.17.1.1,0,1,1,.15.13Z" transform="translate(1.67 -0.67)"/><path d="M120.66,246a39.4,39.4,0,0,0,1.4-5.16,16.53,16.53,0,0,0,.37-2.58,5.83,5.83,0,0,0-.23-2.37,1,1,0,0,0-.22-.43,1.51,1.51,0,0,0-.12-.2l-.21-.23c-.28-.31-.59-.61-.91-.9-.62-.59-1.24-1.2-1.85-1.85a36.46,36.46,0,0,1-3.45-4.16.11.11,0,0,1,0-.15.12.12,0,0,1,.1,0,18.14,18.14,0,0,1,4.7,2.86,14,14,0,0,1,1.95,2c.29.37.57.75.84,1.15a3.82,3.82,0,0,1,.4.69,2.4,2.4,0,0,1,.29.81,7.22,7.22,0,0,1,0,3,18.28,18.28,0,0,1-.69,2.69,34.64,34.64,0,0,1-2.19,5,.1.1,0,0,1-.18-.08Z" transform="translate(1.67 -0.67)"/><path d="M167.61,218.65a55,55,0,0,1-7.88,1.15,49.06,49.06,0,0,1-8,0c-2.67-.25-5.47-.43-8-1.58a14.94,14.94,0,0,1-6.44-5.12.16.16,0,0,1,0-.22.14.14,0,0,1,.14,0h0c2.55,1,4.86,1.83,7.27,2.53.6.16,1.21.32,1.8.52s1.21.34,1.81.54a16.63,16.63,0,0,0,1.83.53c.62.14,1.24.33,1.87.44l1.9.32,1.92.24c1.29.15,2.58.27,3.88.33a68.5,68.5,0,0,0,7.85,0h0a.15.15,0,0,1,.16.14A.14.14,0,0,1,167.61,218.65Z" transform="translate(1.67 -0.67)"/><path d="M123.16,261.33l2.59-15.6s4,0,5.65,3.36.48,12.16,0,15.49l-1.3,3.52-.27-4.85s-2.91,4.08-2.91,3.83.79-4.91.79-4.91L125,265.75l1.35-7.08Z" transform="translate(1.67 -0.67)"/><path d="M131.12,219.48a4.13,4.13,0,0,0-1.4,1c-.39.42-.64,1-.33,1.35a3.19,3.19,0,0,0,1.37.95,6,6,0,0,0,1.7.45.65.65,0,0,1-.12,1.29.77.77,0,0,1-.27-.08c-.58-.34-1.12-.65-1.66-1a4.93,4.93,0,0,1-1.46-1.32,1.25,1.25,0,0,1-.15-1.09,2.79,2.79,0,0,1,.46-.91,12.69,12.69,0,0,1,1.29-1.47.51.51,0,1,1,.72.72A.83.83,0,0,1,131.12,219.48Z" transform="translate(1.67 -0.67)"/><path d="M134.77,248.41a6.14,6.14,0,0,1,2.39,1.68,3.9,3.9,0,0,1,.79,1.4,4.67,4.67,0,0,1,.17,1.59,12.39,12.39,0,0,1-.52,2.81c-.26.89-.53,1.72-.77,2.6h0a.26.26,0,0,1-.32.18.24.24,0,0,1-.17-.17,7.25,7.25,0,0,1-.1-2.89c.12-.92.29-1.81.39-2.64a5,5,0,0,0,0-1.16,3.75,3.75,0,0,0-.4-1.08,12.33,12.33,0,0,0-1.58-2.15h0a.1.1,0,0,1,0-.15A.11.11,0,0,1,134.77,248.41Z" transform="translate(1.67 -0.67)"/><path d="M109.55,84.39c-.73,1-1.52,1.92-2.31,2.84A6.29,6.29,0,0,1,106,88.57a4.32,4.32,0,0,1-1.79.74.11.11,0,0,1-.11-.08.08.08,0,0,1,0,0,4.3,4.3,0,0,1,.87-1.72,6.33,6.33,0,0,1,1.44-1.12c1-.71,2-1.42,3-2.07a.08.08,0,0,1,.1,0A.07.07,0,0,1,109.55,84.39Z" transform="translate(1.67 -0.67)"/><path d="M111,86.74c1.46-1.8,3-3.54,4.5-5.27a23.49,23.49,0,0,1,2.33-2.55,13.24,13.24,0,0,1,2.92-2,.08.08,0,0,1,.1,0,.08.08,0,0,1,0,.07,13.63,13.63,0,0,1-2,2.93,22.58,22.58,0,0,1-2.54,2.34c-1.73,1.53-3.46,3.06-5.25,4.52a.06.06,0,0,1-.1,0A.06.06,0,0,1,111,86.74Z" transform="translate(1.67 -0.67)"/><path d="M111,89.94c1.92-1.79,3.88-3.52,5.85-5.25a29,29,0,0,1,3-2.53,16.8,16.8,0,0,1,3.5-1.89.09.09,0,0,1,.1,0,.08.08,0,0,1,0,.07,16.76,16.76,0,0,1-2.67,3,31.22,31.22,0,0,1-3.17,2.3c-2.15,1.5-4.3,3-6.49,4.42a.09.09,0,0,1-.11,0A.09.09,0,0,1,111,89.94Z" transform="translate(1.67 -0.67)"/><path d="M125,76.27c.86-.76,1.76-1.45,2.66-2.12a5.23,5.23,0,0,1,1.38-1,3.85,3.85,0,0,1,1.8-.25.11.11,0,0,1,.08.11v0a3.83,3.83,0,0,1-1.12,1.41,5.27,5.27,0,0,1-1.54.71c-1,.43-2.09.85-3.17,1.21a.08.08,0,0,1-.1-.05A.08.08,0,0,1,125,76.27Z" transform="translate(1.67 -0.67)"/><path d="M112,92.94a61,61,0,0,1,4.88-3.88,14.3,14.3,0,0,1,2.63-1.71,6.55,6.55,0,0,1,3.18-.63.07.07,0,0,1,.07.09.05.05,0,0,1,0,0h0c-.86.66-1.64,1.25-2.49,1.81a25.88,25.88,0,0,1-2.72,1.41c-1.81,1-3.61,2-5.43,3a.07.07,0,0,1-.1,0A.07.07,0,0,1,112,92.94Z" transform="translate(1.67 -0.67)"/><path d="M124.12,84.28c1.06-1.26,2.19-2.46,3.32-3.65a12,12,0,0,1,1.74-1.75,7.15,7.15,0,0,1,2.27-1.1.07.07,0,0,1,.1.06,0,0,0,0,1,0,0h0a7.42,7.42,0,0,1-1.4,2.14,11.2,11.2,0,0,1-1.92,1.51c-1.32,1-2.64,1.94-4,2.85a.09.09,0,0,1-.11,0A.07.07,0,0,1,124.12,84.28Z" transform="translate(1.67 -0.67)"/><path d="M133.35,74.61c1.31-1.4,2.68-2.74,4.05-4.07a15.43,15.43,0,0,1,2.09-2,9.52,9.52,0,0,1,2.63-1.31.07.07,0,0,1,.1,0s0,0,0,.06a9.76,9.76,0,0,1-1.76,2.35,15.39,15.39,0,0,1-2.29,1.72c-1.56,1.11-3.12,2.22-4.73,3.26a.06.06,0,0,1-.1,0A.06.06,0,0,1,133.35,74.61Z" transform="translate(1.67 -0.67)"/><path d="M144.79,69.94c1.16-1.26,2.38-2.46,3.6-3.65a12.33,12.33,0,0,1,1.87-1.74,8,8,0,0,1,2.4-1.11.09.09,0,0,1,.1.06s0,0,0,.06a7.71,7.71,0,0,1-1.54,2.14,12.33,12.33,0,0,1-2.07,1.51c-1.4,1-2.81,1.94-4.27,2.85a.07.07,0,0,1-.1,0A.06.06,0,0,1,144.79,69.94Z" transform="translate(1.67 -0.67)"/><path d="M154.16,66.11c1.12-1.23,2.3-2.41,3.49-3.58a11.78,11.78,0,0,1,1.82-1.71,7.12,7.12,0,0,1,2.32-1,.09.09,0,0,1,.1.07.11.11,0,0,1,0,0h0A7.74,7.74,0,0,1,160.39,62a12.41,12.41,0,0,1-2,1.46c-1.36.94-2.72,1.87-4.14,2.75a.07.07,0,0,1-.11,0A.07.07,0,0,1,154.16,66.11Z" transform="translate(1.67 -0.67)"/><path d="M130.78,81.84c1-1.34,2.08-2.64,3.15-3.93a12.32,12.32,0,0,1,1.62-1.9,9.05,9.05,0,0,1,2.17-1.39h0a.08.08,0,0,1,.11,0v0a6.44,6.44,0,0,1-1.2,2.33,11.55,11.55,0,0,1-1.85,1.71c-1.27,1.1-2.56,2.18-3.9,3.2a.08.08,0,0,1-.11,0A.07.07,0,0,1,130.78,81.84Z" transform="translate(1.67 -0.67)"/><path d="M122.63,89.18c1.15-.88,2.33-1.69,3.52-2.5A8.46,8.46,0,0,1,128,85.53a5.75,5.75,0,0,1,2.2-.43.09.09,0,0,1,.09.09.05.05,0,0,1,0,0,5.63,5.63,0,0,1-1.56,1.62,9.65,9.65,0,0,1-2,.89c-1.32.55-2.65,1.1-4,1.58a.07.07,0,0,1-.09,0A.08.08,0,0,1,122.63,89.18Z" transform="translate(1.67 -0.67)"/><path d="M131.46,86.73c1.31-1.14,2.67-2.22,4-3.29a13.61,13.61,0,0,1,2.08-1.56A8,8,0,0,1,140.1,81a.09.09,0,0,1,.1.07.13.13,0,0,1,0,.06,8.21,8.21,0,0,1-1.79,2,13.18,13.18,0,0,1-2.25,1.3c-1.52.83-3,1.66-4.61,2.41a.07.07,0,0,1-.1,0A.08.08,0,0,1,131.46,86.73Z" transform="translate(1.67 -0.67)"/><path d="M135.24,80.28c1-1.13,2-2.19,3.11-3.24A9.43,9.43,0,0,1,140,75.5a6.1,6.1,0,0,1,2.15-.89.08.08,0,0,1,.1.07.06.06,0,0,1,0,0,6,6,0,0,1-1.29,1.94,9,9,0,0,1-1.81,1.3c-1.24.84-2.48,1.66-3.77,2.43a.07.07,0,0,1-.1,0A.06.06,0,0,1,135.24,80.28Z" transform="translate(1.67 -0.67)"/><path d="M144.78,74.61c.87-1.11,1.8-2.17,2.73-3.22A8.71,8.71,0,0,1,149,69.86a5.66,5.66,0,0,1,2-.92.08.08,0,0,1,.1.07s0,0,0,0A5.56,5.56,0,0,1,150,71a8.81,8.81,0,0,1-1.65,1.31c-1.12.84-2.25,1.67-3.44,2.44a.07.07,0,0,1-.1,0A.07.07,0,0,1,144.78,74.61Z" transform="translate(1.67 -0.67)"/><path d="M133.36,89.19c1-.88,2-1.69,3.1-2.5a7.47,7.47,0,0,1,1.61-1.14,4.89,4.89,0,0,1,2-.45.09.09,0,0,1,.08.09s0,0,0,0a4.81,4.81,0,0,1-1.33,1.6,7.53,7.53,0,0,1-1.77.89c-1.2.56-2.4,1.11-3.65,1.59a.06.06,0,0,1-.09,0A.05.05,0,0,1,133.36,89.19Z" transform="translate(1.67 -0.67)"/><path d="M143.82,78.93a40.15,40.15,0,0,0,6.39-2.7c1-.53,1.92-1.25,2.94-1.75s2-1.07,3.13-1.53a.08.08,0,0,1,.11,0,.08.08,0,0,1,0,.07,8.4,8.4,0,0,1-2.43,2.7,12.61,12.61,0,0,1-3.24,1.57,28.35,28.35,0,0,1-6.86,1.75.08.08,0,0,1-.09-.06A.09.09,0,0,1,143.82,78.93Z" transform="translate(1.67 -0.67)"/><path d="M151,73c1.28-1.56,2.62-3.06,4-4.55A16.43,16.43,0,0,1,157,66.21a10.69,10.69,0,0,1,2.63-1.6.09.09,0,0,1,.11,0,.06.06,0,0,1,0,.06,10.73,10.73,0,0,1-1.7,2.57,17.89,17.89,0,0,1-2.27,2c-1.54,1.28-3.09,2.56-4.7,3.78a.07.07,0,0,1-.1,0A.06.06,0,0,1,151,73Z" transform="translate(1.67 -0.67)"/><path d="M133.37,92.1c1.89-1,3.79-1.89,5.65-2.87a30.57,30.57,0,0,1,2.76-1.48,25.91,25.91,0,0,1,3-1,.08.08,0,0,1,.1.06.13.13,0,0,1,0,.06,7.45,7.45,0,0,1-2.41,2.24,14.73,14.73,0,0,1-3,1.24,62.23,62.23,0,0,1-6.09,1.91.08.08,0,0,1-.09-.06A.07.07,0,0,1,133.37,92.1Z" transform="translate(1.67 -0.67)"/><path d="M133.37,96.24c2.44-1.08,4.88-2.17,7.27-3.32,1.2-.58,2.33-1.28,3.55-1.76A36,36,0,0,1,148,89.83a.07.07,0,0,1,.09.06.06.06,0,0,1,0,.07,11.85,11.85,0,0,1-3.21,2.54A21.25,21.25,0,0,1,141.11,94a80.2,80.2,0,0,1-7.69,2.36.07.07,0,0,1-.09,0A.08.08,0,0,1,133.37,96.24Z" transform="translate(1.67 -0.67)"/><path d="M138.7,98.62c2.3-1.17,4.61-2.31,6.88-3.5,1.14-.59,2.22-1.31,3.4-1.78a25.37,25.37,0,0,1,3.69-1.24.08.08,0,0,1,.09.06.08.08,0,0,1,0,.07,12.32,12.32,0,0,1-3.1,2.45,22.05,22.05,0,0,1-3.57,1.53c-2.41.94-4.85,1.8-7.32,2.55a.08.08,0,0,1-.1-.05A.08.08,0,0,1,138.7,98.62Z" transform="translate(1.67 -0.67)"/><path d="M142.93,101.26C145,100.1,147,99,149,97.8A30.35,30.35,0,0,1,152,96a27.38,27.38,0,0,1,3.29-1.27.09.09,0,0,1,.1,0,.08.08,0,0,1,0,.07,9.58,9.58,0,0,1-2.64,2.45,18,18,0,0,1-3.19,1.53c-2.16.93-4.34,1.79-6.56,2.53,0,0-.08,0-.1-.05A.09.09,0,0,1,142.93,101.26Z" transform="translate(1.67 -0.67)"/><path d="M148.57,101.26c1.82-.58,3.65-1.12,5.47-1.67a17.83,17.83,0,0,1,2.71-.8,14.4,14.4,0,0,1,2.89-.17.08.08,0,0,1,.08.08.14.14,0,0,1,0,.06,7.26,7.26,0,0,1-2.57,1.48,13.06,13.06,0,0,1-2.83.52c-1.9.28-3.79.51-5.7.65a.08.08,0,0,1-.08-.07A.07.07,0,0,1,148.57,101.26Z" transform="translate(1.67 -0.67)"/><path d="M147.91,104.3c1.81-.35,3.61-.7,5.37-1.12a25.58,25.58,0,0,1,2.61-.66,26.06,26.06,0,0,1,2.74-.21.07.07,0,0,1,.09.07.11.11,0,0,1,0,.06,5.43,5.43,0,0,1-2.45,1.54,10.54,10.54,0,0,1-2.78.39,42.87,42.87,0,0,1-5.55.08.08.08,0,0,1-.07-.08A.09.09,0,0,1,147.91,104.3Z" transform="translate(1.67 -0.67)"/><path d="M151.82,107.93c1.45-.54,2.89-1.07,4.3-1.65a13,13,0,0,1,2.08-.88,8.36,8.36,0,0,1,2.35-.3.08.08,0,0,1,.08.09.06.06,0,0,1,0,0,5.35,5.35,0,0,1-1.87,1.57,8.49,8.49,0,0,1-2.27.62,29.15,29.15,0,0,1-4.63.65.07.07,0,0,1-.08-.07A.08.08,0,0,1,151.82,107.93Z" transform="translate(1.67 -0.67)"/><path d="M152.7,110.3c1.31-.47,2.62-.91,3.89-1.39a12.07,12.07,0,0,1,1.88-.72,12.89,12.89,0,0,1,2.07-.25h0a.09.09,0,0,1,.09.08s0,0,0,0A3.45,3.45,0,0,1,159,109.6a6.54,6.54,0,0,1-2.08.47,29.39,29.39,0,0,1-4.18.38.08.08,0,0,1-.08-.08A.09.09,0,0,1,152.7,110.3Z" transform="translate(1.67 -0.67)"/><path d="M149.14,112.62l4.72-1a13.52,13.52,0,0,1,2.33-.46,9.14,9.14,0,0,1,2.46.21.09.09,0,0,1,.06.1.05.05,0,0,1,0,0,5.67,5.67,0,0,1-2.25,1.12,9,9,0,0,1-2.43.17,46.18,46.18,0,0,1-4.85-.09.08.08,0,0,1-.07-.08A.07.07,0,0,1,149.14,112.62Z" transform="translate(1.67 -0.67)"/><path d="M154.2,114.8l3.79-.92a9.35,9.35,0,0,1,1.84-.46,9,9,0,0,1,2,.1h0a.08.08,0,0,1,.07.1s0,0,0,0a3.4,3.4,0,0,1-1.73,1.24,6.07,6.07,0,0,1-2,.18,28.77,28.77,0,0,1-3.94-.12.06.06,0,0,1-.06-.08A.07.07,0,0,1,154.2,114.8Z" transform="translate(1.67 -0.67)"/><path d="M169,116.55c1.58-.76,3.17-1.48,4.72-2.24a16.13,16.13,0,0,1,2.33-1.13,11,11,0,0,1,2.6-.55s.08,0,.09.07a.14.14,0,0,1,0,.06,6.37,6.37,0,0,1-2.06,1.79,10.62,10.62,0,0,1-2.5.88,47.79,47.79,0,0,1-5.12,1.26.08.08,0,0,1-.09-.06A.1.1,0,0,1,169,116.55Z" transform="translate(1.67 -0.67)"/><path d="M173.81,120.05c.95-.63,1.9-1.23,2.8-1.87a7,7,0,0,1,1.32-1,5.55,5.55,0,0,1,1.68-.47.09.09,0,0,1,.11.07v0a3,3,0,0,1-1,1.62,4.71,4.71,0,0,1-1.58.76,17.5,17.5,0,0,1-3.32,1,.08.08,0,0,1-.09-.06A.09.09,0,0,1,173.81,120.05Z" transform="translate(1.67 -0.67)"/><path d="M169,113.52c1.13-.7,2.26-1.38,3.36-2.08a8.86,8.86,0,0,1,1.63-1,6,6,0,0,1,2-.46.08.08,0,0,1,.09.08.06.06,0,0,1,0,0,4.11,4.11,0,0,1-1.33,1.64,6.48,6.48,0,0,1-1.84.82,27.31,27.31,0,0,1-3.84,1.15.08.08,0,0,1-.09-.06A.08.08,0,0,1,169,113.52Z" transform="translate(1.67 -0.67)"/><path d="M165,111.72c1.33-.72,2.66-1.42,4-2.16a12.71,12.71,0,0,1,1.93-1.09,8.14,8.14,0,0,1,2.26-.53s.08,0,.09.07a.07.07,0,0,1,0,0,5.11,5.11,0,0,1-1.65,1.74,8.07,8.07,0,0,1-2.13.86,33.82,33.82,0,0,1-4.41,1.2.06.06,0,0,1-.08-.06A.07.07,0,0,1,165,111.72Z" transform="translate(1.67 -0.67)"/><path d="M161.83,109.82c.48-.17.95-.34,1.4-.55a12.48,12.48,0,0,0,1.34-.61,6,6,0,0,1,1.29-.66,3.8,3.8,0,0,1,1.6-.06.08.08,0,0,1,.08.1v0a2.72,2.72,0,0,1-1.07,1.31,3.65,3.65,0,0,1-1.52.43,10.16,10.16,0,0,1-3.11.17.09.09,0,0,1-.07-.09.1.1,0,0,1,0-.06Z" transform="translate(1.67 -0.67)"/><path d="M162.65,106.51c2.22-.75,4.43-1.5,6.6-2.31,1.09-.4,2.13-.94,3.25-1.23a19.2,19.2,0,0,1,3.47-.66.08.08,0,0,1,.09.07.07.07,0,0,1,0,.06,10.59,10.59,0,0,1-3,1.94,17.67,17.67,0,0,1-3.41,1c-2.29.54-4.59,1-6.92,1.31a.08.08,0,0,1-.08-.07A.07.07,0,0,1,162.65,106.51Z" transform="translate(1.67 -0.67)"/><path d="M160.56,102.3c.93-.6,1.89-1.14,2.85-1.67a5.55,5.55,0,0,1,1.46-.73,3.68,3.68,0,0,1,1.77,0,.09.09,0,0,1,.06.12v0a3.58,3.58,0,0,1-1.27,1.22,5,5,0,0,1-1.58.45c-1.06.26-2.13.51-3.23.69a.08.08,0,0,1-.09-.06A.09.09,0,0,1,160.56,102.3Z" transform="translate(1.67 -0.67)"/><path d="M165,98c1.08-.47,2.16-.88,3.23-1.3a6.51,6.51,0,0,1,1.61-.59,4.61,4.61,0,0,1,1.82.12.1.1,0,0,1,.07.11l0,0a3.47,3.47,0,0,1-1.46,1.18,5.28,5.28,0,0,1-1.72.31,31.38,31.38,0,0,1-3.49.29.08.08,0,0,1-.08-.08A.08.08,0,0,1,165,98Z" transform="translate(1.67 -0.67)"/><path d="M173.15,98.61c1.32-.56,2.65-1.07,4-1.59a9.67,9.67,0,0,1,2-.74,6.77,6.77,0,0,1,2.21,0,.09.09,0,0,1,.07.1.05.05,0,0,1,0,0,4.81,4.81,0,0,1-1.82,1.33,7.81,7.81,0,0,1-2.1.47c-1.41.25-2.82.46-4.26.58a.08.08,0,0,1-.08-.07A.1.1,0,0,1,173.15,98.61Z" transform="translate(1.67 -0.67)"/><path d="M178.64,99.94c1.19-.75,2.4-1.46,3.59-2.18A9.83,9.83,0,0,1,184,96.7a7.18,7.18,0,0,1,2.11-.45.1.1,0,0,1,.1.08s0,0,0,0a4.41,4.41,0,0,1-1.5,1.66,7.31,7.31,0,0,1-2,.81,39.32,39.32,0,0,1-4.05,1.24.08.08,0,0,1-.1-.06A.09.09,0,0,1,178.64,99.94Z" transform="translate(1.67 -0.67)"/><path d="M173.82,106.51c1.42-.6,2.84-1.17,4.23-1.8a15,15,0,0,1,2-.95,12.61,12.61,0,0,1,2.28-.45.1.1,0,0,1,.1.08.11.11,0,0,1,0,0,4.44,4.44,0,0,1-1.77,1.7,7.84,7.84,0,0,1-2.25.7,32.71,32.71,0,0,1-4.59.82.08.08,0,0,1-.08-.07A.07.07,0,0,1,173.82,106.51Z" transform="translate(1.67 -0.67)"/><path d="M177.22,93c.77-.59,1.57-1.11,2.37-1.62a3.8,3.8,0,0,1,1.23-.7,3,3,0,0,1,1.57,0,.1.1,0,0,1,.06.13h0a3,3,0,0,1-1,1.19,4,4,0,0,1-1.35.43c-.92.25-1.85.49-2.8.65a.07.07,0,0,1-.06-.13Z" transform="translate(1.67 -0.67)"/><path d="M185.31,87.14c1.39-.76,2.81-1.45,4.23-2.13a11.22,11.22,0,0,1,2.16-1,6.55,6.55,0,0,1,2.44-.18.07.07,0,0,1,.07.09.08.08,0,0,1,0,.05,6.73,6.73,0,0,1-2,1.45,10.92,10.92,0,0,1-2.26.68c-1.52.41-3.05.81-4.6,1.14a.08.08,0,0,1-.09-.06A.07.07,0,0,1,185.31,87.14Z" transform="translate(1.67 -0.67)"/><path d="M159.67,93.93a16.63,16.63,0,0,0,5-1.52c.78-.37,1.43-.93,2.18-1.3s1.48-.81,2.41-1.16h0a.08.08,0,0,1,.11,0s0,0,0,.06a5.22,5.22,0,0,1-1.69,2.31,7,7,0,0,1-2.57,1.17,13.24,13.24,0,0,1-5.47.54.07.07,0,0,1,0-.14Z" transform="translate(1.67 -0.67)"/><path d="M147.87,85.05a24.66,24.66,0,0,0,7-6.15c1-1.17,1.95-2.48,3-3.69a38.51,38.51,0,0,1,3.45-3.43c1.22-1.07,2.5-2.07,3.75-3s2.46-1.84,3.6-2.82c2.34-2,4.63-4.19,7.19-6.16a.13.13,0,0,1,.18,0,.13.13,0,0,1,0,.13,31.44,31.44,0,0,1-2.58,4.1,36.16,36.16,0,0,1-3.1,3.72,20.12,20.12,0,0,1-3.89,3c-1.36.83-2.66,1.66-3.91,2.58a37.31,37.31,0,0,0-3.54,3c-1.12,1.07-2.14,2.26-3.29,3.42a34.11,34.11,0,0,1-3.64,3.15A16.55,16.55,0,0,1,148,85.28a.12.12,0,0,1-.1-.22Z" transform="translate(1.67 -0.67)"/><path d="M156.28,83.36a19,19,0,0,0-.53,2.07,5.11,5.11,0,0,0-.1,1,1.4,1.4,0,0,0,.06.43c0,.12.07.1.08.1a1.81,1.81,0,0,0,.69-.35,6.46,6.46,0,0,0,.75-.65,19.51,19.51,0,0,0,1.38-1.58c.45-.55.9-1.12,1.39-1.69a4.86,4.86,0,0,1,2-1.42,2.78,2.78,0,0,1,2.59.58,3.51,3.51,0,0,1,1.14,2,.09.09,0,0,1-.07.09.11.11,0,0,1-.07,0h0A4.92,4.92,0,0,0,164,82.75a1.84,1.84,0,0,0-1.5,0A7.59,7.59,0,0,0,161,83.77c-.52.43-1,.94-1.54,1.44a21.29,21.29,0,0,1-1.62,1.5,7.11,7.11,0,0,1-.94.65,2,2,0,0,1-1.31.35.83.83,0,0,1-.58-.67,1.92,1.92,0,0,1,0-.63,6.31,6.31,0,0,1,.26-1.1,15.48,15.48,0,0,1,.84-2,.08.08,0,0,1,.1,0A.09.09,0,0,1,156.28,83.36Z" transform="translate(1.67 -0.67)"/><path d="M159.63,78.93l1.72-1.81c.28-.31.48-.71.86-.88a2.61,2.61,0,0,1,1.36-.3.13.13,0,0,1,.11.11h0a2.39,2.39,0,0,1-.51,1.33c-.26.36-.72.47-1.09.68a12.48,12.48,0,0,1-2.38,1,.08.08,0,0,1-.07-.14Z" transform="translate(1.67 -0.67)"/><path d="M168.33,70.92,171,68.81l2.73-2.09a21.33,21.33,0,0,1,2.8-2,12.35,12.35,0,0,1,3.26-1.27.08.08,0,0,1,.1.06s0,0,0,.06A14,14,0,0,1,177.34,66a22.79,22.79,0,0,1-2.94,1.75l-3,1.72c-1,.55-2,1.13-3.09,1.64a.06.06,0,0,1-.08,0,.07.07,0,0,1,0-.07Z" transform="translate(1.67 -0.67)"/><path d="M172.47,72.43c.94-.63,1.91-1.19,2.89-1.74a5.77,5.77,0,0,1,1.48-.76,3.9,3.9,0,0,1,1.8,0,.09.09,0,0,1,.07.11l0,0a3.71,3.71,0,0,1-1.28,1.25,5.5,5.5,0,0,1-1.6.49c-1.08.28-2.17.56-3.28.76a.08.08,0,0,1-.09-.06A.08.08,0,0,1,172.47,72.43Z" transform="translate(1.67 -0.67)"/><path d="M176,73.93a26.92,26.92,0,0,1,2.57-1,3.63,3.63,0,0,1,1.3-.4,2.77,2.77,0,0,1,1.46.42.1.1,0,0,1,0,.14h0a2.9,2.9,0,0,1-1.21.92,3.66,3.66,0,0,1-1.36.1c-.92,0-1.83,0-2.77,0a.08.08,0,0,1-.07-.08A.06.06,0,0,1,176,73.93Z" transform="translate(1.67 -0.67)"/><path d="M176,76.93c.86-.34,1.73-.61,2.6-.86a3.44,3.44,0,0,1,1.32-.31,2.63,2.63,0,0,1,1.41.5.1.1,0,0,1,0,.14h0a2.72,2.72,0,0,1-1.25.83,3.4,3.4,0,0,1-1.35,0c-.91,0-1.81-.07-2.73-.19a.08.08,0,0,1-.07-.08A.1.1,0,0,1,176,76.93Z" transform="translate(1.67 -0.67)"/><path d="M176,80.26a20.35,20.35,0,0,1,2.25-.53,2.6,2.6,0,0,1,1.13-.15,2.13,2.13,0,0,1,1.12.68.11.11,0,0,1,0,.15,2.17,2.17,0,0,1-1.12.67,2.46,2.46,0,0,1-1.13-.15,20.29,20.29,0,0,1-2.25-.52.08.08,0,0,1,0-.15Z" transform="translate(1.67 -0.67)"/><path d="M175.58,82.76a16.69,16.69,0,0,1,2-.53c.34-.06.68-.26,1-.15a1.91,1.91,0,0,1,1,.68.14.14,0,0,1,0,.15,1.94,1.94,0,0,1-1,.67c-.34.11-.68-.08-1-.15a16.64,16.64,0,0,1-2-.52.09.09,0,0,1-.05-.1A.08.08,0,0,1,175.58,82.76Z" transform="translate(1.67 -0.67)"/><path d="M170.3,86.72A18.19,18.19,0,0,1,172,85.43c.29-.2.52-.51.88-.55a1.91,1.91,0,0,1,1.2.22.11.11,0,0,1,.06.14,1.87,1.87,0,0,1-.67,1c-.26.24-.65.19-1,.27a17.52,17.52,0,0,1-2.09.33.08.08,0,0,1-.08-.07A.14.14,0,0,1,170.3,86.72Z" transform="translate(1.67 -0.67)"/><path d="M175.54,89.94c1.34-1.37,2.73-2.69,4.13-4A15.39,15.39,0,0,1,181.8,84a9.69,9.69,0,0,1,2.65-1.27.08.08,0,0,1,.1.06.06.06,0,0,1,0,.06,9.76,9.76,0,0,1-1.81,2.32,15.35,15.35,0,0,1-2.32,1.67c-1.58,1.09-3.16,2.16-4.79,3.18a.07.07,0,0,1-.1,0A.06.06,0,0,1,175.54,89.94Z" transform="translate(1.67 -0.67)"/><path d="M184.47,78.21c1.92-1,3.86-1.95,5.81-2.88A18.92,18.92,0,0,1,193.22,74a11.6,11.6,0,0,1,3.25-.57.08.08,0,0,1,.08.08.14.14,0,0,1,0,.06,12,12,0,0,1-2.75,1.82,20.11,20.11,0,0,1-3.06,1.06c-2.05.66-4.11,1.32-6.19,1.9a.09.09,0,0,1-.1,0A.1.1,0,0,1,184.47,78.21Z" transform="translate(1.67 -0.67)"/><path d="M186.14,80.26c1.5-.82,3-1.58,4.56-2.32A12.75,12.75,0,0,1,193,76.88a7.77,7.77,0,0,1,2.62-.28.08.08,0,0,1,.08.09.13.13,0,0,1,0,0,7.6,7.6,0,0,1-2.13,1.54,12.53,12.53,0,0,1-2.43.78c-1.63.48-3.27,1-4.94,1.34a.07.07,0,0,1-.09-.05A.08.08,0,0,1,186.14,80.26Z" transform="translate(1.67 -0.67)"/><path d="M188.81,82.76c.82-.51,1.66-1,2.5-1.37a3.83,3.83,0,0,1,1.29-.58,2.85,2.85,0,0,1,1.54.2.1.1,0,0,1,.06.13h0a2.94,2.94,0,0,1-1.12,1.08,4,4,0,0,1-1.38.3c-.94.16-1.87.3-2.83.37-.05,0-.08,0-.09-.07A.1.1,0,0,1,188.81,82.76Z" transform="translate(1.67 -0.67)"/><path d="M180.47,67.26c1.58-.93,3.18-1.79,4.79-2.64a14.26,14.26,0,0,1,2.44-1.22,8.65,8.65,0,0,1,2.77-.47.08.08,0,0,1,.08.09s0,0,0,0a8.69,8.69,0,0,1-2.23,1.7,14.29,14.29,0,0,1-2.56,1c-1.72.59-3.45,1.17-5.21,1.68a.07.07,0,0,1-.09-.05A.08.08,0,0,1,180.47,67.26Z" transform="translate(1.67 -0.67)"/><path d="M188.81,66.68c.8-.56,1.63-1.05,2.47-1.53a4.11,4.11,0,0,1,1.28-.66,2.92,2.92,0,0,1,1.58.11.09.09,0,0,1,.06.12v0a3,3,0,0,1-1.08,1.15,4.34,4.34,0,0,1-1.39.38c-.94.21-1.89.42-2.86.55a.08.08,0,0,1-.09-.07A.08.08,0,0,1,188.81,66.68Z" transform="translate(1.67 -0.67)"/><path d="M190.89,68.76c.7-.55,1.43-1,2.16-1.52a3.49,3.49,0,0,1,1.13-.66,2.68,2.68,0,0,1,1.46.1.1.1,0,0,1,.06.13h0a2.62,2.62,0,0,1-.92,1.14,3.31,3.31,0,0,1-1.25.38,24.65,24.65,0,0,1-2.58.56.07.07,0,0,1-.09-.06A.08.08,0,0,1,190.89,68.76Z" transform="translate(1.67 -0.67)"/><path d="M192.47,70.93a25.35,25.35,0,0,1,2.13-1.48,3.14,3.14,0,0,1,1.1-.64,2.62,2.62,0,0,1,1.44.12.11.11,0,0,1,.06.14h0a2.61,2.61,0,0,1-.9,1.12,3.24,3.24,0,0,1-1.23.36c-.83.2-1.67.4-2.54.52a.09.09,0,0,1-.09-.07A.09.09,0,0,1,192.47,70.93Z" transform="translate(1.67 -0.67)"/><path d="M184.47,62.93a21.17,21.17,0,0,1,1.95-1.47c.33-.23.61-.57,1-.64a2.26,2.26,0,0,1,1.36.11.1.1,0,0,1,.06.14,2.29,2.29,0,0,1-.8,1.11,2.59,2.59,0,0,1-1.14.36,23,23,0,0,1-2.39.53.09.09,0,0,1-.09-.07A.11.11,0,0,1,184.47,62.93Z" transform="translate(1.67 -0.67)"/><path d="M182.38,60.93a22.07,22.07,0,0,1,1.91-1.47c.32-.23.59-.57,1-.64a2.31,2.31,0,0,1,1.35.11.11.11,0,0,1,.07.14,2.33,2.33,0,0,1-.78,1.11,2.64,2.64,0,0,1-1.12.36,22.29,22.29,0,0,1-2.35.53.09.09,0,0,1-.09-.07A.19.19,0,0,1,182.38,60.93Z" transform="translate(1.67 -0.67)"/><path d="M158.61,70c.8-1.24,1.66-2.42,2.53-3.6a9.09,9.09,0,0,1,1.34-1.73,6,6,0,0,1,2-1.17.08.08,0,0,1,.11,0,.11.11,0,0,1,0,0,5.94,5.94,0,0,1-1,2.08A9.42,9.42,0,0,1,162,67.15c-1.08,1-2.16,2-3.31,2.9a.07.07,0,0,1-.1,0A.06.06,0,0,1,158.61,70Z" transform="translate(1.67 -0.67)"/><path d="M169,63c.62-1.14,1.29-2.23,2-3.32a7.21,7.21,0,0,1,1.07-1.6A4.82,4.82,0,0,1,173.77,57a.1.1,0,0,1,.12.06v0a4.71,4.71,0,0,1-.66,1.92,7.16,7.16,0,0,1-1.3,1.4c-.9.91-1.82,1.82-2.79,2.68a.09.09,0,0,1-.11,0A.09.09,0,0,1,169,63Z" transform="translate(1.67 -0.67)"/><path d="M165.62,60.94c1.75-1.82,3.58-3.55,5.46-5.25A20.64,20.64,0,0,1,174,53.25a12.54,12.54,0,0,1,1.69-.93,5.94,5.94,0,0,1,1.91-.56.08.08,0,0,1,.08.07.06.06,0,0,1,0,.07h0c-.94.87-1.81,1.74-2.76,2.55a35.07,35.07,0,0,1-3,2.18l-6.12,4.43a.09.09,0,0,1-.11,0A.08.08,0,0,1,165.62,60.94Z" transform="translate(1.67 -0.67)"/><path d="M150.26,213a19.63,19.63,0,0,1-2.51-2.87,20.91,20.91,0,0,1-1.92-3.35,10.39,10.39,0,0,1-1.2-3.74c0-.33,0-.66,0-1s.06-.66.12-1a6.22,6.22,0,0,1,.63-1.91.1.1,0,0,1,.14-.05s0,0,.05.06h0c.5,1.27.7,2.42,1.05,3.56s.36,2.33.72,3.49a25.84,25.84,0,0,0,3.08,6.65h0a.1.1,0,0,1,0,.14A.1.1,0,0,1,150.26,213Z" transform="translate(1.67 -0.67)"/><path d="M162.31,218a9.13,9.13,0,0,1-3.83-1.77,15,15,0,0,1-2.94-3.12,12.17,12.17,0,0,1-2-3.78,16.91,16.91,0,0,1-.36-2.11,10.56,10.56,0,0,1,.1-2.17.1.1,0,0,1,.12-.09l.07,0h0a11.5,11.5,0,0,1,1.06,1.83c.34.6.61,1.2.89,1.8.62,1.16.88,2.47,1.52,3.62a13.52,13.52,0,0,0,2.25,3.22,9.4,9.4,0,0,0,3.2,2.33h0a.1.1,0,0,1,0,.13A.09.09,0,0,1,162.31,218Z" transform="translate(1.67 -0.67)"/><path d="M168.65,218a20.64,20.64,0,0,1-2.43-1.58,20,20,0,0,1-2.21-1.91,8.41,8.41,0,0,1-1.95-2.21,5.79,5.79,0,0,1-.69-3,.11.11,0,0,1,.12-.1l.06,0a11.16,11.16,0,0,1,2.17,1.93,20.07,20.07,0,0,1,1.5,2.29,40.51,40.51,0,0,0,3.55,4.36.11.11,0,0,1,0,.15A.13.13,0,0,1,168.65,218Z" transform="translate(1.67 -0.67)"/><path d="M177.27,220.2c-.67-.36-1.3-.79-1.93-1.21a22.49,22.49,0,0,1-1.81-1.41,6.09,6.09,0,0,1-1.65-1.59,4.37,4.37,0,0,1-.63-2.37.12.12,0,0,1,.13-.12h0a6.23,6.23,0,0,1,2,1.22,8.32,8.32,0,0,1,1.27,1.76c.88,1.17,1.76,2.38,2.7,3.56a.1.1,0,0,1,0,.14A.09.09,0,0,1,177.27,220.2Z" transform="translate(1.67 -0.67)"/><path d="M188.79,220.21c-1-.37-2-.83-3-1.27s-2-.95-2.89-1.47a12.77,12.77,0,0,1-2.79-1.7,7.88,7.88,0,0,1-2-2.73.12.12,0,0,1,.06-.15h.07a11.43,11.43,0,0,1,3,1.27,19.31,19.31,0,0,1,2.48,2c1.68,1.3,3.36,2.62,5.09,3.91a.09.09,0,0,1,0,.14A.08.08,0,0,1,188.79,220.21Z" transform="translate(1.67 -0.67)"/><path d="M198.92,220.22c-1-.24-1.91-.56-2.85-.87a28.66,28.66,0,0,1-2.78-1.1,9.34,9.34,0,0,1-2.68-1.38,5.82,5.82,0,0,1-1.85-2.55.12.12,0,0,1,.08-.14.06.06,0,0,1,.06,0,12.53,12.53,0,0,1,2.81,1,18.38,18.38,0,0,1,2.35,1.64c.8.55,1.62,1.07,2.44,1.6s1.66,1.06,2.5,1.58a.11.11,0,0,1,0,.14A.1.1,0,0,1,198.92,220.22Z" transform="translate(1.67 -0.67)"/><path d="M208.55,223.59a26.76,26.76,0,0,1-2.76-.74c-.9-.3-1.79-.64-2.67-1a9.13,9.13,0,0,1-2.56-1.36,5.65,5.65,0,0,1-1.67-2.51.12.12,0,0,1,.08-.15H199a11.25,11.25,0,0,1,2.68,1,15.92,15.92,0,0,1,2.19,1.6c1.52,1,3.09,2.05,4.72,3a.1.1,0,0,1,0,.13A.1.1,0,0,1,208.55,223.59Z" transform="translate(1.67 -0.67)"/><path d="M227.15,230a34.9,34.9,0,0,1-4.86-.79,37.91,37.91,0,0,1-4.73-1.45c-.79-.26-1.56-.58-2.35-.86a10.85,10.85,0,0,1-2.18-1.22,11.77,11.77,0,0,1-3.44-3.71.12.12,0,0,1,0-.18.18.18,0,0,1,.1,0h0a27.66,27.66,0,0,1,4.57,1.76c1.43.64,2.67,1.65,4.07,2.4s2.83,1.44,4.3,2.08a46.13,46.13,0,0,0,4.51,1.73h0a.12.12,0,0,1,.08.16A.12.12,0,0,1,227.15,230Z" transform="translate(1.67 -0.67)"/><path d="M238,228.46a52.33,52.33,0,0,1-11-1.94,21.74,21.74,0,0,1-5.34-1.93,13.91,13.91,0,0,1-4.33-3.8.14.14,0,0,1,0-.19.17.17,0,0,1,.12,0,45.2,45.2,0,0,1,5.27,1.75c1.69.6,3.22,1.6,4.91,2.3s3.4,1.34,5.14,1.94,3.5,1.14,5.29,1.63a.12.12,0,0,1,.09.15A.13.13,0,0,1,238,228.46Z" transform="translate(1.67 -0.67)"/><path d="M248.17,226a36,36,0,0,1-4.87.19,37.93,37.93,0,0,1-4.87-.41c-.82-.09-1.63-.22-2.45-.32a10.91,10.91,0,0,1-2.37-.69,11.93,11.93,0,0,1-4.16-2.78.14.14,0,0,1,0-.19.14.14,0,0,1,.1,0,25.17,25.17,0,0,1,4.82.63c1.53.3,2.95,1,4.47,1.43s3,.81,4.6,1.13,3.14.6,4.72.8h0a.12.12,0,0,1,.11.14A.14.14,0,0,1,248.17,226Z" transform="translate(1.67 -0.67)"/><path d="M258,222.79c-1.3.31-2.61.5-3.93.7s-2.65.28-4,.32a13.61,13.61,0,0,1-4-.07,9,9,0,0,1-3.75-1.78.14.14,0,0,1,0-.2.15.15,0,0,1,.07,0,15.39,15.39,0,0,1,4-.45,25.15,25.15,0,0,1,3.82.56c1.28.15,2.58.3,3.88.42s2.61.22,3.93.3a.13.13,0,0,1,.12.13A.13.13,0,0,1,258,222.79Z" transform="translate(1.67 -0.67)"/><path d="M268.85,219.19c-1.48.35-3,.59-4.48.84s-3,.39-4.53.5a18.51,18.51,0,0,1-4.58.16,11.93,11.93,0,0,1-4.44-1.5.14.14,0,0,1,0-.19.16.16,0,0,1,.08-.06,18.09,18.09,0,0,1,4.54-.75,33.31,33.31,0,0,1,4.44.34c1.48.1,3,.18,4.48.25s3,.12,4.51.16a.12.12,0,0,1,.12.13A.13.13,0,0,1,268.85,219.19Z" transform="translate(1.67 -0.67)"/><path d="M278,214.37c-1.49.35-3,.62-4.49.9s-3,.5-4.53.69a21.28,21.28,0,0,1-4.56.48,13.51,13.51,0,0,1-4.59-1,.14.14,0,0,1-.08-.18.16.16,0,0,1,.07-.07,15.51,15.51,0,0,1,4.5-1.26,26.48,26.48,0,0,1,4.54,0l4.55.07,4.57.1a.12.12,0,0,1,.12.12A.12.12,0,0,1,278,214.37Z" transform="translate(1.67 -0.67)"/><path d="M287.87,209.37a33.44,33.44,0,0,1-4.05,1.54c-1.38.42-2.78.78-4.19,1.08a17.27,17.27,0,0,1-4.27.72,11.69,11.69,0,0,1-4.36-.85.15.15,0,0,1-.07-.19.14.14,0,0,1,.07-.06,10,10,0,0,1,2.08-.87,19.58,19.58,0,0,1,2.07-.52,26.81,26.81,0,0,1,4.21-.21c1.4-.09,2.81-.19,4.22-.33s2.81-.3,4.21-.55h0a.12.12,0,0,1,.14.1A.13.13,0,0,1,287.87,209.37Z" transform="translate(1.67 -0.67)"/><path d="M292.39,205.11a14.85,14.85,0,0,1-2.52,1.48,22.11,22.11,0,0,1-2.74,1,7.83,7.83,0,0,1-2.84.68,5.78,5.78,0,0,1-3-.88.17.17,0,0,1,0-.22l0,0h0a5.74,5.74,0,0,1,1.34-.85,8.1,8.1,0,0,1,1.34-.5,11.88,11.88,0,0,1,2.74-.17c.92-.07,1.84-.16,2.76-.28a20,20,0,0,0,2.76-.5h0a.13.13,0,0,1,.16.09A.13.13,0,0,1,292.39,205.11Z" transform="translate(1.67 -0.67)"/><path d="M297.1,199.26a9.79,9.79,0,0,1-1.92,2.29,14.22,14.22,0,0,1-2.47,1.73,7.18,7.18,0,0,1-2.76,1.21,5.37,5.37,0,0,1-3.1-.53.16.16,0,0,1-.06-.21l0,0h0a5.64,5.64,0,0,1,1.25-1,7.54,7.54,0,0,1,1.24-.67,15,15,0,0,1,2.62-.63,20.76,20.76,0,0,0,2.56-.94,11.6,11.6,0,0,0,2.41-1.39h0a.13.13,0,0,1,.18,0A.12.12,0,0,1,297.1,199.26Z" transform="translate(1.67 -0.67)"/><path d="M175.53,56.33c.84-.7,1.71-1.35,2.56-2s1.74-1.31,2.62-1.94a15.14,15.14,0,0,1,2.66-1.86,9.44,9.44,0,0,1,3.24-.92.12.12,0,0,1,.13.1.14.14,0,0,1,0,.07,9.7,9.7,0,0,1-2.3,2.46,15.18,15.18,0,0,1-2.88,1.51c-1,.5-1.94,1-2.93,1.44s-2,.92-3,1.34a.11.11,0,0,1-.14,0A.11.11,0,0,1,175.53,56.33Z" transform="translate(1.67 -0.67)"/><path d="M186.62,51.75c.86-.7,1.75-1.34,2.63-2s1.8-1.28,2.71-1.89a14.62,14.62,0,0,1,2.8-1.76,8.45,8.45,0,0,1,3.37-.68.1.1,0,0,1,.1.11.14.14,0,0,1,0,.07,11.58,11.58,0,0,1-2.51,2.27,16.7,16.7,0,0,1-3,1.39l-3,1.36c-1,.43-2,.89-3,1.31a.1.1,0,0,1-.13-.06A.08.08,0,0,1,186.62,51.75Z" transform="translate(1.67 -0.67)"/><path d="M197.11,49.58a68.07,68.07,0,0,1,7-4.77,18.2,18.2,0,0,1,3.75-2,10.23,10.23,0,0,1,4.31-.58.11.11,0,0,1,.1.12.18.18,0,0,1-.05.07,28.74,28.74,0,0,1-3.57,2.23c-1.2.66-2.54,1-3.81,1.58S202.27,47.36,201,48s-2.53,1.19-3.79,1.79a.09.09,0,0,1-.13,0A.1.1,0,0,1,197.11,49.58Z" transform="translate(1.67 -0.67)"/><path d="M208,47.74c1.59-.75,3.21-1.42,4.82-2.12s3.25-1.32,4.89-1.95a33.73,33.73,0,0,1,5-1.76A18.9,18.9,0,0,1,228,41.4a.1.1,0,0,1,.09.11.11.11,0,0,1,0,.09,30.53,30.53,0,0,1-4.8,2.23,47.52,47.52,0,0,1-5.05,1.36L208,47.93a.11.11,0,0,1-.12-.07A.1.1,0,0,1,208,47.74Z" transform="translate(1.67 -0.67)"/><path d="M220.13,47.74c1.55-.7,3.13-1.32,4.71-2S228,44.6,229.61,44a30.94,30.94,0,0,1,4.87-1.54,17.48,17.48,0,0,1,5.17-.25.09.09,0,0,1,.09.11.1.1,0,0,1-.05.08,27.15,27.15,0,0,1-4.72,2,47.27,47.27,0,0,1-4.91,1.13c-1.64.38-3.29.77-4.92,1.18l-4.94,1.19a.1.1,0,0,1-.07-.19Z" transform="translate(1.67 -0.67)"/><path d="M232.47,48.57a70.41,70.41,0,0,1,8.13-3.21,19.37,19.37,0,0,1,4.25-1.16,10.69,10.69,0,0,1,4.48.37.1.1,0,0,1,.07.13.14.14,0,0,1-.06.07,33,33,0,0,1-4.13,1.4c-1.36.39-2.8.47-4.21.74s-2.82.56-4.23.88-2.82.64-4.24,1a.11.11,0,0,1-.12-.07A.1.1,0,0,1,232.47,48.57Z" transform="translate(1.67 -0.67)"/><path d="M242.82,49.57c2.79-.8,5.61-1.43,8.47-2a21.76,21.76,0,0,1,4.32-.63,12.22,12.22,0,0,1,4.39.75.11.11,0,0,1,.06.14.12.12,0,0,1-.06.06,24.3,24.3,0,0,1-4.24,1,35.88,35.88,0,0,1-4.28.22c-1.44.07-2.87.16-4.31.28l-4.32.29a.12.12,0,0,1-.11-.1A.1.1,0,0,1,242.82,49.57Z" transform="translate(1.67 -0.67)"/><path d="M257.16,51.73c3.26-.53,6.53-.89,9.83-1.13a27.51,27.51,0,0,1,5-.16,14.71,14.71,0,0,1,4.89,1.29.11.11,0,0,1,0,.15.08.08,0,0,1-.07,0,35.25,35.25,0,0,1-4.93.51c-1.62.09-3.24-.17-4.87-.24s-3.28-.12-4.92-.15l-4.93-.12a.1.1,0,0,1-.1-.1A.12.12,0,0,1,257.16,51.73Z" transform="translate(1.67 -0.67)"/><path d="M265.33,54.73c1.74-.21,3.48-.3,5.23-.39s3.51,0,5.27,0a26,26,0,0,1,5.27.47A15.71,15.71,0,0,1,286,56.9a.11.11,0,0,1,0,.15.16.16,0,0,1-.09.05,46.17,46.17,0,0,1-5.21-.31c-1.71-.13-3.37-.6-5.08-.85s-3.42-.45-5.15-.6-3.46-.3-5.19-.41a.1.1,0,0,1-.1-.1A.11.11,0,0,1,265.33,54.73Z" transform="translate(1.67 -0.67)"/><path d="M294.42,63.06a11.19,11.19,0,0,0-4.09-1.82,25.58,25.58,0,0,0-4.43-.81c-1.5-.18-3-.07-4.52-.32q-1.12-.15-2.25-.39a14.57,14.57,0,0,1-2.3-.62.1.1,0,0,1-.06-.13.11.11,0,0,1,.06-.07,14.59,14.59,0,0,1,4.68-.78,13.25,13.25,0,0,1,2.35.21c.77.18,1.54.32,2.31.52a27.75,27.75,0,0,1,4.5,1.45,10.92,10.92,0,0,1,3.91,2.64.09.09,0,0,1,0,.13.08.08,0,0,1-.12,0Z" transform="translate(1.67 -0.67)"/><path d="M304.27,70.08a21.36,21.36,0,0,0-4.7-2.13,24.6,24.6,0,0,0-5-1.14c-1.68-.2-3.37-.12-5-.21-.85-.09-1.69,0-2.55-.13a24.82,24.82,0,0,1-2.65-.21h0a.1.1,0,0,1-.08-.12.09.09,0,0,1,.05-.07,13.43,13.43,0,0,1,5.2-1.47,16.22,16.22,0,0,1,5.37.64A25.63,25.63,0,0,1,300,67a20.15,20.15,0,0,1,4.45,2.9.1.1,0,0,1,0,.14.08.08,0,0,1-.12,0Z" transform="translate(1.67 -0.67)"/><path d="M311.93,76a12.49,12.49,0,0,0-3.18-1.55,20.13,20.13,0,0,0-3.39-.81,14.32,14.32,0,0,0-1.73-.09,14.07,14.07,0,0,1-1.72-.13c-.58-.1-1.16-.16-1.75-.3a10.24,10.24,0,0,1-1.82-.48h0a.1.1,0,0,1-.06-.14.07.07,0,0,1,0-.06,8.29,8.29,0,0,1,3.67-1,10.71,10.71,0,0,1,3.71.66,16.56,16.56,0,0,1,3.47,1.46,11.49,11.49,0,0,1,2.9,2.32.1.1,0,0,1,0,.14.11.11,0,0,1-.12,0Z" transform="translate(1.67 -0.67)"/><path d="M330.78,84a33.78,33.78,0,0,0-5-1.89,40.7,40.7,0,0,0-5.19-1.22c-1.76-.29-3.53-.36-5.27-.66-.87-.19-1.75-.29-2.63-.5A20.72,20.72,0,0,1,310,79.1h0a.1.1,0,0,1-.07-.13.1.1,0,0,1,.07-.07,16.62,16.62,0,0,1,5.51-.64,22.21,22.21,0,0,1,5.41,1.09,42.47,42.47,0,0,1,5.18,1.84,28.68,28.68,0,0,1,4.79,2.66.11.11,0,0,1,0,.14.09.09,0,0,1-.12,0Z" transform="translate(1.67 -0.67)"/><path d="M344.45,90.92a52.59,52.59,0,0,0-5.35-2,56,56,0,0,0-5.49-1.55c-1.85-.44-3.73-.61-5.56-1.07s-3.67-.85-5.55-1.53a.1.1,0,0,1-.07-.13.1.1,0,0,1,.07-.07,18.23,18.23,0,0,1,5.89-.24,16.7,16.7,0,0,1,2.88.58c.93.31,1.86.59,2.78.92a57.69,57.69,0,0,1,5.42,2.16,41.21,41.21,0,0,1,5.08,2.81.1.1,0,0,1,0,.14A.11.11,0,0,1,344.45,90.92Z" transform="translate(1.67 -0.67)"/><path d="M355.22,94.09a6.85,6.85,0,0,1-2.68.68,22.91,22.91,0,0,1-2.75.06,44.92,44.92,0,0,1-5.42-.72,27.09,27.09,0,0,1-5.28-1.35,20.17,20.17,0,0,1-4.79-2.67.09.09,0,0,1,0-.14.11.11,0,0,1,.09,0,18.37,18.37,0,0,1,2.72.36c.89.18,1.76.37,2.62.59,1.73.43,3.35,1.17,5.05,1.7a41.47,41.47,0,0,0,5.14,1.27,19.47,19.47,0,0,0,2.63.32,7.18,7.18,0,0,0,2.58-.23h0a.09.09,0,0,1,.12.06A.1.1,0,0,1,355.22,94.09Z" transform="translate(1.67 -0.67)"/><path d="M356.86,97.59a12.24,12.24,0,0,1-4.42.63,23.87,23.87,0,0,1-4.45-.64,15.36,15.36,0,0,1-4.26-1.47,19.63,19.63,0,0,1-1.85-1.28,12.42,12.42,0,0,1-1.6-1.64.1.1,0,0,1,0-.15.1.1,0,0,1,.09,0,11.52,11.52,0,0,1,2.17.58c.7.19,1.37.46,2,.71,1.34.45,2.54,1.25,3.87,1.74a21.38,21.38,0,0,0,4.08,1.17,13,13,0,0,0,4.26.18h0a.11.11,0,0,1,.11.09A.1.1,0,0,1,356.86,97.59Z" transform="translate(1.67 -0.67)"/><path d="M365.53,101.26a12.85,12.85,0,0,1-2.13.75,15.46,15.46,0,0,1-2.24.4,5.61,5.61,0,0,1-2.27.07,4.16,4.16,0,0,1-2.08-1.22.12.12,0,0,1,0-.17l0,0a6,6,0,0,1,2.24-.58,8.82,8.82,0,0,1,2.08.32c.7.09,1.41.15,2.13.2a17.42,17.42,0,0,0,2.17.06h0a.1.1,0,0,1,0,.19Z" transform="translate(1.67 -0.67)"/><path d="M372,105.93a29.15,29.15,0,0,1-4,.65c-1.36.11-2.72.16-4.08.17a17.39,17.39,0,0,1-4.08-.24,11.79,11.79,0,0,1-3.85-1.58.11.11,0,0,1,0-.15.1.1,0,0,1,.07,0,11.71,11.71,0,0,1,2.08-.23c.68,0,1.34,0,2,0a34.73,34.73,0,0,1,3.92.62c1.31.19,2.63.34,4,.43a38.2,38.2,0,0,0,4,.15h0a.11.11,0,0,1,.1.1A.1.1,0,0,1,372,105.93Z" transform="translate(1.67 -0.67)"/><path d="M380.18,109.93a52.9,52.9,0,0,1-8.6,1.15,21,21,0,0,1-4.34.07,14,14,0,0,1-4.25-1.22.11.11,0,0,1-.05-.14.13.13,0,0,1,.07-.06,18.83,18.83,0,0,1,4.33-.58,33.79,33.79,0,0,1,4.25.33c1.42.1,2.84.18,4.27.21s2.86.07,4.29,0a.1.1,0,0,1,.11.1A.1.1,0,0,1,380.18,109.93Z" transform="translate(1.67 -0.67)"/><path d="M381.34,114.1a23.47,23.47,0,0,1-3.84.28c-1.28,0-2.57-.11-3.85-.25a15.25,15.25,0,0,1-3.8-.69,10.45,10.45,0,0,1-3.38-2,.11.11,0,0,1,0-.16.11.11,0,0,1,.07,0,10,10,0,0,1,2,0c.64,0,1.25.16,1.87.24a34.68,34.68,0,0,1,3.57,1c1.2.32,2.42.61,3.65.83a30.7,30.7,0,0,0,3.73.51h0a.09.09,0,0,1,.09.11A.09.09,0,0,1,381.34,114.1Z" transform="translate(1.67 -0.67)"/><path d="M394.51,117.6a23.43,23.43,0,0,1-3.64.4c-1.22,0-2.44,0-3.65,0a16.36,16.36,0,0,1-3.64-.27,10.9,10.9,0,0,1-3.43-1.45.12.12,0,0,1,0-.16s0,0,.06,0a12.06,12.06,0,0,1,3.69-.33,21.19,21.19,0,0,1,3.52.66c1.18.21,2.35.41,3.53.6a30.7,30.7,0,0,0,3.57.4h0a.1.1,0,0,1,.09.11A.09.09,0,0,1,394.51,117.6Z" transform="translate(1.67 -0.67)"/><path d="M394.51,120.1a28.5,28.5,0,0,1-4.22.45c-1.42,0-2.83,0-4.25,0a21.28,21.28,0,0,1-4.22-.34,13.93,13.93,0,0,1-4-1.59.1.1,0,0,1,0-.15.12.12,0,0,1,.07,0,11.69,11.69,0,0,1,2.17-.23,21,21,0,0,1,2.1,0,33.67,33.67,0,0,1,4.09.72c1.37.25,2.74.46,4.12.62a36.28,36.28,0,0,0,4.16.35h0a.1.1,0,0,1,.1.1A.1.1,0,0,1,394.51,120.1Z" transform="translate(1.67 -0.67)"/><path d="M412.34,125.93a42.22,42.22,0,0,1-5.62.38c-1.88,0-3.76-.08-5.65-.26a25.9,25.9,0,0,1-5.6-.86,18.23,18.23,0,0,1-5.17-2.43.1.1,0,0,1,0-.14.14.14,0,0,1,.1-.05,45,45,0,0,1,5.56.67c1.81.29,3.56.88,5.37,1.23s3.64.64,5.48.85a53.89,53.89,0,0,0,5.55.41.11.11,0,0,1,.1.1A.11.11,0,0,1,412.34,125.93Z" transform="translate(1.67 -0.67)"/><path d="M418.5,130.1c-1.27.09-2.54.13-3.81.19l-3.81.09a20.31,20.31,0,0,1-3.82,0,12.25,12.25,0,0,1-3.73-1.1.11.11,0,0,1-.05-.15.15.15,0,0,1,.06-.05,12.62,12.62,0,0,1,3.85-.69,20.89,20.89,0,0,1,3.77.4l3.77.51c1.25.21,2.51.38,3.77.61h0a.1.1,0,0,1,.08.12A.11.11,0,0,1,418.5,130.1Z" transform="translate(1.67 -0.67)"/><path d="M423.49,134.1c-1.26,0-2.51-.1-3.76-.18s-2.49-.21-3.73-.36a18.52,18.52,0,0,1-3.71-.51,11.92,11.92,0,0,1-3.48-1.62.1.1,0,0,1,0-.15.08.08,0,0,1,.06,0,12.43,12.43,0,0,1,3.83-.15,20.72,20.72,0,0,1,3.61.9l7.22,1.91a.1.1,0,0,1,.08.12A.11.11,0,0,1,423.49,134.1Z" transform="translate(1.67 -0.67)"/><path d="M427.83,137.93c-.91.13-1.82.18-2.73.23s-1.83,0-2.75,0a8.79,8.79,0,0,1-2.75-.24,6,6,0,0,1-2.46-1.5.14.14,0,0,1,0-.17l.05,0A8.08,8.08,0,0,1,420,136a12.4,12.4,0,0,1,2.58.61c1.74.38,3.5.8,5.28,1.15a.11.11,0,0,1,.08.12A.09.09,0,0,1,427.83,137.93Z" transform="translate(1.67 -0.67)"/><path d="M425.66,140.1c-1,0-2,0-3,0s-2-.08-3-.17a11.62,11.62,0,0,1-3-.38,6.86,6.86,0,0,1-2.69-1.62.12.12,0,0,1,0-.16.09.09,0,0,1,.06,0,9.71,9.71,0,0,1,3.06-.15,15.1,15.1,0,0,1,2.84.76l5.75,1.55a.11.11,0,0,1,.07.12A.09.09,0,0,1,425.66,140.1Z" transform="translate(1.67 -0.67)"/><path d="M424.33,142.27a84,84,0,0,1-9.39.14,22,22,0,0,1-4.72-.4,12.64,12.64,0,0,1-4.42-1.91.12.12,0,0,1,0-.15.14.14,0,0,1,.08,0,38,38,0,0,1,4.69.13c1.52.11,3,.55,4.54.79s3.07.47,4.61.66,3.09.4,4.63.59a.09.09,0,0,1,.09.11S424.38,142.26,424.33,142.27Z" transform="translate(1.67 -0.67)"/><path d="M419.84,146.43a41.68,41.68,0,0,1-5.24.23,51.5,51.5,0,0,1-5.26-.4,20.7,20.7,0,0,1-5.21-1.11,13.26,13.26,0,0,1-4.51-2.9.1.1,0,0,1,0-.14.08.08,0,0,1,.09,0c1.8.31,3.4.78,5.05,1.17s3.21,1.05,4.87,1.44,3.35.73,5.05,1,3.42.45,5.15.56a.12.12,0,0,1,.1.11A.11.11,0,0,1,419.84,146.43Z" transform="translate(1.67 -0.67)"/><path d="M409.74,151.1a37.83,37.83,0,0,1-10-1.17,16.19,16.19,0,0,1-4.81-1.8,9.52,9.52,0,0,1-3.53-3.81.09.09,0,0,1,.05-.13.1.1,0,0,1,.09,0c1.53.82,2.91,1.52,4.35,2.18s2.82,1.44,4.33,2a39,39,0,0,0,4.67,1.47,48.33,48.33,0,0,0,4.84,1,.1.1,0,0,1,.08.11A.11.11,0,0,1,409.74,151.1Z" transform="translate(1.67 -0.67)"/><path d="M393.07,151a6.4,6.4,0,0,0-2.47-2.48,8.57,8.57,0,0,0-3.26-1.06c-1.14-.18-2.3.09-3.45,0a15.8,15.8,0,0,1-1.8-.11,9.36,9.36,0,0,1-1.9-.25h0a.12.12,0,0,1-.08-.14.21.21,0,0,1,0-.06,9.46,9.46,0,0,1,1.74-.94,13.47,13.47,0,0,1,1.89-.5,8.12,8.12,0,0,1,2,0,16.55,16.55,0,0,1,1.94.46,8.85,8.85,0,0,1,3.51,1.81,6.57,6.57,0,0,1,2.07,3.23.1.1,0,0,1-.18.07Z" transform="translate(1.67 -0.67)"/><path d="M291.84,107.94a13.1,13.1,0,0,1,1.05-1.81,11.65,11.65,0,0,1,1.35-1.64,4.32,4.32,0,0,1,1.72-1.38,2.89,2.89,0,0,1,2.36.17.12.12,0,0,1,0,.17v0h0a11.77,11.77,0,0,1-1.46,1.42,11.47,11.47,0,0,1-1.64.85c-.55.33-1.09.7-1.64,1.09s-1.07.8-1.6,1.23a.1.1,0,0,1-.16-.12Z" transform="translate(1.67 -0.67)"/><path d="M286.76,125.84a36.53,36.53,0,0,0,2.39-3.79,34.64,34.64,0,0,0,1.94-4c.58-1.36.85-2.8,1.41-4.12s1-2.7,1.73-4.14h0a.11.11,0,0,1,.14,0s.05,0,.05.07a10.32,10.32,0,0,1,0,4.69,14.89,14.89,0,0,1-1.89,4.25,35.38,35.38,0,0,1-2.55,3.83,28.79,28.79,0,0,1-3.07,3.36.11.11,0,0,1-.15,0A.1.1,0,0,1,286.76,125.84Z" transform="translate(1.67 -0.67)"/><path d="M286.77,132.59a17.7,17.7,0,0,0,2.31-3.08,26,26,0,0,0,1.8-3.37c.53-1.16.81-2.41,1.42-3.52.31-.56.58-1.14.95-1.69a10.77,10.77,0,0,1,1.15-1.66h0a.1.1,0,0,1,.15,0,.16.16,0,0,1,0,.07,10.46,10.46,0,0,1-.44,4,13.91,13.91,0,0,1-1.88,3.55,27.81,27.81,0,0,1-2.4,3.2,15.34,15.34,0,0,1-3,2.64.11.11,0,0,1-.14,0,.13.13,0,0,1,0-.13Z" transform="translate(1.67 -0.67)"/><path d="M284.27,144.18a40.34,40.34,0,0,0,4.1-6.36c.58-1.11,1-2.31,1.61-3.37a20,20,0,0,1,2.26-3.15.11.11,0,0,1,.15,0,.12.12,0,0,1,0,.08,9.66,9.66,0,0,1-.64,3.94,13.43,13.43,0,0,1-2.06,3.35,32.77,32.77,0,0,1-2.47,3,23.72,23.72,0,0,1-2.86,2.63.1.1,0,0,1-.14,0A.11.11,0,0,1,284.27,144.18Z" transform="translate(1.67 -0.67)"/><path d="M285.57,160.86a67.22,67.22,0,0,1,1.19-8.69,18.23,18.23,0,0,1,1.11-4.28,9.91,9.91,0,0,1,2.63-3.68.11.11,0,0,1,.15,0,.15.15,0,0,1,0,.09c-.25,1.51-.56,2.87-.92,4.25s-1,2.66-1.45,4-.9,2.73-1.31,4.12-.82,2.78-1.22,4.18a.11.11,0,0,1-.13.07A.1.1,0,0,1,285.57,160.86Z" transform="translate(1.67 -0.67)"/><path d="M288.23,173c-.16-1.36-.2-2.72-.25-4.09s0-2.74.1-4.11a16.75,16.75,0,0,1,.49-4.11,10.28,10.28,0,0,1,2-3.72.1.1,0,0,1,.15,0,.09.09,0,0,1,0,.07,24.43,24.43,0,0,1-.23,4.08c-.13,1.32-.61,2.58-.87,3.9s-.49,2.63-.68,4-.39,2.67-.55,4a.1.1,0,0,1-.11.09A.12.12,0,0,1,288.23,173Z" transform="translate(1.67 -0.67)"/><path d="M292.23,181c-.08-1.25-.08-2.5-.1-3.76s0-2.51.11-3.77a15.42,15.42,0,0,1,.38-3.77,8.54,8.54,0,0,1,1.79-3.47.1.1,0,0,1,.15,0,.11.11,0,0,1,0,.07,20.72,20.72,0,0,1,0,3.78,27.26,27.26,0,0,1-.75,3.61c-.47,2.42-.95,4.87-1.4,7.34a.1.1,0,0,1-.11.08A.12.12,0,0,1,292.23,181Z" transform="translate(1.67 -0.67)"/><path d="M298.24,190c-.41-1.23-.71-2.48-1-3.73s-.53-2.53-.75-3.8a15.82,15.82,0,0,1-.46-3.87,10.26,10.26,0,0,1,.9-3.87.11.11,0,0,1,.14-.06l.06.06a16.84,16.84,0,0,1,.89,3.8,29.72,29.72,0,0,1,.06,3.78c0,1.27.07,2.54.15,3.82s.15,2.55.23,3.83a.1.1,0,0,1-.09.11A.1.1,0,0,1,298.24,190Z" transform="translate(1.67 -0.67)"/><path d="M304.23,196.76c-.3-1.08-.54-2.17-.8-3.26s-.46-2.18-.66-3.28a14.46,14.46,0,0,1-.48-3.32,9.22,9.22,0,0,1,.69-3.4.11.11,0,0,1,.15-.05.12.12,0,0,1,.05.05,10.87,10.87,0,0,1,1.1,3.25,18.24,18.24,0,0,1,.09,3.31l.05,3.33v3.35a.1.1,0,0,1-.1.1A.11.11,0,0,1,304.23,196.76Z" transform="translate(1.67 -0.67)"/><path d="M314.74,206.05c-.62-.9-1.18-1.84-1.76-2.77s-1.09-1.89-1.58-2.86a12.47,12.47,0,0,1-1.38-3,7.65,7.65,0,0,1-.12-3.41.12.12,0,0,1,.14-.08s0,0,.06,0a12.53,12.53,0,0,1,1.8,2.78,19.26,19.26,0,0,1,1,3l2,6.15a.1.1,0,0,1-.06.13A.11.11,0,0,1,314.74,206.05Z" transform="translate(1.67 -0.67)"/><path d="M324.75,212.68c-.77-.82-1.49-1.68-2.23-2.53s-1.41-1.74-2.09-2.64a14,14,0,0,1-1.94-2.78,7.42,7.42,0,0,1-.75-3.44.12.12,0,0,1,.12-.11l.06,0h0a16.63,16.63,0,0,1,2.29,2.51,19.87,19.87,0,0,1,1.56,2.92l1.57,3,1.56,3a.09.09,0,0,1,0,.13A.11.11,0,0,1,324.75,212.68Z" transform="translate(1.67 -0.67)"/><path d="M340.27,218a102.61,102.61,0,0,1-8.59-6.09,27.61,27.61,0,0,1-4-3.45,15.19,15.19,0,0,1-2.9-4.53.1.1,0,0,1,.07-.13.09.09,0,0,1,.09,0,50.79,50.79,0,0,1,4.15,3.23c1.32,1.1,2.42,2.45,3.67,3.66s2.51,2.42,3.8,3.59,2.57,2.37,3.86,3.54a.11.11,0,0,1,0,.15A.12.12,0,0,1,340.27,218Z" transform="translate(1.67 -0.67)"/><path d="M344.7,214.88a26.88,26.88,0,0,1-2.8-1.63c-.9-.59-1.77-1.23-2.62-1.9a12.32,12.32,0,0,1-2.46-2.09,8.54,8.54,0,0,1-1.56-2.94.11.11,0,0,1,.08-.14.09.09,0,0,1,.07,0,10.22,10.22,0,0,1,2.83,1.67,17.41,17.41,0,0,1,2.12,2.33c.72.77,1.44,1.54,2.18,2.3s1.48,1.51,2.26,2.23a.1.1,0,0,1,0,.14A.13.13,0,0,1,344.7,214.88Z" transform="translate(1.67 -0.67)"/><path d="M353.55,215.43a13.51,13.51,0,0,1-2.87-1,18.62,18.62,0,0,1-2.64-1.58,9.18,9.18,0,0,1-2.36-2,6.57,6.57,0,0,1-1.26-2.89.11.11,0,0,1,.1-.13h.06a7.09,7.09,0,0,1,1.39.78c.42.27.79.58,1.17.88a22.9,22.9,0,0,1,1.93,2.12c.69.68,1.4,1.34,2.15,1.95a17,17,0,0,0,2.4,1.7h0a.1.1,0,0,1-.07.19Z" transform="translate(1.67 -0.67)"/><path d="M365.49,215.43a17.28,17.28,0,0,1-3.43-.48,19.83,19.83,0,0,1-3.32-1.09,10.23,10.23,0,0,1-3.11-1.65,7.45,7.45,0,0,1-2.12-2.89.11.11,0,0,1,.07-.14.09.09,0,0,1,.07,0,16.71,16.71,0,0,1,3.13,1.4c1,.51,1.75,1.28,2.69,1.86a29.11,29.11,0,0,0,2.92,1.57,21.47,21.47,0,0,0,3.12,1.22h0a.1.1,0,0,1,.07.12A.1.1,0,0,1,365.49,215.43Z" transform="translate(1.67 -0.67)"/><path d="M376.32,214.35c-1.17,0-2.34-.14-3.5-.26s-2.32-.33-3.48-.56a13,13,0,0,1-3.42-.85,8.94,8.94,0,0,1-3-2.09.1.1,0,0,1,0-.15.11.11,0,0,1,.07,0,13.42,13.42,0,0,1,3.53.38,25.81,25.81,0,0,1,3.2,1.2c2.16.76,4.35,1.52,6.58,2.16a.11.11,0,0,1,.07.13A.11.11,0,0,1,376.32,214.35Z" transform="translate(1.67 -0.67)"/><path d="M381.38,211.34a7.27,7.27,0,0,1-2.47.78,13.86,13.86,0,0,1-2.57.15H375a4.18,4.18,0,0,1-1.26-.23,5.31,5.31,0,0,1-2.22-1.46.12.12,0,0,1,0-.17l0,0a4.83,4.83,0,0,1,1.34-.27,7.39,7.39,0,0,1,1.24,0,12.63,12.63,0,0,1,2.33.59,24.08,24.08,0,0,0,2.37.44,7.74,7.74,0,0,0,2.4,0h0a.09.09,0,0,1,.11.08A.1.1,0,0,1,381.38,211.34Z" transform="translate(1.67 -0.67)"/><path d="M386.17,209.35a19.06,19.06,0,0,1-4.35.29,5.48,5.48,0,0,1-2.17-.23A4,4,0,0,1,377.8,208a.12.12,0,0,1,0-.17l0,0a5.43,5.43,0,0,1,2.24-.31,7.89,7.89,0,0,1,2,.59l2,.57c.68.2,1.37.35,2.07.52a.11.11,0,0,1,.08.12A.13.13,0,0,1,386.17,209.35Z" transform="translate(1.67 -0.67)"/><path d="M398.37,202.84c-.95.5-1.93.9-2.91,1.33s-2,.77-3,1.12a13.63,13.63,0,0,1-3,1,8.93,8.93,0,0,1-3.28-.16.11.11,0,0,1-.08-.14s0,0,0-.06a9.58,9.58,0,0,1,2.86-1.59,15.89,15.89,0,0,1,3.09-.57l3.1-.53c1-.17,2.07-.37,3.11-.55a.09.09,0,0,1,.12.07A.11.11,0,0,1,398.37,202.84Z" transform="translate(1.67 -0.67)"/><path d="M302.82,204.74a27,27,0,0,0-2.77,6.37,12.58,12.58,0,0,0-.32,6.55,7.26,7.26,0,0,0,4,4.62c2.2,1.12,4.43,2.2,6.67,3.25l6.77,3.16c2.26,1.07,4.53,2.15,6.73,3.47q.83.5,1.62,1.08a9.36,9.36,0,0,1,.79.62l.69.62a4,4,0,0,0,2.89.76A16.71,16.71,0,0,0,336.5,233l0,0a.69.69,0,0,1,.7,1.18,22.77,22.77,0,0,1-3.43,1.78,13.82,13.82,0,0,1-3.82,1,5.7,5.7,0,0,1-4.17-1l-.73-.59a6.3,6.3,0,0,0-.7-.51,17.47,17.47,0,0,0-1.51-.94c-2.11-1.17-4.38-2.16-6.65-3.14l-6.87-2.93c-2.29-1-4.58-2-6.85-3.05a11.31,11.31,0,0,1-3.45-2.46,9.48,9.48,0,0,1-2.18-3.77,15.5,15.5,0,0,1,.05-8.2,29.89,29.89,0,0,1,2.92-7.37,1.75,1.75,0,1,1,3.06,1.69l0,0Z" transform="translate(1.67 -0.67)"/><path d="M310.06,207.8c1.2.68,2.4,1.35,3.63,2s2.45,1.24,3.7,1.76,2.56.86,3.75,1.42,2.38,1.1,3.7,1.75a.11.11,0,0,1,.05.14.12.12,0,0,1-.06.06,8,8,0,0,1-4.35-.07,14,14,0,0,1-3.82-1.88c-1.21-.72-2.37-1.51-3.5-2.33s-2.2-1.7-3.22-2.66a.1.1,0,0,1,.12-.15Z" transform="translate(1.67 -0.67)"/><path d="M314.93,212.61l.72,1.78.69,1.77a5.75,5.75,0,0,1,.67,1.73,4.62,4.62,0,0,1-.25,2,.13.13,0,0,1-.17.08h0a3.48,3.48,0,0,1-1.48-1.55,4.68,4.68,0,0,1-.3-1.93c-.07-.65-.11-1.29-.12-1.94s0-1.3.06-2a.1.1,0,0,1,.12-.09A.09.09,0,0,1,314.93,212.61Z" transform="translate(1.67 -0.67)"/><path d="M324.74,231.21c-.62-1-1.15-2-1.69-3.07s-1-2.12-1.41-3.23a11.47,11.47,0,0,1-1.06-3.41,6.3,6.3,0,0,1,.65-3.64.1.1,0,0,1,.15,0s0,0,.05.06c.44,1.17.8,2.18,1.12,3.25s.37,2.2.62,3.31c.51,2.21,1.09,4.45,1.75,6.68a.09.09,0,0,1-.06.12A.11.11,0,0,1,324.74,231.21Z" transform="translate(1.67 -0.67)"/><path d="M329.58,231.21c-.66-1-1.23-2-1.8-3s-1.06-2.11-1.51-3.21a11.31,11.31,0,0,1-1.11-3.43,6.51,6.51,0,0,1,.57-3.66.11.11,0,0,1,.15-.05.13.13,0,0,1,.05.06c.49,1.17.85,2.2,1.19,3.27s.41,2.2.68,3.31.58,2.22.9,3.33.69,2.22,1.06,3.33a.11.11,0,0,1-.07.13A.08.08,0,0,1,329.58,231.21Z" transform="translate(1.67 -0.67)"/><ellipse class="cls-4" cx="334.34" cy="225.83" rx="3.67" ry="7.92" transform="matrix(0.97, -0.25, 0.25, 0.97, -44.43, 90.8)"/><path d="M313.08,194a7,7,0,0,0,3.19.7,5.79,5.79,0,0,0,2.94-.92,10.75,10.75,0,0,0,2.42-2.12c.33-.44.71-.85,1.05-1.3s.66-.91,1-1.36c-.18.55-.39,1.08-.61,1.62s-.55,1-.85,1.52a8.4,8.4,0,0,1-2.51,2.49,5.57,5.57,0,0,1-3.51.85A5.15,5.15,0,0,1,313.08,194Z" transform="translate(1.67 -0.67)"/><path d="M314.83,191.25a10.18,10.18,0,0,1,2.38,2.25,8.65,8.65,0,0,1,.9,1.43,3.82,3.82,0,0,1,.47,1.87l-1-.74a12.8,12.8,0,0,1,2.7-.71,8.28,8.28,0,0,1,1.41-.09,4.16,4.16,0,0,1,1.4.24,21.47,21.47,0,0,0-2.52.93l-2.42,1a.74.74,0,0,1-1-.4.75.75,0,0,1-.06-.29v-.05a3.5,3.5,0,0,0-.31-1.18c-.18-.45-.39-.91-.61-1.37C315.72,193.22,315.24,192.28,314.83,191.25Z" transform="translate(1.67 -0.67)"/><path d="M372.06,170.13a3,3,0,0,0,1.34.54,6.38,6.38,0,0,0,1.45.15,6.5,6.5,0,0,1,1.46,0,3.88,3.88,0,0,1,1.52.64.09.09,0,0,1,0,.13h0a2.88,2.88,0,0,1-1.57.72,3.65,3.65,0,0,1-1.61-.29,7.34,7.34,0,0,1-1.54-.63,3,3,0,0,1-1.18-1.16.07.07,0,0,1,0-.1.06.06,0,0,1,.08,0Z" transform="translate(1.67 -0.67)"/><path d="M375,175.43a6.52,6.52,0,0,0,1.75.19,10,10,0,0,0,1.73-.14,10.94,10.94,0,0,1,1.69-.32,6.83,6.83,0,0,1,.89.05,3.82,3.82,0,0,1,1,.22.09.09,0,0,1,.06.11l0,0a3.52,3.52,0,0,1-1.65,1.07,4.67,4.67,0,0,1-1.9,0,9.85,9.85,0,0,1-1.88-.32,5.92,5.92,0,0,1-1.71-.79.09.09,0,0,1,0-.11.08.08,0,0,1,.08,0Z" transform="translate(1.67 -0.67)"/><path d="M378.45,178.59c1.29-.33,2.57-.64,3.82-1a11.33,11.33,0,0,1,1.84-.54,7.37,7.37,0,0,1,2,0,.08.08,0,0,1,.07.1s0,0,0,0a3.84,3.84,0,0,1-1.72,1.27,6.22,6.22,0,0,1-2,.27,24.41,24.41,0,0,1-4,0,.08.08,0,0,1-.07-.08A.11.11,0,0,1,378.45,178.59Z" transform="translate(1.67 -0.67)"/><path d="M382.31,180.93a24.8,24.8,0,0,0,4-1.12,18.56,18.56,0,0,1,1.85-.81,9.79,9.79,0,0,1,2.11-.39.07.07,0,0,1,.09.07s0,0,0,0a4.08,4.08,0,0,1-1.59,1.65,5.73,5.73,0,0,1-2.14.58,14.07,14.07,0,0,1-4.34.11.07.07,0,0,1,0-.14Z" transform="translate(1.67 -0.67)"/><path d="M386.17,182.93a10.14,10.14,0,0,0,1.83-.42,9.63,9.63,0,0,0,1.69-.68,17.19,17.19,0,0,1,1.55-.89,7.54,7.54,0,0,1,1.88-.5.1.1,0,0,1,.1.08v0a3.51,3.51,0,0,1-1.23,1.68,4.59,4.59,0,0,1-1.89.72,8.62,8.62,0,0,1-3.94.11.07.07,0,0,1-.06-.09.08.08,0,0,1,.07,0Z" transform="translate(1.67 -0.67)"/><path d="M387.26,200a43.89,43.89,0,0,0,.22-4.42,13.64,13.64,0,0,0-.17-2.14,5.67,5.67,0,0,0-.58-1.7l-.11-.21a.71.71,0,0,1,.28-1,.67.67,0,0,1,.57,0,2.78,2.78,0,0,0,.55,0,3.58,3.58,0,0,0,.7-.1,11.83,11.83,0,0,0,1.56-.48.09.09,0,0,1,.11.05.17.17,0,0,1,0,.07,3.56,3.56,0,0,1-2.07,1.81,2.56,2.56,0,0,1-1.12.13l.75-1.22a3.84,3.84,0,0,1,.66,2.53,15.9,15.9,0,0,1-.17,2.31,26,26,0,0,1-1,4.4.07.07,0,0,1-.1,0A.08.08,0,0,1,387.26,200Z" transform="translate(1.67 -0.67)"/><path d="M369.07,132.16a33.76,33.76,0,0,1,4.79,2.23,17.4,17.4,0,0,1,4.35,3.33,6.59,6.59,0,0,1,1.52,2.77,5.94,5.94,0,0,1,.15.69l.1.62q.09.63.18,1.29a10.85,10.85,0,0,1,0,2.79,10.31,10.31,0,0,1-.82,2.68,23.56,23.56,0,0,1-2.8,4.36,21.25,21.25,0,0,0-2.75,3.94,11.77,11.77,0,0,0-.59,9.29v0a.21.21,0,0,1-.13.29.22.22,0,0,1-.28-.11,12.61,12.61,0,0,1-.2-10,22.7,22.7,0,0,1,2.53-4.43,21.56,21.56,0,0,0,2.22-4.17,7.28,7.28,0,0,0,.25-4.26c-.08-.38-.16-.76-.26-1.15l-.15-.6a3,3,0,0,0-.15-.51,4,4,0,0,0-1-1.44c-2-1.85-5.21-3.1-8.09-3.94l-.07,0a1.93,1.93,0,1,1,1.08-3.71Z" transform="translate(1.67 -0.67)"/><path d="M390.86,184c2.45-.76,4.9-1.58,7.22-2.55a31.16,31.16,0,0,0,3.33-1.63c.51-.31,1-.63,1.47-1l.37-.27.53-.34c.19-.11.36-.23.55-.33l.6-.23a7,7,0,0,1,4.79,0,10.21,10.21,0,0,1,6.08,6.2l.16.55.08.6a4.09,4.09,0,0,1,0,1.21,3,3,0,0,1-.07.52l-.07.47-.12.93a34.93,34.93,0,0,0,.05,7.58,20.08,20.08,0,0,0,2.06,7.09,95.38,95.38,0,0,0,9,12.5h0a1.47,1.47,0,0,1-.19,2.06,1.75,1.75,0,0,1-.46.26l-.06,0c-1.95.65-3.88,1.22-5.88,1.72-1,.24-2,.46-3,.64a12,12,0,0,1-3.46.15,1.5,1.5,0,0,1,.29-3h0a30,30,0,0,1,5,.8,16,16,0,0,1,2.49.86l.63.31.63.38c.21.15.41.32.62.48l.5.47a17.17,17.17,0,0,1,3.08,4.19,11.89,11.89,0,0,1,1,2.52,7.07,7.07,0,0,1,.19,3h0l-2.39-1.46A17.24,17.24,0,0,1,430,227a10.08,10.08,0,0,1,4.55-.32,9.36,9.36,0,0,1,4,2.08,18.39,18.39,0,0,1,2.95,3.1,23.25,23.25,0,0,1,3.78,7.54,25.21,25.21,0,0,1,1,8.43h0a.88.88,0,0,1-.76.86h-.09a29.63,29.63,0,0,1-4.28.21,33.66,33.66,0,0,1-4.25-.34,30,30,0,0,1-8.26-2.37,1.5,1.5,0,1,1,1.2-2.76l.07,0,.07,0a27,27,0,0,0,7.35,2.62,30.35,30.35,0,0,0,3.92.57,27.39,27.39,0,0,0,3.94.06l-.85.87h0a18.88,18.88,0,0,0-.42-7.84,17.31,17.31,0,0,0-.6-1.89,14.71,14.71,0,0,0-.79-1.82c-.27-.61-.65-1.16-1-1.74s-.73-1.1-1.16-1.6a14.53,14.53,0,0,0-2.79-2.75,7,7,0,0,0-3.3-1.5c-2.33-.21-4.85,1.1-6.6,2.69a1.45,1.45,0,0,1-2-.1,1.42,1.42,0,0,1-.37-1.08l0-.28h0a6.24,6.24,0,0,0-.88-3.61,14.21,14.21,0,0,0-2.53-3.44c-.12-.11-.25-.26-.37-.35l-.32-.24-.38-.24-.44-.21a12.69,12.69,0,0,0-2-.69,26.18,26.18,0,0,0-4.4-.7l.33-3a9.41,9.41,0,0,0,2.5-.16c.93-.15,1.87-.35,2.82-.58,1.88-.47,3.78-1,5.62-1.65l-.7,2.33h0c-1.49-2.18-3-4.32-4.39-6.54a73.82,73.82,0,0,1-4.1-6.8,23.52,23.52,0,0,1-2.09-7.86,38.89,38.89,0,0,1,0-8l.13-1,.07-.5a3.05,3.05,0,0,0,0-.45,2.2,2.2,0,0,0,0-.72c0-.13,0-.25-.07-.37l-.15-.37a6.3,6.3,0,0,0-2.14-2.52c-1.83-1.31-4.12-2-5.81-1.52l-.33.1-.29.17L405,181c-.12.06-.29.19-.44.28a14.4,14.4,0,0,1-1.85,1.06,23.83,23.83,0,0,1-3.82,1.47,35.28,35.28,0,0,1-7.86,1.42.61.61,0,0,1-.66-.57.63.63,0,0,1,.43-.64Z" transform="translate(1.67 -0.67)"/><path d="M399.14,203.24a56,56,0,0,1,5.91,9.8,27.39,27.39,0,0,1,1.94,5.55l.28,1.37c.08.44.2.87.31,1.3.22.86.5,1.71.8,2.55a28.1,28.1,0,0,0,2.31,4.82,20.24,20.24,0,0,0,3.2,4.12,11.14,11.14,0,0,0,.93.79l.48.32.58.32c.79.44,1.6.85,2.42,1.24,1.64.78,3.35,1.52,5,2.14h0a1.7,1.7,0,1,1-1.15,3.19l-.14-.06c-1.76-.81-3.45-1.63-5.15-2.54-.85-.45-1.69-.92-2.52-1.43l-.63-.39-.68-.47a13.22,13.22,0,0,1-1.19-1,22.66,22.66,0,0,1-3.59-4.78,31.15,31.15,0,0,1-2.44-5.32c-.32-.93-.61-1.86-.84-2.81-.11-.48-.24-.95-.31-1.44l-.26-1.38a24.89,24.89,0,0,0-1.6-5.08,59.47,59.47,0,0,0-5.33-9.58l0,0a1,1,0,0,1,1.63-1.16Z" transform="translate(1.67 -0.67)"/><path d="M435.51,244.4a39,39,0,0,1-2.62-7.41,16.73,16.73,0,0,1-.65-3.93,9.92,9.92,0,0,1,.77-3.94.07.07,0,0,1,.1,0,.08.08,0,0,1,.05,0c.26,1.34.41,2.58.58,3.84s.17,2.53.33,3.8a59,59,0,0,0,1.58,7.58.07.07,0,0,1,0,.09A.09.09,0,0,1,435.51,244.4Z" transform="translate(1.67 -0.67)"/><path d="M438.14,243.53a50.55,50.55,0,0,1-2.53-7,14.73,14.73,0,0,1-.78-3.67,7.27,7.27,0,0,1,.68-3.77.08.08,0,0,1,.11,0s0,0,0,.06c.19,1.25.43,2.39.66,3.57s.26,2.38.46,3.58c.39,2.4.92,4.79,1.5,7.18a.08.08,0,0,1,0,.1A.08.08,0,0,1,438.14,243.53Z" transform="translate(1.67 -0.67)"/><path d="M440.51,242a30.43,30.43,0,0,1-2.16-5.21,10.6,10.6,0,0,1-.68-2.77,6.68,6.68,0,0,1,.46-2.88.1.1,0,0,1,.11,0,.07.07,0,0,1,0,0,14.12,14.12,0,0,1,.88,2.67,26.76,26.76,0,0,1,.36,2.71c.28,1.8.67,3.62,1.13,5.42a.09.09,0,0,1,0,.1A.11.11,0,0,1,440.51,242Z" transform="translate(1.67 -0.67)"/></svg>