<?xml version="1.0" encoding="utf-8"?>
<!-- Generator: Adobe Illustrator 22.0.0, SVG Export Plug-In . SVG Version: 6.00 Build 0)  -->
<svg version="1.1" id="图层_2" xmlns="http://www.w3.org/2000/svg" xmlns:xlink="http://www.w3.org/1999/xlink" x="0px" y="0px"
	 viewBox="0 0 193.33 199.49" enable-background="new 0 0 193.33 199.49" xml:space="preserve">
<g>
	<defs>
		<path id="SVGID_1_" d="M193,199.83V91c0,0-5.67-91.33-96-91.33S1,89,1,89v110.83H193z"/>
	</defs>
	<clipPath id="SVGID_2_">
		<use xlink:href="#SVGID_1_"  overflow="visible"/>
	</clipPath>
	<g clip-path="url(#SVGID_2_)">
		<linearGradient id="SVGID_3_" gradientUnits="userSpaceOnUse" x1="97" y1="176.4133" x2="97" y2="-2.3329">
			<stop  offset="0" style="stop-color:#DDB15A"/>
			<stop  offset="0.1596" style="stop-color:#E2B865"/>
			<stop  offset="1" style="stop-color:#FBDC9E"/>
		</linearGradient>
		<path fill="url(#SVGID_3_)" d="M193,199.91V91.08c0,0-5.67-91.33-96-91.33S1,89.08,1,89.08v110.83H193z"/>
		<g opacity="0.49">
			<path fill="#926016" d="M97-0.33c-63.32,0-85.04,43.89-92.36,70.14L57,42.25l12-7.5h-6.75l10-5.25l-1.75-1.75l14.5-3.5l3.07-1.56
				L93.38,20l27.13-5.75l17.33-6.83C126.63,2.61,113.18-0.33,97-0.33z"/>
			<linearGradient id="SVGID_4_" gradientUnits="userSpaceOnUse" x1="98.2182" y1="200.3267" x2="98.2182" y2="-0.8333">
				<stop  offset="0" style="stop-color:#DDB15A"/>
				<stop  offset="0.1596" style="stop-color:#E2B865"/>
				<stop  offset="1" style="stop-color:#FBDC9E"/>
			</linearGradient>
			<path fill="none" stroke="url(#SVGID_4_)" stroke-miterlimit="10" d="M96.67,104.25c0.01,0.02,0.1-0.02,0.23-0.09
				C96.74,104.19,96.65,104.23,96.67,104.25z"/>
			<path fill="#A57230" d="M102,54.75L94.75,61L112,54.75l15.75-2.25v2.75h10.75c0,0-5.75,3-5,3s12.5,2,12.5,2l-13.25,10l13.25-2.5
				l1.75,2.75l18-1L163,72.25l12,1l1.25,2.25l14.13-0.17c-1.49-6.22-3.79-13.77-7.33-21.66L169.5,52.5l-8.25-8.75
				c0,0-6.25,1.75-7.75,2.5s-3-4.13-3-4.13s-8.25-0.13-10.25,0s7-6.88,7-6.88l-11.5,1.5c0,0-17,2.75-17.75,3.25s6.75-11.5,6.75-11.5
				l-18.5-3.75h-16l-2.18-2.06L85,24.25l-14.5,3.5l1.75,1.75l-10,5.25H69l-12,7.5L4.64,69.81C1.51,81.01,1,89,1,89v16.15
				C20.59,93.39,58.37,70.97,64.25,69.5C72.25,67.5,85.75,63,102,54.75z"/>
			<path fill="#89631F" d="M93.38,20l-5.31,2.69l2.18,2.06h16l18.5,3.75c0,0-7.5,12-6.75,11.5s17.75-3.25,17.75-3.25l11.5-1.5
				c0,0-9,7-7,6.88s10.25,0,10.25,0s1.5,4.88,3,4.13s7.75-2.5,7.75-2.5l8.25,8.75l13.55,1.17c-7.71-17.19-21.32-35.99-45.21-46.25
				l-17.33,6.83L93.38,20z"/>
			<linearGradient id="SVGID_5_" gradientUnits="userSpaceOnUse" x1="154.184" y1="200.3267" x2="154.184" y2="-0.8333">
				<stop  offset="0" style="stop-color:#DDB15A"/>
				<stop  offset="0.1596" style="stop-color:#E2B865"/>
				<stop  offset="1" style="stop-color:#FBDC9E"/>
			</linearGradient>
			<path fill="none" stroke="url(#SVGID_5_)" stroke-miterlimit="10" d="M152.58,128.22c-0.04,0.01-0.06,0.02-0.08,0.03
				C152.41,128.31,152.44,128.29,152.58,128.22z"/>
			<path fill="#B5A065" d="M22.75,112.25c0,0,22-5.75,22.75-5.75s10.25-1.25,10.25-1.25l4.5-3.5l23.25,1.75L103,96l7.75-2l-4,2.75
				c0,0-8.36,6.53-9.85,7.41c1.72-0.45,12.71-1.99,13.85-2.91c1.25-1,9.25-5,9.25-5s-9.5,10.25-8.25,10s20.5-8,20.5-8l20.5,1.5
				l1.75,2.75l38.5,1.61V91c0,0-0.4-6.34-2.62-15.67l-14.13,0.17L175,73.25l-12-1l2.75-2.75l-18,1L146,67.75l-13.25,2.5l13.25-10
				c0,0-11.75-2-12.5-2s5-3,5-3h-10.75V52.5L112,54.75L94.75,61l7.25-6.25C85.75,63,72.25,67.5,64.25,69.5
				C58.37,70.97,20.59,93.39,1,105.15v20.04l13.75-7.94L22.75,112.25z"/>
			<path fill="#DCB960" d="M154.5,102.5l-1.75-2.75l-20.5-1.5c0,0-19.25,7.75-20.5,8s8.25-10,8.25-10s-8,4-9.25,5
				c-1.14,0.92-12.14,2.46-13.85,2.91c-0.13,0.08-0.22,0.12-0.23,0.09c-0.01-0.02,0.07-0.05,0.23-0.09
				c1.49-0.87,9.85-7.41,9.85-7.41l4-2.75L103,96l-19.5,7.5l-23.25-1.75l-4.5,3.5c0,0-9.5,1.25-10.25,1.25s-22.75,5.75-22.75,5.75
				l-8,5L1,125.19v14.46c3.71-0.77,7-1.4,7-1.4L19.25,137L39,130.75L58.75,128l22-6.25l24.5-3l18.5,3l21.5-3.25l18.75,0.25
				l12.5-0.25l13,2c0,0-7.5,1.75-9,1.5s-18.75,2.25-20,2.25c-1.09,0-6.98,3.45-7.92,3.97c1.71-0.46,29.38-2.56,40.42-3.39v-20.72
				L154.5,102.5z"/>
			<path fill="#DFCF7F" d="M152.5,128.25c0.01-0.01,0.04-0.02,0.08-0.03c0.94-0.52,6.83-3.97,7.92-3.97c1.25,0,18.5-2.5,20-2.25
				s9-1.5,9-1.5l-13-2l-12.5,0.25l-18.75-0.25l-21.5,3.25l-18.5-3l-24.5,3l-22,6.25L39,130.75L19.25,137L8,138.25
				c0,0-3.29,0.63-7,1.4v60.18h192v-75c-11.04,0.82-38.71,2.92-40.42,3.39C152.44,128.29,152.41,128.31,152.5,128.25z"/>
		</g>
		<g>
			
				<radialGradient id="SVGID_6_" cx="97.6667" cy="175.7467" r="146.841" gradientTransform="matrix(1 0 0 1.6458 0 -113.4993)" gradientUnits="userSpaceOnUse">
				<stop  offset="0" style="stop-color:#FFFBF0"/>
				<stop  offset="0.0935" style="stop-color:#F2F8F1;stop-opacity:0.9159"/>
				<stop  offset="0.5122" style="stop-color:#BEEDF4;stop-opacity:0.539"/>
				<stop  offset="0.8272" style="stop-color:#9DE7F5;stop-opacity:0.2556"/>
				<stop  offset="1" style="stop-color:#91E4F6;stop-opacity:0.1"/>
			</radialGradient>
			<path opacity="0.47" fill="url(#SVGID_6_)" d="M136.33,147.08l66-37L217,130.41l-70,33L136.33,147.08z M49.67,168.41l-61.33-36
				v28.33L47,181.41L49.67,168.41z M3,38.41l65,134.33l6.67-5.33l-41-152.33L3,38.41z M109,136.75l50.33-120L134-7.25L94.67,130.08
				L109,136.75z M81.67,143.41l13-150.67L65-4.25l9.67,143.67L81.67,143.41z"/>
			<g>
				<path fill="#090A0C" d="M162,171.06l1.69-1.44l2.69,0.72v-0.72c0,0-3-2.69-3.25-4l2.81,1.38c0,0-2.06-2.19-2.13-3.56
					c0,0,1.5,1.88,2.56,2.06s0-0.31,0-0.31s-1.9-2.69-1.95-3.81h0.95c0,0-0.69-0.81-0.63-1.5c0,0,1.06,0.94,1.75,0.88l-0.81-2.75
					l1.44,1.69v-2.06c0,0,0.69,0.56,0.63,0.38s-1.38-1.31-1.31-2.19s1.32,0,1.32,0s-1-2.06,0-2c1,0.06,0.75,1.88,0.75,1.88
					s1.25-1.25,1.06-0.38s-1.25,2.81-1.25,2.81s0.13,1,0.25,0.69s1.02-1.56,1.02-1.56v0.88l-0.64,1.31l1.31-1.31l-0.31,1.13
					l-1.38,1.88l0.13,1l1.56-1.63l-0.75,2.56c0,0,0.56,0.38,0.75,0.13s1-1.75,1-1.75v1.75l-0.75,1l0.31,1.31l-1.81,0.88l2.25,0.5
					l1.25-1.13l-1.25,2.69H169l1,1.31c0,0,1.63,0.5,1.75,0.31s0.75-1.06,0.75-1.06s0.44,1.44,0,1.44s-2.25,0.63-2.25,0.63h-0.38
					c0,0,0.19,1.25,0.25,1.5s0.13,0.75,0.13,0.75h1.81l-0.75-0.69c0,0-0.75-0.88-0.5-0.88s1.88,0.06,1.88,0.06l0.37-0.56v-0.81V169
					l0.75-0.19c0,0-1.13-1.63-0.88-1.56s2.06-0.13,2.06-0.13l-1.81-0.69c0,0-0.19-1.31,0-1.31s1.44-0.94,1.44-0.94l-1.13-0.63
					c0,0-0.63,1-0.81,0.94s-0.5-0.94-0.5-0.94l-0.31-1.75l1.13-0.88l0.81,0.81l0.56-1.06c0,0-1.06-0.75-1.25-0.69
					s-0.69-0.56-0.69-0.56l0.56-1c0,0,0.75,0.31,0.69,0.13s-1.44-1.25-1.44-1.25l0.19-1.25c0,0,0-1.06,0.19-1.06
					s0.69,0.06,0.69,0.06l0.81,1.25l0.88-1.5v-1.56v-0.81l0.44-1.36l-0.63-0.95l0.63-1.31l0.31-1.56l0.75,1.75v1v0.63l0.56,0.45
					c0,0-0.56,1.3-0.31,1.17s1.69-0.5,1.69-0.5s-1.5,2.94-1.38,2.75s1.81-0.69,1.81-0.69l-1.56,1.69l0.31,1.19l1.25-0.88l-0.75,1.94
					l-0.69,1.44l1-0.25l0.13,1.06l0.88-1.44v-1.63l0.94,0.19l0.75,2.06l-0.75,1.09c0,0-0.06,0.91,0.31,0.72s1.31-0.13,1.31-0.13
					l-0.88,1.81l1.44-0.88V164l1.13-0.38l-0.56,2.63l1.25-0.5c0,0-0.13,1.31,0,1.31s0.75-0.25,0.75-0.25v3.38
					c0,0,1.38-1.5,1.38-1.31s-0.5,3.75-0.5,3.75s-1.44,2.56-1.13,2.56s1.63-1.44,1.63-1.44s0.69-2.19,0.75-2s0.5,1.81,0.5,1.81
					l1.38-0.25l-1.38,2.88l-1.31,1.5l-0.06,1.56l-1.56,0.31l0.19,1l1.75-0.38l1.06-1.38l-0.56,1.75l-0.69,1.81l-2.19,1.19
					c0,0,2,0,2.19,0s2.63-1.88,2.56-1.69s-0.81,2.69-0.81,2.69l-0.36,0.26l-2.08,1.49l2.38-1.19l0.88-1.94l0.44-2.19l-0.94-0.56
					l0.94-0.13l-0.56-1.13l0.56,0.13v-1.56l0.5,1.44c0,0,0.94-0.56,1-0.38s-0.81,0.94-0.63,1s1.19,0.81,1.19,0.81
					s-1.19,0.75-0.88,0.81s0.88,0.25,0.88,0.5S191,183.5,191,183.5l1.25-1.06l-0.63,1.56l1.38-1l-0.75,1.88l0.75,0.56
					c0,0-2.19,1.38-1.94,1.31s1.94-0.44,1.94-0.44v13.6l-11.75-5.53L162,171.06z"/>
				<path fill="#090A0C" d="M40.5,171.08c0,0-4.5-1.08-4.5-1.42c0-0.33,2.25-2.83,2.25-2.83l-2.64,0.94v-1.94l2.44-1.17l-0.97-0.58
					l-1.17,0.99l-0.3-1.99l0.97-1.33l3-0.75l-1.13-0.67H37l-1,0.58l0.42-1.17H35l0.42-1.08h-1.08V157l0.83-0.21l0.83,0.75l1-0.25
					c0,0,1.58,1.08,1.46,0.96s-0.29-0.92-0.29-0.92l1.5,0.42l0.83,0.54c0,0,0.46-0.13,0.58-0.13s0.29-0.75,0.29-0.75l-0.96,0.08
					L40,156.79L38.83,157l-0.04-1l-0.5-0.58l-0.96,0.5l-0.54,0.52l-0.38-0.4l-0.46,0.4l0.83-1.19l-0.25-0.42l-1.04,0.63l-0.13-0.96
					H34.5l-1.04-0.96h1.17l-0.25-1.04l1.08,0.54l1.96-0.04l-0.83-0.5L36,152.71l-0.08-0.88h-0.88l-0.25-1.25l1,0.5l0.58-0.29
					l0.17,0.63l0.88-0.13l0.63,0.79l1-0.79h0.67l-0.38-0.71l-0.67,0.5l-0.21-0.5l-0.42,0.5l-0.63-0.5l-0.75-0.33l0.33-0.71
					l-0.83-0.5l-0.04-0.71l-0.58-0.54l0.96-0.13l0.58-0.71l0.33,0.96l0.71-0.33l0.17,0.83l0.88,0.25l0.33,0.54l0.96-0.67l-0.63-0.25
					l-0.25-0.63l-0.67-0.21l-0.04-0.88l0.79,0.46l0.38-0.46l0.58,0.71l0.75-0.25l0.96,0.58l0.88-0.29l1.13-0.75h-0.79l-0.88,0.25
					l-0.83-0.58l-0.58,0.42l-0.58-0.42L40.08,146l-1.38,0.17c0,0-0.96,0.46-0.96,0.29s-0.08-0.92-0.08-0.92l0.04-0.42l-0.42-0.79
					h-0.96V143l1.29,0.46c0,0,0.63,0.92,0.83,0.75c0.21-0.17,0.83-0.96,0.83-0.96l0.79,0.54l0.88-0.46l0.67,0.5l0.67-0.46L41.96,143
					h-0.58L41,142.33l0.83-0.5h-1.08h-0.83l-0.42-0.96l-0.42-0.33l-1.21-0.25l-0.38-0.96l0.96-0.38l0.88,0.42v-0.96l0.25-0.79
					l1.54,0.29c0,0,0.17-0.67,0.33-0.71c0.17-0.04,1.42,0,1.42,0l0.25,0.75c0,0,0.38-0.17,0.38-0.29s0.04-0.79,0.04-0.79h0.79v-0.63
					l-1.13,0.25l-0.71-0.54l-0.5-0.5l-0.58,0.21v-0.92l-0.63-0.79l0.5-0.71l1.04,0.42l0.67,0.5l0.83-0.04l0.5,0.38l0.92-0.29
					l-1.13-0.38L44,133.25h-0.67l0.25-1.04L42.96,132c0,0-1,0.29-1.04,0.17c-0.04-0.13-0.46-1.17-0.46-1.17h0.75
					c0,0-1.25-0.88-1.13-0.96c0.13-0.08,0.75,0.25,0.75,0s-0.75-1.83-0.75-1.83l1.42,1.08l1.04,0.71l0.33-0.79
					c0,0-0.33-0.67-0.21-0.75s0.75-0.63,0.88-0.58s1.13,0.25,1.13,0.25l0.17-1.04l-0.71-0.21v-1.38l-0.79-0.5l-0.63-0.79
					c0,0-0.38-1.54-0.13-1.67s1.21,0.71,1.21,0.71l1.04,0.33l-0.71-1.5l-0.54-0.83l1.25-0.25l-1.08-0.71l1.08-0.58L45.17,118
					l1.04,0.75l-0.08-1.5l-0.29-0.96c0,0,1.08,0.63,1.17,0.33s0.29-1.96,0.29-1.96l1.33,0.13l-0.21,1.96l1.13-0.46l-0.58,2.04
					l1.38,0.04c0,0-1.25,1.46-1.08,1.42c0.17-0.04,1.08,0.38,1.08,0.38l-0.71,1.29l1.58-1.13l-0.67,3.13l1.58-1.13l-0.92,2.25
					c0,0-0.46,2-0.42,2.13C50.83,126.83,51,129,51,129l1.46-0.71l-0.13,1.38l2.88-1.67c0,0-1.63,1.96-1.33,2
					c0.29,0.04,1.17,0.79,1.17,0.79l-1.5,0.71l0.25,1.88l-1.63-0.58l-0.33,1.33l2.17,1.04l1.04,0.08l-0.33,1.71l0.96-0.17
					l-0.13,1.38l2.17,0.13c0,0,1.29,0.33,1.17,0.42s-1.17,1.71-1.17,1.71s-1.63,0.54-1.79,0.46c-0.17-0.08-1.08-0.71-1.08-0.71
					s-0.21,1.21-0.5,1.17c-0.29-0.04-1.92-0.54-1.92-0.54l-0.17,1.04l1.13,1.04l1.38-0.54l2.67-0.21l1.75-1l0.92-0.92l0.29,1.79
					l-2.08,1.33l-1.33,0.58l0.5,0.75c0,0,3.21-0.96,3.38-1c0.17-0.04,0.58,0.92,0.58,0.92l-0.71,1.21l-1.79,0.17l-1.83-0.08
					l-0.79,0.63l1.25,0.96l0.52,0.88c0,0-0.02,0.83,0.31,0.63s2.21-1.25,2.21-1.25l0.83,0.96l-0.71,1.08c0,0-2.67,0.96-2.65,0.96
					s-1.52,0.17-1.52,0.17l-1,0.2l0.63,1.59l0.63,0.46l3.54-0.79l1.96,0.63l-2.88,2.54L40.5,171.08z"/>
				<path fill="#090A0C" d="M80.25,65.41l0.5,2.25l0.21,0.96l-0.35,2.13l1.15,0.92c0,0-1.13,1.38-1,1.38s1.46,1.54,1.46,1.54
					l-0.98,4.21l2.73-1.42l-2.54,6.08L83,85.25l2.44-0.38L83.75,87l2.44,0.81l-3.44,1.75L85,90.68l2.31-0.81l-0.94,2l-1.75,0.44
					l1.13,1.75h1.56l-2,1.56h-2.69c0,0,1.06,1.81,1.16,2s2.78,1.56,2.78,1.56l-0.94,1.13l-4,1.06l1.44,2.44l3.06,1l-1.25-2.56
					l2.44-2v-1.94l1.5-2.44l2.31-1.56l-3.19,0.13l1.94-2.38L89.75,90l0.06-2.69l1-0.44l0.31-1.76c0,0-1.38,0.24-1.19,0
					c0.19-0.24,1.19-1.43,1.19-1.43s0.19-2,0-2.19s0.08-2.5,0.08-2.5l0.54,2.94l0.94,1.13l-0.63,1.19l1.88,0.86l-1.31,1.2l1.69,0.88
					c0,0-1.19,0.88-1,0.88s1.81,1.81,1.81,1.81l-1.56,0.5l0.56,1.56l1.38,1.56l-1.13,0.56L97,96.31L95.25,97l1.19,1.25l-0.31,1.19
					L98,98.75l-0.31,2l2.06,0.69v1.5l-2.19-0.19l1.63,2.06L97,106l-0.88-1.44l-2.5-0.44l0.81,2.25l2.56,0.75l-1.5,2.25l2.06,0.44
					l3.44,1.38l-6.75,1.94l2.75,1.81l2.75,0.69l1.63,4.13l0.5,14.44c0,0-4.56,3.56-4.88,3.56s-9.63-1.44-9.63-1.44l-5.19-2.81
					l-12,22.94l-7.94-1.13l1.69-1.31l-5.19-1.38l4.56-1.88l-5.25-3.06l5.19-0.69l-3.94-3.88l2.38-0.38l-0.94-2.06l3.5,2.38
					l-0.13-2.13l2.5,1.56l2.81-0.75c0,0-2.81-0.19-2.81-0.38s-3.56-6.69-3.56-6.69s5.19,3,5.38,3s3.5,0.81,3.5,0.81
					s-6.06-3.81-5.81-3.88s4.31-0.13,4.31-0.13l-3.19-2.94l4.13,1.13l-1.06-3.25l5.81,1.69l1.56-2.13c0,0-6.13-1.31-6.5-1.5
					s-7.63-2.75-7.44-2.75s4.75-0.44,4.75-0.44l-1.38-2.25l3.94,1.06l3.88,2.69h5.38l-0.75-1.44l-2.75,0.44l-2.31-1.44l3.13-2.13
					c0,0-4.13,1.13-4.25,0.94s-3.38-0.25-3.5-0.44s-1.56-2.88-1.56-2.88l3.38,1.06l0.44-1.25l-7.5-5.25l4.19,0.06
					c0,0,2.44,1.06,2.38,0.81s0.25-1.31,0.25-1.31l3.19,2.25c0,0,0.81-0.13,0.94-0.31s-0.56-2-0.56-2l1.88-0.5l-4.13-3l-2.81-6
					l3.19,2.06c0,0,0.13-3.06,0.13-3.25s0.38-3.5,0.38-3.5l1.5,4.13c0,0,2.56,1.31,2.56,1.13s0-1.75,0-1.75l-2.06-2.06l3.31,1.31
					l-1.19-1.67c0,0,1.5-3.14,1.25-2.96s-2.56,1.75-2.56,1.56s0.31-2.06,0.31-2.06s-2.44,1.25-2.25,0.94s0.63-1.94,0.63-1.94
					l-1.69,0.69l0.69-1.69l-2-3.13l2.31,1.63l-1-2.5l2.13,1.44l0.19-2.44l1.81,0.81l2.41-0.81v-1.13L78.38,89l-2.06-3.88L78.88,87
					l-3.75-8.63c0,0,3.31,2.75,3.13,2.31s-1.69-3.44-1.69-3.44l2,1.44l-0.81-3.13l1.5,0.63L78.06,73c0,0,2.13,1.31,1.91,1.13
					s-1.78-2.94-1.78-2.94l1.5,0.75l-0.94-2l1.22-1.31L80.25,65.41z"/>
				<path fill="#090A0C" d="M1,199.91v-9.74l0.75,0.58L1.38,189l1.54,0.67l-0.96-1.63l1.17,1.08l-0.54-1.71l1.08,0.88l-1.13-2.33
					l1.42,0.88l-1.48-2.67l1.65,0.88l-0.92-1.08l1.13,0.42l-1.13-1.83l1.13,0.5l-0.71-1.63l0.71,0.33l0.63-2.46
					c0,0,0.21,2.83,0.38,2.67c0.17-0.17,1.38-0.5,1.38-0.5s-0.96,1.96-0.83,1.79c0.13-0.17,1.38-0.63,1.38-0.63s-0.1,0.17-0.24,0.41
					c-0.31,0.53-0.8,1.37-0.72,1.34c0.13-0.04,2.08,1.46,2.08,1.46l-1.13-2.54l0.29-0.42l1,1.04V183l-1.13-3.96l1.63,1.79l0.71-0.38
					l-0.92-1.42c0,0,0.5-0.33,0.54-0.46s-0.29-1.17-0.29-1.17l0.96,0.75l-0.25-1.67L9.17,176l-0.29-1.71l0.25-1l0.92,1.08l0.38-0.29
					l-0.38-0.79l-0.17-1.46l0.79,0.75v-0.5l-0.79-1.46l1.04,0.54v-0.54l-0.38-1.21l0.79,0.5c0,0-0.38-0.96-0.33-1.13
					c0.04-0.17,0.33-1.25,0.33-1.25l0.25,1.04v0.83l0.63,0.29l-0.42,0.67l0.63,0.04l-0.79,1.29l1,0.08l-0.58,1.46v1l0.88-1.08v1.54
					l-0.58,1.67l1.13-0.79l0.5-1.46c0,0,0,2.17,0,2.08s0.96-1.25,0.96-1.13s-0.63,1.58-0.63,1.58l-0.63,1.92
					c0,0-1.08-0.04-0.96,0.13s0.29,0.88,0.29,0.88l1.04-0.42l0.67-0.67h1.08l0.67,1.04c0,0,0.83,0.54,0.83,0.42s0-1.08,0-1.08
					l0.54-0.5l-0.54-0.63l-0.67,0.33L15.92,177c0,0-0.67-0.79-0.67-0.96c0-0.17,0.42-1.08,0.42-1.08l0.96,1.25L16.54,175l0.13-1.33
					l0.96,1.42l1.21-0.38c0,0,1,0.92,1,0.67s0.04-2.17,0.04-2.17l-0.79,1.04l-0.75-0.67l0.71-0.96L18,172.87l-0.21-0.92l0.79-0.29
					l1.29,0.29l0.5-0.46l-0.29-0.88l-0.63,0.46l-1.29-0.75l-1.13-1.92l-0.08-2.5l1.04,2c0,0,1.54,0.54,1.5,0.5
					c-0.04-0.04,0.67-0.25,0.67-0.25v-0.67l-1.38-0.21l-0.5-2.25l0.13-1.63l0.88,1.33l-0.04-1.17l1.33,1.29l-0.29-1.08l-0.5-0.79
					l-0.88-0.46l-0.38-1.33l0.46-1.58c0,0,1,2.08,1,1.83s-0.29-2.08-0.29-2.08l1.08,1.63l-0.29-2.08l0.29-0.92l-0.46-0.46l0.88-0.79
					l-0.5-0.63l0.92-2.38l0.54,2.13l-0.33,0.83l0.54,0.54l-0.63,0.79l0.63,0.38l-0.46,0.5l1.04,0.67l0.83,0.46
					c0,0-0.88,0.67-0.75,0.67s0.75,0.92,0.75,0.92v1.29l-0.5,0.63l0.17,1.17l0.83-0.38v-0.83l1-0.79l-0.79-1.08l1.25,0.13
					l-1.17-1.21l0.63-1.46l-0.5-1l0.38-0.67l-0.83-0.38l0.46-0.6l-0.42-0.48l0.5-0.33l-0.29-0.92l0.75-0.38l0.21-1.25h0.71
					l-0.21-1.25l0.88-0.75l0.21,1.59l0.63,0.54l-0.54,1.08l0.75-0.08v0.83l0.79-1.58v2.04l0.71-0.08L29,158.12l1.17-0.71l0.21,1
					l-1,1.17l1.63-0.25l-0.71,0.92l0.46,0.75l0.46-0.63v-0.67v-1.13l0.54-0.5l-0.42-0.96l1,0.08L32,158.33l0.71,0.29v0.75l1.13-0.5
					l0.42,0.67l-0.63,0.92l0.04,0.83l1.63,0.5l1.5,0.79l-0.96,1.04l-0.67,0.67l1.04,1.08l-0.38,1.29c0,0,1.17-0.13,1.17,0
					s-1.58,1.25-1.58,1.25l1.92,0.46c0,0-0.29,1.17-0.21,1.33s1.33,2.63,1.33,2.63L17.79,192L1,199.91z"/>
				<path fill="#090A0C" d="M157.63,165.25h2.25l1.13-1.88l-2.63-0.63H161l-0.63-1.63l0.63-1.75l-3.38,1.5l2.25-3.13l-3.75,1.63
					l2.44-1.63L160,153l-3.88,3l2.44-3l1.19-2.63c0,0-4.25,2.5-5.38,2.88l2.13-4.5c0,0-3,2.38-3.75,2.75c0,0,4-8.38,4.13-9.63
					c0,0-4,4.75-6.5,5c0,0,1.13-3,1.63-5c0,0-4.38,3.5-9.5-1.38c0,0,8.5,4.75,10.75-3.88l0.88-3.88c0,0-1.5,4.63-5.5,5
					c0,0,5.75-3.63,6.13-11c0,0-5.38,9-12.25,5.25c0,0,11.88,0.13,9.25-7.75c0,0-0.63,2.25-2.25,2.88c0,0,0.5-0.88,0.25-2.88
					c0,0-6.25,7.82-6.25,3.88c0-0.75,1.25-3,1.25-3s5.63-1.13,7-3.75c0,0-4.25,0.5-7.25,0c0,0,5.88-4.13,6.25-6.75
					c0,0-7.63,2-7.25,1.75s5.75-8.75,5.75-8.75l-6.75,2l1.63-2c0,0-3.38,0.88-2.88,0s5.63-5.13,5.75-7l-4.75,2.75
					c0,0,3.75-6.38,3.63-8.5l-4,3.25c0,0,2.38-7.63,2.13-7.25S142,93,142,93l1.13-5.75l-1.93,0.63c0,0-0.82-6.63-0.82-6.25
					s-0.5,4.88-0.88,4.88s-2.5,0.88-2.13,1s1,2,1,2L138,91.87l-1.63-1.13l1.88,5.5v2.13l-1.88-1.5v1.63l1.25,0.63l-1.88,1.38
					l1.25,0.75l-1.25,1l-2.13-1.63l2,3.13l2.88,0.88l-2.13,1.63l-3.63-0.38l4.38,3.25c0,0-5.13,1.88-4.38,2s5.5,0.88,5.5,0.88l-5,2
					l4.88,1.63l-5.45,0.88l6.57,2.63l-6.57,1.25l2.95,2.5l-2.95,3.63c0,0,0.82,5.13,0.7,5.5s-0.7,7.63-0.7,7.63l4.2,9.13
					L157.63,165.25z"/>
				<g>
					<path fill="#615E49" d="M117.79,86.81c0,0-2.25-3.65-2.21-4.4c0.04-0.75,1-0.46,0.71-1.46c-0.29-1-2.04-3.17-2.04-4.42
						s1.83-5.38,1.25-6.71c-0.58-1.33-0.75-1.42-0.58-2.08c0.17-0.67,0.29-1.21,0.29-1.21s-0.89-0.37-0.96-0.58s0.5-0.75,0.5-0.75
						L114.54,63l2.71,1.46l-0.42,1.83l0.96,1.96v5.42l-1.77,2.92c0,0,1.06,0.54,1.06,1.63c0,1.08,0.35,3.08,0.35,3.08L117.79,86.81z
						"/>
					<polygon fill="#090A0C" points="121.25,65.41 118.75,64.09 118.75,55.12 117.44,54.37 117.44,63.39 113.63,61.37 113.63,63.12 
						117.44,65.06 117.44,119.25 118.75,119.25 118.75,65.73 121.25,67 					"/>
				</g>
			</g>
			<g>
				<linearGradient id="SVGID_7_" gradientUnits="userSpaceOnUse" x1="97" y1="111.7467" x2="97" y2="201.4158">
					<stop  offset="0" style="stop-color:#D99065"/>
					<stop  offset="0.1762" style="stop-color:#AA714F"/>
					<stop  offset="0.4709" style="stop-color:#62412E"/>
					<stop  offset="0.7163" style="stop-color:#2D1E15"/>
					<stop  offset="0.8995" style="stop-color:#0C0806"/>
					<stop  offset="1" style="stop-color:#000000"/>
				</linearGradient>
				<polygon fill="url(#SVGID_7_)" points="1,199.91 22.25,182.25 29,177.75 39.5,169 43.37,159.58 66,152.75 74.5,137 78,135.25 
					80.25,130.5 83,128 85.75,130.25 89.25,131.25 92.75,135 99.25,131.5 97,128 95.25,121.25 103.75,113.5 108.25,116.25 
					110.75,115 114.75,120.75 121.5,110.5 121.5,106 125.75,102.25 133.25,105.25 134.5,112 134.5,119.25 137.25,124.5 134.25,136 
					147,148.25 152,149.75 153.75,160 166.25,175.75 172.25,178.5 193,199.91 				"/>
				<path d="M134.89,213.73h9.53v-1.49l3.83,0.41l-7.08-4.67c0,0,4.08-1.67,3.83-1.92c-0.14-0.14-1.91-1.03-3.48-1.81
					c0.56-0.19,0.94-0.35,0.94-0.46c0-0.4-2.77-3.39-2.77-3.39l3.25,1.13v-2.32l-3.01-1.39l1.2-0.7l1.44,1.18l0.37-2.38l-1.19-1.59
					l-3.7-0.9l1.39-0.8h1.8l1.23,0.7l-0.51-1.39h1.75l-0.51-1.3h1.33v-1.99l-1.03-0.25l-1.03,0.9l-1.23-0.3c0,0-1.95,1.3-1.8,1.15
					c0.15-0.15,0.36-1.1,0.36-1.1l-1.85,0.5l-1.03,0.65c0,0-0.56-0.15-0.72-0.15c-0.11,0-0.25-0.49-0.32-0.74l0.17-0.14l0.98,0.08
					l0.51-0.85l1.44,0.25l0.05-1.2l0.62-0.7l1.18,0.6l0.67,0.62l0.46-0.47l0.56,0.47l-1.03-1.42l0.31-0.5l1.28,0.75l0.15-1.15h1.08
					l1.28-1.15h-1.44l0.31-1.25l-1.33,0.65l-0.87-0.02l0.99-0.88l-0.72-0.23l0.03-0.32h1.08l0.31-1.49l-1.23,0.59l-0.72-0.34
					l-0.21,0.75l-1.08-0.15l-0.49,0.6l-0.57,0.13l-0.95-0.73h-0.82l0.46-0.85l0.82,0.59l0.26-0.59l0.51,0.59l0.77-0.59l0.92-0.4
					l-0.41-0.85l0.16-0.09c-0.37-0.02-0.74-0.05-1.1-0.07c0.59-0.21,1.07-0.39,1.07-0.39l0.85-1.3l-1-1.15c0,0-2.24,1.25-2.64,1.49
					c-0.4,0.25-0.37-0.75-0.37-0.75l-0.62-1.05l-1.49-1.15l0.95-0.75l2.19,0.1l2.14-0.2l0.85-1.44c0,0-0.5-1.15-0.7-1.1
					c-0.2,0.05-4.04,1.2-4.04,1.2l-0.6-0.9l1.59-0.7l2.49-1.59l-0.35-2.14l-1.1,1.1l-2.09,1.2l-3.19,0.25l-1.64,0.65l-1.35-1.25
					l0.2-1.25c0,0,1.94,0.6,2.29,0.65s0.6-1.39,0.6-1.39s1.1,0.75,1.3,0.85c0.2,0.1,2.14-0.55,2.14-0.55s1.25-1.94,1.39-2.04
					c0.15-0.1-1.39-0.5-1.39-0.5l-2.59-0.15l0.15-1.64l-1.15,0.2l0.4-2.04l-1.25-0.1l-2.59-1.25l0.4-1.59l1.94,0.7l-0.3-2.24
					l1.79-0.85c0,0-1.05-0.9-1.39-0.95c-0.35-0.05,1.59-2.39,1.59-2.39l-3.44,1.99l0.15-1.64l-1.74,0.85c0,0-0.2-2.59-0.25-2.74
					c-0.05-0.15,0.5-2.54,0.5-2.54l1.1-2.69l-1.89,1.35l0.8-3.74l-1.89,1.35l0.85-1.54c0,0-1.1-0.5-1.3-0.45
					c-0.2,0.05,1.3-1.69,1.3-1.69l-1.64-0.05l0.7-2.44l-1.35,0.55l0.25-2.34l-1.59-0.15c0,0-0.25,1.99-0.35,2.34
					c-0.1,0.35-1.39-0.4-1.39-0.4l0.35,1.15l0.1,1.79l-1.25-0.9l0.8,2.04l-1.3,0.7l1.3,0.85l-1.49,0.3l0.65,1l0.85,1.79l-1.25-0.4
					c0,0-1.15-1-1.44-0.85c-0.3,0.15,0.15,1.99,0.15,1.99l0.75,0.95l0.95,0.6v1.64l0.85,0.25l-0.2,1.25c0,0-1.2-0.25-1.35-0.3
					c-0.15-0.05-0.9,0.6-1.05,0.7c-0.15,0.1,0.25,0.9,0.25,0.9l-0.4,0.95l-1.25-0.85l-1.69-1.3c0,0,0.9,1.89,0.9,2.19
					s-0.75-0.1-0.9,0c-0.15,0.1,1.35,1.15,1.35,1.15h-0.9c0,0,0.5,1.25,0.55,1.39c0.05,0.15,1.25-0.2,1.25-0.2l0.75,0.25l-0.3,1.25
					h0.8l0.15,0.7l1.35,0.45l-1.1,0.35l-0.6-0.45l-1,0.05l-0.8-0.6l-1.25-0.5l-0.6,0.85l0.75,0.95v1.1l0.7-0.25l0.6,0.6l0.85,0.65
					l1.35-0.3v0.75h-0.95c0,0-0.05,0.8-0.05,0.95s-0.45,0.35-0.45,0.35l-0.3-0.9c0,0-1.49-0.05-1.69,0s-0.4,0.85-0.4,0.85
					l-1.84-0.35l-0.3,0.95v1.15l-1.05-0.5l-1.15,0.45l0.45,1.15l1.44,0.3l0.5,0.4l0.5,1.15h1h1.3l-1,0.6l0.45,0.8h0.7l0.4,0.45
					l-0.8,0.55l-0.8-0.6l-1.05,0.55l-0.95-0.65c0,0-0.75,0.95-1,1.15s-1-0.9-1-0.9l-1.54-0.55v1.59h1.15l0.5,0.95l-0.05,0.5
					c0,0,0.1,0.9,0.1,1.1c0,0.2,1.15-0.35,1.15-0.35l1.64-0.2l0.7,0.3l0.7,0.5l0.7-0.5l1,0.7l1.05-0.3h0.95l-1.35,0.9l-1.05,0.35
					l-1.15-0.7l-0.9,0.3l-0.7-0.85l-0.45,0.55l-0.95-0.55l0.05,1.05l0.8,0.25l0.3,0.75l0.75,0.3l-1.15,0.8l-0.4-0.65l-1.05-0.3
					l-0.2-1l-0.85,0.4l-0.4-1.15l-0.7,0.85l-1.15,0.15l0.7,0.65l0.05,0.85l1,0.6l-0.4,0.85l0.9,0.4l0.75,0.59l0.5-0.59l0.25,0.59
					l0.8-0.59l0.45,0.85h-0.8l-1.2,0.95l-0.75-0.95l-1.05,0.15l-0.2-0.75l-0.7,0.34l-1.2-0.59l0.3,1.49h1.05l0.1,1.05l0.7-0.25
					l1,0.6l-2.34,0.05l-1.3-0.65l0.3,1.25h-1.39l1.25,1.15h1.05l0.15,1.15l1.25-0.75l0.3,0.5l-1,1.42l0.55-0.47l0.45,0.47l0.65-0.62
					l1.15-0.6l0.6,0.7l0.05,1.2l1.39-0.25l0.5,0.85l1.15-0.1c0,0-0.2,0.9-0.35,0.9c-0.15,0-0.7,0.15-0.7,0.15l-1-0.65l-1.79-0.5
					c0,0,0.2,0.95,0.35,1.1c0.15,0.15-1.74-1.15-1.74-1.15l-1.2,0.3l-1-0.9l-1,0.25v1.99h1.3l-0.5,1.3h1.69l-0.5,1.39l1.2-0.7h1.74
					l1.35,0.8l-3.59,0.9l-1.16,1.59l0.36,2.38l1.39-1.18l1.16,0.7l-2.92,1.39v2.32l3.15-1.13c0,0-2.69,2.99-2.69,3.39
					c0,0.09,0.26,0.21,0.65,0.36c-1.9,1.33-4.22,2.99-4.22,2.99l2.36,0.86c-1.78,1.19-3.28,2.18-3.28,2.18l-2.92,2.25l3.08,0.48v1.6
					h11.66H134.89z"/>
				<path d="M60.12,226.31c0,0,2.41-0.98,2.26-1.13c-0.08-0.08-1.13-0.61-2.05-1.06c0.33-0.11,0.56-0.21,0.56-0.27
					c0-0.23-1.63-2-1.63-2l1.91,0.66v-1.37l-1.77-0.82l0.71-0.41l0.85,0.7l0.22-1.4l-0.7-0.94l-2.18-0.53l0.82-0.47h1.06l0.73,0.41
					l-0.3-0.82h1.03l-0.3-0.76h0.79v-1.17l-0.61-0.15l-0.6,0.53l-0.73-0.18c0,0-1.15,0.76-1.06,0.68c0.09-0.09,0.21-0.65,0.21-0.65
					l-1.09,0.29l-0.61,0.38c0,0-0.33-0.09-0.42-0.09c-0.07,0-0.15-0.29-0.19-0.44l0.1-0.08l0.58,0.05l0.3-0.5l0.85,0.15l0.03-0.7
					l0.36-0.41l0.7,0.35l0.39,0.37l0.27-0.28l0.33,0.28l-0.61-0.84l0.18-0.29l0.76,0.44l0.09-0.68h0.64l0.76-0.68h-0.85l0.18-0.73
					l-0.79,0.38l-0.51-0.01l0.59-0.52l-0.42-0.14l0.02-0.19h0.64l0.18-0.88l-0.73,0.35l-0.42-0.2l-0.12,0.44l-0.64-0.09l-0.29,0.35
					l-0.33,0.07l-0.56-0.43h-0.48l0.27-0.5l0.48,0.35l0.15-0.35l0.3,0.35l0.45-0.35l0.54-0.23l-0.24-0.5l0.09-0.05
					c-0.22-0.01-0.43-0.03-0.65-0.04c0.35-0.12,0.63-0.23,0.63-0.23l0.5-0.76l-0.59-0.68c0,0-1.32,0.73-1.56,0.88
					c-0.23,0.15-0.22-0.44-0.22-0.44L58,207.73l-0.88-0.68l0.56-0.44l1.29,0.06l1.26-0.12l0.5-0.85c0,0-0.29-0.68-0.41-0.65
					c-0.12,0.03-2.38,0.7-2.38,0.7l-0.35-0.53l0.94-0.41l1.47-0.94l-0.21-1.26l-0.65,0.65l-1.23,0.7l-1.88,0.15l-0.97,0.38
					l-0.79-0.73l0.12-0.73c0,0,1.15,0.35,1.35,0.38c0.21,0.03,0.35-0.82,0.35-0.82s0.65,0.44,0.76,0.5
					c0.12,0.06,1.26-0.32,1.26-0.32s0.73-1.15,0.82-1.2c0.09-0.06-0.82-0.29-0.82-0.29l-1.53-0.09l0.09-0.97L56,200.33l0.23-1.2
					l-0.73-0.06l-1.53-0.73l0.23-0.94l1.15,0.41l-0.18-1.32l1.06-0.5c0,0-0.62-0.53-0.82-0.56s0.94-1.41,0.94-1.41l-2.03,1.17
					l0.09-0.97l-1.03,0.5c0,0-0.12-1.53-0.15-1.61c-0.03-0.09,0.29-1.5,0.29-1.5l0.65-1.59l-1.12,0.79l0.47-2.2l-1.12,0.79l0.5-0.91
					c0,0-0.65-0.29-0.76-0.26c-0.12,0.03,0.76-1,0.76-1l-0.97-0.03l0.41-1.44l-0.79,0.32l0.15-1.38l-0.94-0.09
					c0,0-0.15,1.17-0.21,1.38c-0.06,0.21-0.82-0.23-0.82-0.23l0.21,0.68l0.06,1.06l-0.73-0.53l0.47,1.2l-0.76,0.41l0.76,0.5
					l-0.88,0.18l0.38,0.59l0.5,1.06l-0.73-0.23c0,0-0.68-0.59-0.85-0.5c-0.18,0.09,0.09,1.17,0.09,1.17l0.44,0.56l0.56,0.35v0.97
					l0.5,0.15l-0.12,0.73c0,0-0.7-0.15-0.79-0.18s-0.53,0.35-0.62,0.41c-0.09,0.06,0.15,0.53,0.15,0.53l-0.23,0.56l-0.73-0.5
					l-1-0.76c0,0,0.53,1.12,0.53,1.29s-0.44-0.06-0.53,0s0.79,0.68,0.79,0.68h-0.53c0,0,0.29,0.73,0.32,0.82s0.73-0.12,0.73-0.12
					l0.44,0.15l-0.18,0.73h0.47l0.09,0.41l0.79,0.26l-0.65,0.21l-0.35-0.26l-0.59,0.03l-0.47-0.35l-0.73-0.29l-0.35,0.5l0.44,0.56
					v0.65l0.41-0.15l0.35,0.35l0.5,0.38l0.79-0.18v0.44h-0.56c0,0-0.03,0.47-0.03,0.56c0,0.09-0.26,0.21-0.26,0.21l-0.18-0.53
					c0,0-0.88-0.03-1,0c-0.12,0.03-0.23,0.5-0.23,0.5l-1.09-0.21l-0.18,0.56v0.68l-0.62-0.29L43.88,202l0.26,0.68l0.85,0.18
					l0.29,0.23l0.29,0.68h0.59h0.76l-0.59,0.35l0.26,0.47h0.41l0.23,0.26l-0.47,0.32l-0.47-0.35l-0.62,0.32l-0.56-0.38
					c0,0-0.44,0.56-0.59,0.68s-0.59-0.53-0.59-0.53l-0.91-0.32v0.94h0.68l0.29,0.56L44,206.38c0,0,0.06,0.53,0.06,0.65
					c0,0.12,0.68-0.21,0.68-0.21l0.97-0.12l0.41,0.18l0.41,0.29l0.41-0.29l0.59,0.41l0.62-0.18h0.56l-0.79,0.53l-0.62,0.21
					l-0.68-0.41l-0.53,0.18l-0.41-0.5l-0.26,0.32l-0.56-0.32l0.03,0.62l0.47,0.15l0.18,0.44l0.44,0.18l-0.68,0.47l-0.23-0.38
					l-0.62-0.18l-0.12-0.59l-0.5,0.23l-0.23-0.68l-0.41,0.5l-0.68,0.09l0.41,0.38l0.03,0.5l0.59,0.35l-0.23,0.5l0.53,0.23l0.44,0.35
					l0.29-0.35l0.15,0.35l0.47-0.35l0.26,0.5h-0.47l-0.7,0.56l-0.44-0.56l-0.62,0.09l-0.12-0.44l-0.41,0.2l-0.7-0.35l0.18,0.88h0.62
					l0.06,0.62l0.41-0.15l0.59,0.35l-1.38,0.03l-0.76-0.38l0.18,0.73h-0.82l0.73,0.68h0.62l0.09,0.68l0.73-0.44l0.18,0.29
					l-0.59,0.84l0.32-0.28l0.26,0.28l0.38-0.37l0.68-0.35l0.35,0.41l0.03,0.7l0.82-0.15l0.29,0.5l0.68-0.06c0,0-0.12,0.53-0.21,0.53
					s-0.41,0.09-0.41,0.09l-0.59-0.38l-1.06-0.29c0,0,0.12,0.56,0.21,0.65c0.09,0.09-1.03-0.68-1.03-0.68l-0.7,0.18l-0.59-0.53
					l-0.59,0.15v1.17h0.76l-0.29,0.76h1l-0.29,0.82l0.7-0.41h1.03l0.79,0.47l-2.11,0.53l-0.68,0.94l0.21,1.4l0.82-0.7l0.69,0.41
					l-1.72,0.82v1.37l1.86-0.66c0,0-1.59,1.76-1.59,2c0,0.05,0.15,0.13,0.38,0.21c-1.12,0.78-2.49,1.76-2.49,1.76l1.39,0.51
					c-1.05,0.7-1.93,1.28-1.93,1.28l-1.72,1.33l1.82,0.28v0.94h6.87h9.27h5.61v-0.88l2.26,0.24L60.12,226.31z"/>
				<path d="M105.75,203.66l-0.81-0.66l0.81-2.21l-1.49,1.18l0.68-1.84l-1.36,1.25c0,0,0.68-1.55,0.68-1.84s-0.61-0.52-0.95-0.59
					c-0.34-0.07,0.95-0.96,0.95-0.96s-1.09-0.89-1.29-0.96c-0.2-0.07,0.75-0.96,0.68-1.18c-0.07-0.22-1.09,0.44-1.09,0.44
					l-0.05-0.16c-0.26,0.28-0.52,0.57-0.79,0.84l0.3,0.65l-1.02,0.15l1.02,0.66l-0.47,2.58l-0.95,2.29l-2.58,1.4l2.26-1.76
					l0.39-0.31c0,0,0.81-2.95,0.88-3.17c0.03-0.09-0.4,0.23-0.93,0.64l0.83-0.91l-2.2-1.7l-3.5,0.85v-0.85c0,0,3.9-3.17,4.23-4.72
					l-3.66,1.62c0,0,2.68-2.58,2.77-4.2c0,0-1.95,2.21-3.34,2.43s0-0.37,0-0.37s2.48-3.17,2.54-4.5h-1.24c0,0,0.89-0.96,0.81-1.77
					c0,0-1.38,1.11-2.28,1.03l1.06-3.25l-1.87,1.99v-2.43c0,0-0.89,0.66-0.81,0.44c0.08-0.22,1.79-1.55,1.71-2.58
					c-0.08-1.03-1.71,0-1.71,0s1.3-2.43,0-2.36c-1.3,0.07-0.97,2.21-0.97,2.21s-1.63-1.48-1.38-0.44c0.24,1.03,1.63,3.32,1.63,3.32
					s-0.16,1.18-0.33,0.81c-0.16-0.37-1.33-1.84-1.33-1.84v1.03l0.84,1.55l-1.71-1.55l0.41,1.33l1.79,2.21l-0.16,1.18l-2.03-1.92
					l0.98,3.02c0,0-0.73,0.44-0.98,0.15s-1.3-2.07-1.3-2.07v2.07l0.98,1.18l-0.41,1.55l2.36,1.03l-2.93,0.59l-1.63-1.33l1.63,3.17
					h2.93l-1.3,1.55c0,0-2.11,0.59-2.28,0.37c-0.16-0.22-0.98-1.25-0.98-1.25s-0.57,1.7,0,1.7s2.93,0.74,2.93,0.74h0.49
					c0,0-0.24,1.48-0.33,1.77c-0.08,0.3-0.16,0.89-0.16,0.89h-2.36l0.98-0.81c0,0,0.98-1.03,0.65-1.03c-0.33,0-2.45,0.07-2.45,0.07
					l-0.48-0.66v-0.96v-1.7l-0.98-0.22c0,0,1.46-1.92,1.14-1.84c-0.33,0.07-2.68-0.15-2.68-0.15l2.36-0.81c0,0,0.24-1.55,0-1.55
					S85,191.07,85,191.07l1.46-0.74c0,0,0.81,1.18,1.06,1.11c0.24-0.07,0.65-1.11,0.65-1.11l0.41-2.06l-1.46-1.03l-1.06,0.96
					l-0.73-1.25c0,0,1.38-0.89,1.63-0.81c0.24,0.07,0.89-0.66,0.89-0.66l-0.73-1.18c0,0-0.98,0.37-0.89,0.15
					c0.08-0.22,1.87-1.48,1.87-1.48l-0.24-1.48c0,0,0-1.25-0.24-1.25s-0.89,0.07-0.89,0.07l-1.06,1.48l-1.14-1.77v-1.84v-0.96
					l-0.57-1.6l0.81-1.13l-0.81-1.55l-0.41-1.84l-0.98,2.07v1.18v0.74l-0.73,0.54c0,0,0.73,1.53,0.41,1.38s-2.2-0.59-2.2-0.59
					s1.95,3.47,1.79,3.25c-0.16-0.22-2.36-0.81-2.36-0.81l2.03,1.99l-0.41,1.4l-1.63-1.03l0.98,2.29l0.89,1.7l-1.3-0.3l-0.16,1.25
					l-1.14-1.7v-1.92l-1.22,0.22l-0.98,2.43l0.98,1.29c0,0,0.08,1.07-0.41,0.85c-0.49-0.22-1.71-0.15-1.71-0.15l1.14,2.14
					l-1.87-1.03v2.58l-1.46-0.44l0.73,3.1l-1.63-0.59c0,0,0.16,1.55,0,1.55c-0.16,0-0.98-0.3-0.98-0.3v3.98c0,0-1.79-1.77-1.79-1.55
					s0.65,4.43,0.65,4.43s1.87,3.02,1.46,3.02c-0.41,0-2.11-1.7-2.11-1.7s-0.89-2.58-0.98-2.36c-0.08,0.22-0.65,2.14-0.65,2.14
					l-1.79-0.3l1.79,3.39l1.71,1.77l0.08,1.84l2.03,0.37l-0.24,1.18l-2.28-0.44l-1.38-1.62l0.73,2.07l0.73,1.75l0.16,0.39l1.27,0.63
					l1.57,0.77c0,0-0.17,0-0.42,0c3.49,2.26,7.22,6.42,11.1,7.83h7.62h2.38h12.76v-17.07c0,0-1.83,0.44-2.1,0.52
					C103.37,205.28,105.75,203.66,105.75,203.66z"/>
			</g>
		</g>
	</g>
</g>
</svg>
