<?xml version="1.0" encoding="utf-8"?>
<!-- Generator: Adobe Illustrator 22.0.0, SVG Export Plug-In . SVG Version: 6.00 Build 0)  -->
<svg version="1.1" id="图层_2" xmlns="http://www.w3.org/2000/svg" xmlns:xlink="http://www.w3.org/1999/xlink" x="0px" y="0px"
	 viewBox="0 0 634.05 1116.99" enable-background="new 0 0 634.05 1116.99" xml:space="preserve">
<g>
	<rect x="-3.97" y="6.81" fill="#EDE4D6" width="644" height="1110"/>
	<polygon fill="#DFC5AF" points="-3.97,1116.81 640.03,1116.81 640.03,677.81 576.03,611.81 -3.97,966.65 	"/>
</g>
<g>
	<g>
		<path d="M97.45,1103.15l-0.94-1.16l-0.8-1.02l-1.51-2c-0.98-1.33-1.93-2.67-2.84-4.03c-1.84-2.71-3.55-5.51-5.18-8.39
			c-3.22-5.77-6.06-11.9-8.17-18.61c-2.09-6.69-3.47-14.02-3.24-21.88c0.12-3.92,0.65-7.95,1.71-11.93
			c1.05-3.98,2.62-7.88,4.63-11.5c4.03-7.26,9.7-13.24,15.69-17.74c6.01-4.6,12.35-7.87,18.66-10.59
			c6.32-2.69,12.65-4.68,18.95-6.31c6.3-1.63,12.56-2.84,18.78-3.82l2.34-0.37l2.23-0.31l4.62-0.63c1.91-0.23,3.56-0.38,5.25-0.51
			c1.67-0.12,3.32-0.23,4.94-0.29c6.51-0.29,12.87-0.22,19.2,0.07c12.65,0.59,25.11,2.14,37.4,4.43c6.14,1.15,12.24,2.47,18.3,3.96
			c6.04,1.52,12.05,3.17,18,5c5.94,1.85,11.85,3.8,17.67,5.96l2.19,0.8l1.08,0.4l0.85,0.3c1.13,0.41,2.26,0.79,3.39,1.14
			c2.26,0.72,4.54,1.33,6.83,1.85c9.13,2.11,18.38,2.57,27.38,1.48c9.01-1.09,17.78-3.79,25.94-7.86
			c8.15-4.07,15.69-9.5,22.16-15.94c6.47-6.43,11.87-13.84,15.77-21.67c1.93-3.92,3.53-7.92,4.65-11.93c0.57-2,1.05-4,1.4-5.99
			c0.32-1.85,0.66-4.25,0.93-6.73c0.55-4.97,0.92-10.26,1.13-15.54c0.21-5.29,0.27-10.62,0.16-15.9
			c-0.22-10.54-1.07-20.99-2.8-30.42c-0.86-4.7-1.97-9.12-3.28-12.86c-1.28-3.69-2.87-6.73-3.91-7.91
			c-11.1-12.66-9.84-31.92,2.82-43.02c12.66-11.1,31.92-9.84,43.02,2.82c1.07,1.22,2.02,2.49,2.86,3.82l2.01,3.23
			c2.69,4.31,4.7,8.48,6.31,12.49c1.63,4.01,2.85,7.86,3.88,11.62c2.02,7.49,3.21,14.57,4.02,21.46c1.58,13.75,1.7,26.77,1.15,39.63
			c-0.28,6.43-0.76,12.8-1.43,19.18c-0.68,6.39-1.52,12.75-2.69,19.36c-0.59,3.31-1.26,6.68-2.21,10.54
			c-0.93,3.73-2.06,7.36-3.33,10.91c-2.54,7.11-5.76,13.83-9.45,20.18c-7.42,12.67-16.8,23.8-27.56,33.2
			c-10.77,9.4-22.99,17.07-36.18,22.62c-13.18,5.55-27.36,8.91-41.7,9.71c-14.32,0.81-28.74-0.94-42.19-4.97
			c-3.37-1-6.68-2.12-9.92-3.38c-1.63-0.62-3.23-1.28-4.82-1.97l-2.15-0.93l-1.89-0.83c-5.02-2.24-10.12-4.29-15.24-6.26
			c-5.13-1.95-10.31-3.74-15.53-5.42c-5.22-1.65-10.48-3.15-15.78-4.5c-10.58-2.69-21.31-4.72-32.01-5.92
			c-5.34-0.6-10.69-0.99-15.88-1.1c-1.3-0.03-2.58-0.03-3.83-0.02c-1.23,0.01-2.5,0.05-3.5,0.1l-4.1,0.3l-2.13,0.16l-2.01,0.2
			c-10.74,1.02-21.25,2.84-30.42,6.06c-4.54,1.62-8.8,3.55-12.25,5.87c-3.52,2.29-6.19,4.9-8.07,7.76c-1.87,2.86-3.01,6.09-3.4,9.95
			c-0.39,3.84,0.04,8.24,1.15,12.79c1.11,4.55,2.9,9.24,5.11,13.83c1.11,2.29,2.33,4.57,3.64,6.79c0.65,1.11,1.33,2.21,2.02,3.28
			l1.04,1.57l0.91,1.32l0.52,0.75c4,5.78,2.55,13.7-3.23,17.7C109.07,1109.39,101.61,1108.23,97.45,1103.15z"/>
	</g>
	<path fill="#757575" d="M370.03,527.81c-15-15-27,1-31,51.38s31,44.62,31,44.62s20.59-2.95,36.5-10.64
		c-0.92-17.77-5.99-38.42-4.73-53.53C388.51,554.28,382.26,540.05,370.03,527.81z"/>
	<path d="M179.62,316.42c21,18,25.4,26.4,25.4,35.4s16,16,30,9s26.63-17,7-38c-7.46-7.98-6.51-17.11-2.46-25.36
		c-14.39,3.24-25.54,6.86-25.54,6.86s-27.59-12.77-47.71-14.58C168.53,300.33,172.53,310.34,179.62,316.42z"/>
	<g>
		<path fill="#FFFFFF" d="M442.03,511.81c-30.3-42.34-41.59-38.84-81-71.75c-16.91-22.4-41-18.75-41-18.75
			c19.8-17.53,12-59.58,12-59.58c3.75-12.58-2.84-45.25-2.84-45.25s16.11-45.68,4.61-55.18c-11.5-9.5-47.26,26.94-47.26,26.94
			c-21.05-2.98-26.34,1.5-46.96,9.22c-4.05,8.26-5,17.39,2.46,25.36c19.63,21,7,31-7,38s-30,0-30-9s-4.4-17.4-25.4-35.4
			c-7.09-6.08-11.1-16.09-13.3-26.68c-8.03-0.72-14.87,0.3-18.29,4.58c-12,15,24.5,65,24.5,65s-6.21,82.5,36.7,87.75
			c0,0,7.16,36.3,1.05,89.25c-2.59,22.46-12.24,49.57-18.25,75.5c-11,47.5,33.5,93,33.5,93s-79.92-48-55.43,64.2
			c10.17,46.6,58.18,166.49,166.31,118.37c-5.51-16.9-20.45-31.16-36.79-47.5c-24-24-43.5-42-49.5-72s52.5-12,87-4.5
			s19.5,36,44.63,43.5c25.13,7.5,6.37-30,21.37-48c15-18,4.5-36-13.5-52.5c-18-16.5-1.5-39,13.5-69c3.25-6.5,3.89-14.97,3.41-24.22
			c-15.91,7.69-36.5,10.64-36.5,10.64s-35,5.76-31-44.62s16-66.38,31-51.38c12.23,12.23,18.48,26.46,31.77,31.83
			c1.11-13.33,7.14-22.34,25.32-21.24c49.5,3,51.32,85.6,51.32,85.61C474.89,582.47,468.03,548.15,442.03,511.81z"/>
	</g>
	<path d="M480.69,665.95c-0.41-11.85-0.93-26.38-2.26-41.93c0-0.01-1.83-82.61-51.32-85.61c-18.17-1.1-24.21,7.91-25.32,21.24
		c-1.26,15.11,3.81,35.76,4.73,53.53c0.48,9.25-0.16,17.72-3.41,24.22c-15,30-31.5,52.5-13.5,69c18,16.5,28.5,34.5,13.5,52.5
		c-15,18,3.77,55.5-21.37,48c-25.13-7.5-10.13-36-44.63-43.5s-93-25.5-87,4.5s25.5,48,49.5,72c16.34,16.34,31.28,30.6,36.79,47.5
		c0.73-0.33,1.47-0.66,2.21-1c0,0,23.52,3.73,42-1.5c17.04-4.82,66.58-51.91,80.08-74.41C474.19,787.98,482.19,709.45,480.69,665.95
		z"/>
	<path d="M306.36,527.48c0,0-16.33,2.67-25-15.67c-8.67-18.33,12.67-52.67,38.67-54.67s63.67-4,58.67,16.67
		S370.03,530.15,306.36,527.48z"/>
</g>
<g>
	<path fill="#757575" d="M298.03,366.56c0,0,12.25-12.25,9.25-19.5s-12.75-17-5-16s24,3.68,26.5,17.71s-7,17.54-14.5,17.79
		S303.78,374.06,298.03,366.56z"/>
	<path fill="#757575" d="M268.4,418.94c0,0-0.75-2.5,9.75-4.75s14.93-3.88,16.53-2c1.6,1.88,1.85,9.5-6.4,11.5l-1,7.38
		c0,0,7.08,6.88,8.29,10.75l-10.04-4.63l-12.88,9.88c0,0,4.75-10,10.63-15.13l0.13-6.88C283.4,425.06,269.03,425.06,268.4,418.94z"
		/>
	<g>
		<path fill="#D7FFF7" d="M295.37,394.98c0,0,3.83-0.88,6.54-2.06c2.71-1.19,7.75-5.71,9.68-9.59c1.93-3.87,3.7-8.97,2.86-12.43
			c-0.84-3.46-2.25-8.08-2.25-8.08l-0.5-1.08c0,0-7.51,0.77-11.09,3.5c-3.58,2.73-6.49,5.28-5.92,10.79
			C295.26,381.54,296.29,391.07,295.37,394.98z"/>
		<g>
			<path d="M306.56,362.96c-3.14,1.13-6.24,2.7-8.47,5.01c-1.11,1.14-1.92,2.5-2.15,3.93l-0.09,0.53l-0.03,0.61
				c-0.03,0.4-0.04,0.81-0.03,1.22c-0.01,0.81,0.04,1.62,0.12,2.43c0.16,1.62,0.47,3.23,0.85,4.86c0.35,1.64,0.7,3.34,0.65,5.25
				c-0.02,0.48-0.07,0.97-0.16,1.46l-0.21,1.2c-0.15,0.8-0.24,1.61-0.38,2.46c-0.12,0.84-0.27,1.72-0.53,2.6
				c-0.26,0.87-0.69,1.75-1.33,2.38c-0.06,0.06-0.16,0.06-0.22,0c-0.04-0.04-0.05-0.1-0.04-0.15c0.47-1.63,0.15-3.17,0.01-4.88
				c-0.1-0.85-0.13-1.72-0.15-2.61c-0.01-0.44,0.03-0.91,0.04-1.33c0.01-0.35,0-0.7-0.04-1.08c-0.11-1.48-0.41-3.12-0.59-4.82
				c-0.17-1.7-0.32-3.46-0.32-5.22c0-0.88,0.02-1.76,0.1-2.64c0.03-0.44,0.08-0.88,0.15-1.32l0.09-0.66l0.18-0.71
				c0.48-1.89,1.67-3.45,3.03-4.61c1.38-1.16,2.93-2,4.51-2.68c1.59-0.68,3.23-1.19,4.91-1.52c0.08-0.02,0.16,0.04,0.18,0.12
				C306.68,362.86,306.64,362.93,306.56,362.96L306.56,362.96z"/>
		</g>
		<g>
			<path d="M312.33,362.76c1.27,2.71,2.17,5.59,2.71,8.59c0.24,1.5,0.37,3.04,0.28,4.61c-0.07,1.55-0.41,3.21-0.97,4.65
				c-1.1,2.92-2.59,5.79-4.87,7.94c-1.13,1.07-2.34,2.05-3.66,2.85c-1.31,0.81-2.72,1.49-4.22,1.88c-0.08,0.02-0.17-0.03-0.19-0.11
				c-0.01-0.05,0-0.11,0.04-0.15c2.09-2.21,4.04-4.29,5.82-6.5c0.89-1.09,1.76-2.19,2.62-3.3c0.87-1.1,1.62-2.29,2.25-3.54
				c1.25-2.46,1.59-5.28,1.41-8.17c-0.12-2.89-0.68-5.8-1.49-8.64l0-0.01c-0.02-0.08,0.02-0.16,0.1-0.19
				C312.23,362.66,312.3,362.69,312.33,362.76z"/>
		</g>
		<g>
			<ellipse cx="306.53" cy="374.15" rx="5.88" ry="8.77"/>
			<ellipse fill="#FFFFFF" cx="307.4" cy="369" rx="2" ry="2.98"/>
		</g>
	</g>
	<g>
		<path fill="#D7FFF7" d="M222.65,380.52c0,0,13.87-6.59,17.51-7.21c3.64-0.63,7.9-1.7,9.54,1.84c1.65,3.54,1.41,2.03,2.53,4.79
			c1.12,2.76,3.87,14.68,3.87,14.68l-2.69,3.3c0,0-3.17,4.76-6.5,5.77c-3.33,1.02-11.45,0.73-14.71-0.68
			c-3.26-1.42-7.7-4.12-8.66-7.09c-0.96-2.97-1.7-7.93-1.55-9.92S222.65,380.52,222.65,380.52z"/>
		<g>
			<path d="M249.54,375.16c-0.15-0.65-0.68-1.18-1.27-1.47c-0.6-0.29-1.28-0.47-1.98-0.49c-1.39-0.07-2.81,0.12-4.2,0.49
				c-2.79,0.64-5.49,1.75-8.15,2.92c-2.68,1.17-5.2,2.65-7.85,3.75c-1.32,0.56-2.63,1.14-3.94,1.73c-0.64,0.31-1.29,0.61-1.91,0.95
				c-0.63,0.33-1.26,0.71-1.75,1.17l-0.05,0.05c-0.06,0.05-0.15,0.05-0.2-0.01c-0.03-0.03-0.04-0.08-0.04-0.13
				c0.17-0.87,0.67-1.5,1.15-2.13c0.5-0.61,1.06-1.16,1.64-1.67c1.16-1.02,2.44-1.86,3.74-2.64c2.61-1.56,5.53-2.37,8.34-3.31
				c2.84-0.91,5.74-1.78,8.75-2.15c1.5-0.19,3.06-0.21,4.59,0.07c0.76,0.13,1.52,0.42,2.18,0.87c0.65,0.47,1.17,1.16,1.23,1.99
				c0.01,0.08-0.06,0.15-0.14,0.16c-0.07,0.01-0.14-0.04-0.16-0.11L249.54,375.16z"/>
		</g>
		<g>
			<path d="M222.79,380.56c-0.55,4.22-0.57,8.61,0.6,12.61c0.58,1.98,1.48,3.86,2.85,5.26c0.68,0.7,1.46,1.29,2.3,1.74l0.65,0.32
				l0.73,0.3c0.49,0.2,0.97,0.42,1.46,0.59c1.96,0.75,3.96,1.34,5.97,1.63c2,0.31,3.96,0.44,5.88,0.21c1.92-0.2,3.76-0.84,5.49-1.86
				c1.73-1.03,3.29-2.43,4.85-3.97c0.06-0.06,0.15-0.06,0.22-0.01c0.05,0.04,0.06,0.11,0.04,0.17c-0.85,2.03-2.11,3.94-3.84,5.5
				c-1.71,1.57-3.93,2.66-6.27,3.13c-2.34,0.47-4.74,0.29-6.95-0.27c-2.22-0.57-4.31-1.39-6.3-2.33c-0.51-0.22-0.99-0.48-1.49-0.72
				l-0.74-0.37l-0.77-0.45c-1.01-0.63-1.92-1.43-2.67-2.33c-1.53-1.81-2.37-4.01-2.85-6.19c-0.45-2.2-0.53-4.41-0.41-6.59
				c0.12-2.18,0.43-4.34,0.98-6.44c0.02-0.08,0.1-0.13,0.18-0.11C222.76,380.4,222.8,380.47,222.79,380.56L222.79,380.56z"/>
		</g>
		<g>
			<path d="M256.54,400.49c-0.4-1.99-0.77-3.98-1.22-5.96c-0.43-1.97-0.87-3.94-1.36-5.87c-0.24-0.97-0.56-1.91-0.9-2.84
				c-0.32-0.93-0.59-1.85-0.82-2.75c-0.23-0.89-0.49-1.79-0.77-2.4c-0.17-0.25-0.12-0.41-0.41-0.48c-0.15-0.06-0.35,0.03-0.57,0.08
				c-0.21,0.09-0.44,0.21-0.69,0.32l-0.02,0.01c-0.08,0.04-0.17,0-0.21-0.08c-0.02-0.04-0.02-0.08-0.01-0.11
				c0.17-0.53,0.37-1.1,1.03-1.52c0.08-0.05,0.17-0.1,0.25-0.15c0.1-0.03,0.21-0.05,0.31-0.07c0.22-0.04,0.45-0.07,0.66-0.01
				c0.47,0.06,0.78,0.28,1.11,0.48c1.11,0.87,1.64,1.9,2.12,2.89c0.95,2,1,4.13,1.26,6.17c0.26,2.04,0.4,4.09,0.48,6.13
				c0.05,2.04,0.11,4.08,0.03,6.12c0,0.08-0.07,0.15-0.16,0.15C256.62,400.61,256.56,400.56,256.54,400.49z"/>
		</g>
		<g>
			<ellipse cx="246.03" cy="384.15" rx="5.88" ry="8.77"/>
			<ellipse fill="#FFFFFF" cx="246.9" cy="379" rx="2" ry="2.98"/>
		</g>
	</g>
	<g>
		<path fill="#757575" d="M320.12,421.36c-0.73,1.44-1.79,2.68-2.95,3.78c-1.16,1.11-2.43,2.09-3.7,3.04
			c-2.56,1.9-5.17,3.71-7.58,5.75c-2.42,2.03-4.6,4.28-6.52,6.78c-1.94,2.48-3.67,5.13-5.55,7.73c-1.88,2.58-3.9,5.17-6.47,7.28
			c-1.27,1.06-2.69,1.96-4.19,2.7c-1.5,0.74-3.24,1.21-4.91,1.34c-3.39,0.26-6.67-0.52-9.69-1.68c-3.02-1.19-5.87-2.73-8.42-4.67
			l0.11-0.17c1.42,0.71,2.86,1.37,4.33,1.94c1.46,0.6,2.94,1.12,4.44,1.54c2.99,0.84,6.08,1.36,9.04,1.04
			c1.5-0.13,2.86-0.57,4.22-1.2c1.37-0.63,2.66-1.42,3.88-2.34c2.44-1.84,4.5-4.2,6.43-6.69c1.93-2.49,3.78-5.1,5.83-7.57
			c2.04-2.47,4.36-4.76,6.89-6.72c2.52-1.98,5.21-3.7,7.82-5.49c2.57-1.8,5.23-3.7,6.79-6.47L320.12,421.36z"/>
	</g>
	<g>
		<path fill="#757575" d="M325.03,396.81c0.04,2.12-0.61,4.21-1.49,6.15c-0.91,1.94-2.16,3.71-3.57,5.33
			c-1.39,1.65-3.04,3.04-4.72,4.38c-0.87,0.63-1.75,1.25-2.64,1.86l-2.76,1.67c-0.47,0.29-1.09,0.13-1.38-0.34
			c-0.29-0.47-0.13-1.09,0.34-1.38c0.02-0.01,0.04-0.03,0.07-0.04l0.06-0.03l2.77-1.39c0.89-0.52,1.79-1.04,2.67-1.58
			c1.7-1.16,3.4-2.37,4.86-3.85c1.48-1.44,2.82-3.05,3.85-4.87C324.1,400.92,324.9,398.93,325.03,396.81z"/>
	</g>
	<g>
		<g>
			<path d="M173.02,434.77c12.22-2.92,24.56-5.34,36.97-7.33c6.21-0.98,12.43-1.88,18.7-2.46c6.27-0.51,12.56-0.86,18.85-0.71
				c0.03,0,0.05,0.02,0.05,0.05c0,0.03-0.02,0.05-0.05,0.05c-6.27,0.42-12.52,0.92-18.75,1.61c-6.23,0.71-12.46,1.39-18.68,2.26
				c-6.21,0.9-12.41,1.9-18.58,3.01c-6.18,1.1-12.35,2.29-18.48,3.62c-0.03,0.01-0.05-0.01-0.06-0.04
				C172.97,434.8,172.99,434.77,173.02,434.77z"/>
		</g>
		<g>
			<path d="M203.51,443.77c7.21-2.74,14.46-5.38,21.75-7.89c3.64-1.26,7.28-2.56,10.99-3.63c3.72-1.04,7.44-2.07,11.26-2.74
				c0.03,0,0.05,0.01,0.06,0.04c0,0.02-0.01,0.05-0.03,0.06l-10.99,3.6c-3.66,1.19-7.36,2.27-11.04,3.43
				c-3.67,1.16-7.34,2.35-11,3.57c-3.66,1.2-7.32,2.41-10.97,3.66c-0.03,0.01-0.05,0-0.06-0.03
				C203.47,443.81,203.48,443.78,203.51,443.77z"/>
		</g>
		<g>
			<path d="M225.5,449.77c2.67-2.02,5.41-3.92,8.2-5.77c2.8-1.83,5.65-3.59,8.57-5.22c2.92-1.63,5.87-3.26,9.02-4.46
				c3.14-1.18,6.38-2.23,9.73-2.55c0.03,0,0.05,0.02,0.05,0.05c0,0.02-0.01,0.05-0.04,0.05c-3.23,0.88-6.33,2.04-9.36,3.38
				c-3.05,1.31-6.06,2.72-9.02,4.24c-2.96,1.53-5.84,3.2-8.69,4.94c-2.85,1.73-5.67,3.52-8.41,5.43c-0.02,0.02-0.05,0.01-0.07-0.01
				C225.47,449.82,225.48,449.79,225.5,449.77z"/>
		</g>
		<g>
			<path d="M355.52,420.36c-4.25-0.21-8.5-0.36-12.76-0.48c-4.25-0.13-8.51-0.21-12.76-0.23c-4.25-0.03-8.5,0.1-12.75,0.14
				c-4.25,0.03-8.49,0.16-12.73,0.56c-0.03,0-0.05-0.02-0.06-0.04c0-0.03,0.01-0.05,0.04-0.05c4.17-0.97,8.46-1.25,12.71-1.46
				c4.26-0.18,8.53-0.08,12.79,0.05c8.52,0.23,17.02,0.72,25.51,1.41c0.03,0,0.05,0.03,0.05,0.05
				C355.57,420.35,355.55,420.37,355.52,420.36z"/>
		</g>
		<g>
			<path d="M348.52,429.61c-7.81-1.07-15.64-2.06-23.47-2.93l-11.76-1.18c-3.91-0.45-7.83-0.83-11.76-1.14
				c-0.03,0-0.05-0.03-0.05-0.05c0-0.03,0.02-0.04,0.05-0.05c3.95-0.27,7.91-0.02,11.85,0.24c3.94,0.3,7.85,0.84,11.76,1.38
				c7.82,1.05,15.62,2.27,23.39,3.63c0.03,0,0.05,0.03,0.04,0.06C348.57,429.6,348.55,429.62,348.52,429.61z"/>
		</g>
		<g>
			<path d="M335.99,446.35c-2.53-2-5.2-3.83-7.93-5.55c-2.73-1.72-5.54-3.31-8.42-4.75c-2.89-1.43-5.88-2.58-8.88-3.73
				c-3.01-1.13-6.1-1.96-9.25-2.72c-0.03-0.01-0.04-0.03-0.04-0.06c0-0.02,0.03-0.04,0.05-0.04c3.24,0.19,6.46,0.89,9.57,1.87
				c3.09,1.04,6.05,2.43,8.91,3.96c5.72,3.08,11.12,6.72,16.05,10.93c0.02,0.02,0.02,0.05,0.01,0.07
				C336.05,446.37,336.02,446.37,335.99,446.35z"/>
		</g>
		<g>
			<path fill="#757575" d="M239.9,420.17l-13.06-3.79c-1.09-0.32-2.18-0.65-3.26-1.03c-1.07-0.38-2.18-0.81-3.12-1.54
				c-0.95-0.75-1.49-1.8-2.07-2.77c-0.56-0.99-1.15-1.95-1.75-2.91c0.68,0.91,1.33,1.84,1.97,2.78c0.64,0.93,1.26,1.9,2.15,2.5
				c0.89,0.6,1.96,0.94,3.04,1.23c1.08,0.29,2.18,0.54,3.29,0.77l13.31,2.82c0.54,0.11,0.89,0.65,0.77,1.19s-0.65,0.89-1.19,0.77
				c-0.02,0-0.05-0.01-0.07-0.02L239.9,420.17z"/>
		</g>
	</g>
</g>
</svg>
