<?xml version="1.0" encoding="utf-8"?>
<!-- Generator: Adobe Illustrator 22.0.0, SVG Export Plug-In . SVG Version: 6.00 Build 0)  -->
<svg version="1.1" id="图层_2_1_" xmlns="http://www.w3.org/2000/svg" xmlns:xlink="http://www.w3.org/1999/xlink" x="0px"
	 y="0px" viewBox="0 0 2234.99 2429.55" enable-background="new 0 0 2234.99 2429.55" xml:space="preserve">
<rect x="0.81" y="-2.19" fill="#EADDCE" width="2228" height="2436.56"/>
<g>
	<g>
		<path fill="#606060" d="M1213.8,1173.3l14.45,37.47l-4.27-3.81l0,0c2.2,0.89,4.56,1.82,6.88,2.71c2.32,0.9,4.66,1.79,7.01,2.65
			c4.68,1.77,9.41,3.44,14.13,5.16l14.23,4.96l14.29,4.8c19.09,6.32,38.37,12.16,57.69,17.81c38.7,11.16,77.77,21.14,117.11,29.99
			c39.34,8.85,78.94,16.58,118.72,23.28l14.93,2.47l7.46,1.24c2.49,0.41,4.99,0.75,7.48,1.13l29.93,4.46
			c20,2.64,39.99,5.43,60.06,7.57c20.03,2.45,40.15,4.17,60.23,6.15l30.19,2.36c5.03,0.37,10.06,0.82,15.1,1.13l15.11,0.89
			c40.3,2.66,80.68,3.65,121.07,4.19c80.78,0.43,161.62-3.26,242.07-11.35c0.7-0.07,1.32,0.43,1.39,1.13
			c0.07,0.69-0.43,1.31-1.12,1.39c-80.41,9.3-161.34,14.2-242.34,14.97c-40.5,0.06-81.02-0.34-121.49-2.4l-15.18-0.67
			c-5.06-0.24-10.11-0.61-15.17-0.91l-30.33-1.92c-20.19-1.69-40.41-3.11-60.56-5.27c-20.18-1.86-40.3-4.36-60.43-6.71l-30.14-4.03
			c-2.51-0.35-5.03-0.65-7.53-1.03l-7.52-1.13l-15.04-2.26c-40.08-6.15-80.02-13.32-119.73-21.64
			c-39.71-8.32-79.2-17.78-118.38-28.46c-19.58-5.4-39.1-11.01-58.5-17.11l-14.53-4.64l-14.49-4.81c-4.82-1.67-9.64-3.29-14.45-5.03
			c-2.41-0.85-4.81-1.72-7.21-2.61c-2.42-0.88-4.78-1.77-7.28-2.74l0,0c-1.25-0.33-2.29-1.07-2.99-2.05l-1.28-1.77l-23.55-32.53
			c-4.46-6.16-3.08-14.76,3.08-19.22s14.76-3.08,19.22,3.08C1212.81,1171.15,1213.39,1172.24,1213.8,1173.3z"/>
	</g>
	<g>
		<path fill="#606060" d="M1112.48,1055.01l-7.22-27.07l6.68,3.7l-2.33-0.2c-0.73-0.05-1.44-0.07-2.14-0.11
			c-1.41-0.03-2.78-0.05-4.16,0.02c-2.74,0.12-5.47,0.23-8.2,0.21c-5.46-0.02-10.91-0.38-16.3-1.13l-2.03-0.26l-2.02-0.34
			c-1.34-0.24-2.69-0.45-4.03-0.71c-2.66-0.61-5.34-1.1-7.96-1.87c-1.31-0.36-2.63-0.7-3.94-1.09l-3.89-1.28l-1.94-0.64l-1.91-0.74
			l-3.81-1.5c-10.09-4.16-19.56-9.82-28.08-16.62c-8.52-6.81-16.04-14.79-22.54-23.47c-6.41-8.75-11.73-18.2-16.29-27.95l-3.18-7.41
			l-0.78-1.84l-0.68-1.89l-1.36-3.79l-1.36-3.79l-0.68-1.89l-0.57-1.93l-2.28-7.7c-0.82-2.55-1.37-5.17-2-7.76l-1.85-7.8
			c-0.53-2.61-0.98-5.24-1.47-7.86c-0.46-2.62-1.01-5.24-1.4-7.87c-0.71-5.26-1.53-10.51-2.15-15.78
			c-0.53-5.28-1.15-10.55-1.6-15.83c-1.82-21.14-2.2-42.35-1.52-63.51c0.07-5.3,0.42-10.58,0.71-15.86l0.45-7.92
			c0.14-2.64,0.43-5.27,0.64-7.91l0.69-7.91c0.24-2.63,0.42-5.27,0.76-7.9l1.85-15.76c0.27-2.63,0.73-5.24,1.1-7.86l1.16-7.85
			l1.18-7.84l1.4-7.81l1.41-7.8c0.48-2.6,0.9-5.21,1.49-7.79l3.3-15.51c4.73-20.6,9.97-41.09,16.43-61.22
			c3-10.13,6.61-20.06,10.03-30.06c0.44-1.25,0.84-2.5,1.31-3.74l1.41-3.7l2.82-7.4l2.82-7.4l1.41-3.7
			c0.47-1.23,1.01-2.44,1.51-3.66l6.1-14.62c1.04-2.43,1.99-4.89,3.1-7.29l3.28-7.21l6.56-14.41c2.3-4.75,4.67-9.47,7-14.2
			c9.28-18.96,19.6-37.39,30.27-55.59c1.29-2.3,2.7-4.53,4.1-6.77l4.18-6.72l8.37-13.43l8.81-13.14l4.4-6.57
			c1.47-2.19,2.91-4.4,4.48-6.52c24.21-34.55,50.86-67.35,79.53-98.25c28.67-30.9,59.35-59.9,91.58-87.03
			c0.46-0.39,1.14-0.33,1.53,0.13c0.38,0.46,0.32,1.14-0.13,1.53c-31.94,27.34-62.29,56.52-90.6,87.56
			c-28.31,31.03-54.58,63.92-78.38,98.51c-1.54,2.12-2.96,4.33-4.41,6.52l-4.33,6.58l-8.65,13.15l-8.22,13.42l-4.11,6.71
			c-1.37,2.23-2.75,4.47-4.02,6.76c-10.45,18.19-20.55,36.59-29.62,55.51c-2.28,4.72-4.59,9.43-6.83,14.17l-6.39,14.37l-3.2,7.18
			c-1.08,2.39-2,4.84-3.01,7.26l-5.93,14.56c-0.49,1.22-1.01,2.42-1.47,3.65l-1.37,3.69l-2.73,7.37l-2.73,7.37l-1.37,3.68
			c-0.45,1.23-0.84,2.48-1.27,3.72c-3.3,9.95-6.81,19.82-9.69,29.9c-6.24,20.01-11.26,40.37-15.77,60.81l-3.14,15.39
			c-0.56,2.56-0.95,5.15-1.41,7.72l-1.34,7.74l-1.35,7.73l-1.13,7.77l-1.12,7.77c-0.35,2.59-0.79,5.17-1.05,7.78l-1.76,15.6
			c-0.33,2.6-0.49,5.21-0.72,7.81l-0.65,7.82c-0.2,2.61-0.47,5.21-0.6,7.82l-0.41,7.83c-0.27,5.22-0.59,10.44-0.64,15.67
			c-0.61,20.9-0.17,41.83,1.68,62.62c0.46,5.2,1.09,10.38,1.62,15.56c0.63,5.18,1.45,10.32,2.16,15.48
			c0.39,2.57,0.93,5.11,1.39,7.66c0.49,2.55,0.93,5.11,1.45,7.65l1.81,7.55c0.61,2.51,1.15,5.05,1.95,7.51l2.21,7.43l0.55,1.86
			l0.66,1.82l1.32,3.64l1.32,3.64l0.66,1.82l0.76,1.77l3.06,7.08c4.38,9.29,9.44,18.23,15.5,26.46
			c6.12,8.16,13.21,15.55,21.16,21.83c7.96,6.26,16.75,11.49,26.15,15.25l3.56,1.34l1.78,0.66l1.81,0.57l3.62,1.14
			c1.22,0.34,2.45,0.64,3.68,0.96c2.44,0.69,4.95,1.1,7.42,1.64c1.25,0.22,2.5,0.4,3.76,0.6l1.88,0.29l1.89,0.21
			c5.03,0.62,10.11,0.89,15.17,0.84c2.53-0.03,5.06-0.12,7.56-0.34c1.24-0.16,2.49-0.36,3.7-0.71c0.61-0.17,1.2-0.36,1.78-0.59
			c0.29-0.12,0.58-0.22,0.85-0.37c0.27-0.13,0.57-0.28,0.72-0.43c1.28-1.27,3.35-1.26,4.62,0.03c0.24,0.24,0.43,0.51,0.58,0.79
			l1.48,2.88l12.78,24.93c2.26,4.41,0.52,9.82-3.89,12.08c-4.41,2.26-9.82,0.52-12.08-3.89
			C1112.87,1056.23,1112.64,1055.6,1112.48,1055.01z"/>
	</g>
</g>
<g>
	<g>
		<path fill="#333333" d="M1221.06,969.87l-41.28-291.33l31.22,15.68l0,0c-9.11,4.77-18.24,9.78-27.35,14.72l-27.22,15.11
			c-9.08,5.04-18.07,10.21-27.08,15.36l-26.98,15.55c-35.87,20.9-71.38,42.39-106.48,64.48c-17.53,11.08-35.01,22.24-52.26,33.71
			c-17.28,11.42-34.42,23.05-51.31,34.99c-16.88,11.94-33.5,24.21-49.64,36.93l-6.01,4.82l-3,2.42l-2.93,2.47
			c-3.89,3.31-7.88,6.55-11.6,9.98l-5.67,5.08c-1.85,1.72-3.61,3.49-5.42,5.23c-3.73,3.44-6.88,7.12-10.26,10.71l0.82-1.14
			l-15.94,26.01c-5.24,8.71-10.54,17.39-15.73,26.14c-5.18,8.75-10.41,17.47-15.51,26.27l-7.69,13.18l-7.61,13.23
			c-10.1,17.66-20.05,35.41-29.77,53.31c-4.84,8.96-9.66,17.93-14.38,26.97c-4.74,9.02-9.36,18.11-13.86,27.28
			c-4.16,8.47-14.39,11.96-22.86,7.81c-8.47-4.16-11.96-14.39-7.81-22.86c0.46-0.93,1.05-1.88,1.64-2.69
			c6.11-8.19,12.09-16.45,17.96-24.78c5.89-8.32,11.68-16.7,17.44-25.09c11.5-16.81,22.75-33.76,33.87-50.8l8.3-12.8l8.22-12.85
			c5.5-8.55,10.88-17.18,16.3-25.79c5.41-8.61,10.72-17.28,16.09-25.92l15.88-26.05l0.13-0.21c0.2-0.33,0.45-0.66,0.7-0.93
			c3.68-4.05,7.27-8.29,11.14-11.97c1.91-1.89,3.8-3.83,5.73-5.67l5.87-5.41c3.88-3.67,7.92-7.04,11.9-10.53l3-2.6l3.04-2.52
			l6.08-5.04c16.23-13.39,32.89-26.08,49.63-38.62c33.54-24.99,67.69-48.98,101.98-72.74c34.31-23.74,68.83-47.12,103.42-70.44
			l25.94-17.5l25.99-17.43l52.06-34.96l0,0l1.37-0.75c9.78-5.36,22.06-1.77,27.42,8.01c1.45,2.65,2.25,5.59,2.44,8.42l18.72,293.64
			c0.33,5.17-3.6,9.64-8.77,9.97C1226.03,978.24,1221.75,974.67,1221.06,969.87z"/>
	</g>
	<g>
		<path fill="#333333" d="M574.07,1450.49c-0.96-12.58-1.21-25.07-1.19-37.64c0.07-12.55,0.53-25.11,1.38-37.66
			c1.67-25.12,5.04-50.21,10.3-75.11c2.71-12.43,5.92-24.8,9.68-37.08c3.88-12.24,8.38-24.36,13.54-36.29
			c5.31-11.88,11.37-23.52,18.23-34.82c7.05-11.21,14.97-21.99,23.82-32.18l0,0l0.9-0.89c6.52-6.45,17.04-6.39,23.49,0.13
			c4.58,4.64,5.87,11.3,3.9,17.08l-83.77,243.71c-0.54,1.58-2.27,2.43-3.85,1.88c-1.48-0.51-2.3-2.05-1.97-3.54l57.22-251.27
			l28.28,16.33l0,0c-8.28,7.88-16.04,16.48-23.2,25.72c-7,9.37-13.47,19.27-19.37,29.62c-5.76,10.43-11.02,21.24-15.77,32.34
			c-4.64,11.15-8.82,22.56-12.56,34.17c-7.32,23.27-12.98,47.25-16.98,71.58c-2.02,12.17-3.66,24.42-4.93,36.72
			c-1.22,12.29-2.17,24.7-2.42,37v0.06c-0.03,1.3-1.1,2.33-2.4,2.31C575.15,1452.64,574.16,1451.68,574.07,1450.49z"/>
	</g>
</g>
<g>
	
		<linearGradient id="SVGID_1_" gradientUnits="userSpaceOnUse" x1="1636.5232" y1="2321.0439" x2="1792.3531" y2="2231.7822" gradientTransform="matrix(0.9011 0.4336 0.4336 -0.9011 -820.6841 1570.4219)">
		<stop  offset="0" style="stop-color:#949494"/>
		<stop  offset="0.8272" style="stop-color:#383838"/>
		<stop  offset="0.8952" style="stop-color:#3B3B3B"/>
		<stop  offset="0.9525" style="stop-color:#464646"/>
		<stop  offset="0.9979" style="stop-color:#545454"/>
	</linearGradient>
	<path fill="url(#SVGID_1_)" d="M1760.62,155.72c-4.64,2.53-9.37,4.87-14.29,6.15c-6.1,1.58-15.01,6.13-25.45,18.29
		c-43.37,50.47-106.92,155.77-61.55,185.95C1721.7,407.59,1785.58,142.1,1760.62,155.72z"/>
	
		<linearGradient id="SVGID_2_" gradientUnits="userSpaceOnUse" x1="1839.9869" y1="2251.6104" x2="1813.9817" y2="2162.926" gradientTransform="matrix(1 0 0 -1 0 2539.6279)">
		<stop  offset="0" style="stop-color:#9E9E9E"/>
		<stop  offset="0.8272" style="stop-color:#424242"/>
		<stop  offset="0.8952" style="stop-color:#454545"/>
		<stop  offset="0.9525" style="stop-color:#505050"/>
		<stop  offset="0.9979" style="stop-color:#5E5E5E"/>
	</linearGradient>
	<path fill="url(#SVGID_2_)" d="M1688.31,338.81c0,0,125,40.5,166.5,51.5s95.5,6,101-6s7.5-47.5-38-62.5s-140-69.5-189-37
		S1680.01,328.81,1688.31,338.81z"/>
	
		<linearGradient id="SVGID_3_" gradientUnits="userSpaceOnUse" x1="1782.0659" y1="2219.2595" x2="1704.0659" y2="2281.2595" gradientTransform="matrix(1 0 0 -1 0 2539.6279)">
		<stop  offset="0" style="stop-color:#949494"/>
		<stop  offset="0.8272" style="stop-color:#383838"/>
		<stop  offset="0.8952" style="stop-color:#3B3B3B"/>
		<stop  offset="0.9525" style="stop-color:#464646"/>
		<stop  offset="0.9979" style="stop-color:#545454"/>
	</linearGradient>
	<path fill="url(#SVGID_3_)" d="M1835.31,203.31c0,0-33.5,14-48,24.5c-9.42,6.82-48.38,32.21-80.29,57.26
		c-7.77,5.67-14.17,10.42-17.55,13.08c-14,11-43.33,48.67-45.67,65.33c-2.33,16.67,29.67,15.67,46.67,15.33s25.67-19.67,40-38.67
		c12.56-16.66,19.75-36.13,30.54-51.01c31.29-26.37,58.3-50.32,58.3-50.32c1.47-2.05,2.8-4.05,4.01-6
		C1824.91,231.53,1835.31,203.31,1835.31,203.31z"/>
</g>
<g>
	
		<linearGradient id="SVGID_4_" gradientUnits="userSpaceOnUse" x1="1613.276" y1="2083.8552" x2="1725.4248" y2="2083.8552" gradientTransform="matrix(1 0 0 -1 0 2539.6279)">
		<stop  offset="0" style="stop-color:#949494"/>
		<stop  offset="0.8272" style="stop-color:#383838"/>
		<stop  offset="0.8952" style="stop-color:#3B3B3B"/>
		<stop  offset="0.9525" style="stop-color:#464646"/>
		<stop  offset="0.9979" style="stop-color:#545454"/>
	</linearGradient>
	<path fill="url(#SVGID_4_)" d="M1724.17,437.02c-7.86,6.83-19.35,17.03-27.08,23.91c-5.52,4.91-12.17,8.37-19.37,10.04
		c-18.36,4.26-53.84,11.91-61.91,9.35c-11-3.5,16.5-35,30-40c10.19-3.77,54.55-7.83,75.7-9.6
		C1724.98,430.42,1726.8,434.74,1724.17,437.02z"/>
	
		<linearGradient id="SVGID_5_" gradientUnits="userSpaceOnUse" x1="1589.6747" y1="2000.9116" x2="1684.7184" y2="2000.9116" gradientTransform="matrix(1 0 0 -1 0 2539.6279)">
		<stop  offset="0" style="stop-color:#949494"/>
		<stop  offset="0.8272" style="stop-color:#383838"/>
		<stop  offset="0.8952" style="stop-color:#3B3B3B"/>
		<stop  offset="0.9525" style="stop-color:#464646"/>
		<stop  offset="0.9979" style="stop-color:#545454"/>
	</linearGradient>
	<path fill="url(#SVGID_5_)" d="M1683.6,517.52l-25.9,24.87c-3.94,3.78-8.73,6.58-13.96,8.16l-51.71,15.6c0,0-8.31-43.4,6.26-46.5
		c12.68-2.7,60.77-9.03,82.93-8.32C1684.41,511.42,1685.9,515.31,1683.6,517.52z"/>
	
		<linearGradient id="SVGID_6_" gradientUnits="userSpaceOnUse" x1="1566.5952" y1="1887.5875" x2="1668.2421" y2="1887.5875" gradientTransform="matrix(1 0 0 -1 0 2539.6279)">
		<stop  offset="0" style="stop-color:#949494"/>
		<stop  offset="0.8272" style="stop-color:#383838"/>
		<stop  offset="0.8952" style="stop-color:#3B3B3B"/>
		<stop  offset="0.9525" style="stop-color:#464646"/>
		<stop  offset="0.9979" style="stop-color:#545454"/>
	</linearGradient>
	<path fill="url(#SVGID_6_)" d="M1570.87,625.27c14.36,1.21,56.61,10.28,92.86-1.37c3.37-1.08,5.85,3.48,3.71,6.31
		c-7.05,9.3-20,24.46-34.62,32.1c-22,11.5-44.5,18.5-51.5,18c-5.69-0.41-12.37-36.82-14.67-50.44
		C1566.21,627.33,1568.29,625.06,1570.87,625.27z"/>
	
		<linearGradient id="SVGID_7_" gradientUnits="userSpaceOnUse" x1="1554.8801" y1="1794.1952" x2="1666.2273" y2="1794.1952" gradientTransform="matrix(1 0 0 -1 0 2539.6279)">
		<stop  offset="0" style="stop-color:#949494"/>
		<stop  offset="0.8272" style="stop-color:#383838"/>
		<stop  offset="0.8952" style="stop-color:#3B3B3B"/>
		<stop  offset="0.9525" style="stop-color:#464646"/>
		<stop  offset="0.9979" style="stop-color:#545454"/>
	</linearGradient>
	<path fill="url(#SVGID_7_)" d="M1569.31,699.81c0,0,36.5,45.62,84.5,19c32.11-17.81-7,35.11-17.5,43.05
		c-10.5,7.95-44,36.45-70.5,27.45S1569.31,699.81,1569.31,699.81z"/>
	
		<linearGradient id="SVGID_8_" gradientUnits="userSpaceOnUse" x1="1525.4661" y1="1699.0999" x2="1650.3143" y2="1699.0999" gradientTransform="matrix(1 0 0 -1 0 2539.6279)">
		<stop  offset="0" style="stop-color:#949494"/>
		<stop  offset="0.8272" style="stop-color:#383838"/>
		<stop  offset="0.8952" style="stop-color:#3B3B3B"/>
		<stop  offset="0.9525" style="stop-color:#464646"/>
		<stop  offset="0.9979" style="stop-color:#545454"/>
	</linearGradient>
	<path fill="url(#SVGID_8_)" d="M1571.31,797.81c0,0,21.5,55,79,48.5c0,0-16.83,39.5-45.91,39.5c-29.09,0-73.59-52-78.59-75.5
		S1571.31,797.81,1571.31,797.81z"/>
</g>
<g>
	
		<radialGradient id="SVGID_9_" cx="1649.2299" cy="2141.5349" r="39.5007" gradientTransform="matrix(0.6144 0.789 1.2728 -0.9912 -2089.8062 1219.5834)" gradientUnits="userSpaceOnUse">
		<stop  offset="0" style="stop-color:#383838"/>
		<stop  offset="0.3129" style="stop-color:#3B3B3B"/>
		<stop  offset="0.5766" style="stop-color:#464646"/>
		<stop  offset="0.8215" style="stop-color:#575757"/>
		<stop  offset="1" style="stop-color:#696969"/>
	</radialGradient>
	<path fill="url(#SVGID_9_)" d="M1607.81,436.81c0,0-29-14.33-8-42.33c0,0,38-47.17,80-43.17s36.5,33.27,16.5,57.88
		C1676.31,433.81,1648.08,455.31,1607.81,436.81z"/>
	
		<radialGradient id="SVGID_10_" cx="1583.0105" cy="2065.6582" r="60.0016" gradientTransform="matrix(0.739 0.6737 0.9466 -1.0383 -1542.1781 1552.2651)" gradientUnits="userSpaceOnUse">
		<stop  offset="0" style="stop-color:#383838"/>
		<stop  offset="0.3129" style="stop-color:#3B3B3B"/>
		<stop  offset="0.5766" style="stop-color:#464646"/>
		<stop  offset="0.8215" style="stop-color:#575757"/>
		<stop  offset="1" style="stop-color:#696969"/>
	</radialGradient>
	<path fill="url(#SVGID_10_)" d="M1553.31,521.31c0,0-44.5-2.5-48-23c-3.5-20.5,48.5-101.5,113.5-87.5s48.5,71.59,27,92.3
		C1624.31,523.82,1553.31,521.31,1553.31,521.31z"/>
	
		<radialGradient id="SVGID_11_" cx="1531.5677" cy="1979.3214" r="79.2112" gradientTransform="matrix(0.8569 0.5154 0.5727 -0.9521 -914.387 1655.401)" gradientUnits="userSpaceOnUse">
		<stop  offset="0" style="stop-color:#383838"/>
		<stop  offset="0.3129" style="stop-color:#3B3B3B"/>
		<stop  offset="0.5766" style="stop-color:#464646"/>
		<stop  offset="0.8215" style="stop-color:#575757"/>
		<stop  offset="1" style="stop-color:#696969"/>
	</radialGradient>
	<path fill="url(#SVGID_11_)" d="M1535.81,498.14c0,0-36.67,0.67-65,44.33c-26.04,40.14-15,85,9.67,89.33
		c24.67,4.33,92.66,9.67,117.66-14.33s35.39-77.4,10.67-97.33C1588.14,503.48,1581.14,491.48,1535.81,498.14z"/>
	
		<radialGradient id="SVGID_12_" cx="1515.6757" cy="1868.1974" r="78.1357" gradientTransform="matrix(0.8612 0.5083 0.6381 -1.0811 -981.7128 1920.7231)" gradientUnits="userSpaceOnUse">
		<stop  offset="0" style="stop-color:#383838"/>
		<stop  offset="0.3129" style="stop-color:#3B3B3B"/>
		<stop  offset="0.5766" style="stop-color:#464646"/>
		<stop  offset="0.8215" style="stop-color:#575757"/>
		<stop  offset="1" style="stop-color:#696969"/>
	</radialGradient>
	<path fill="url(#SVGID_12_)" d="M1598.14,642.48c0,0-28.52-30.21-72.66-37.33c-51.67-8.33-75.33,36-83.33,58.67
		s-7.33,51.33,6,63.33s92.14,24.73,116,10C1588.01,722.41,1617.47,680.48,1598.14,642.48z"/>
	
		<radialGradient id="SVGID_13_" cx="1495.4506" cy="1780.551" r="82.3218" gradientTransform="matrix(0.7631 0.6463 0.8594 -1.0145 -1175.8875 1598.9349)" gradientUnits="userSpaceOnUse">
		<stop  offset="0" style="stop-color:#383838"/>
		<stop  offset="0.3129" style="stop-color:#3B3B3B"/>
		<stop  offset="0.5766" style="stop-color:#464646"/>
		<stop  offset="0.8215" style="stop-color:#575757"/>
		<stop  offset="1" style="stop-color:#696969"/>
	</radialGradient>
	<path fill="url(#SVGID_13_)" d="M1417.48,787.14c0,0,48.67-20.67,112.67,42c0,0,15.33,9.33,49.33-30.67s16-80-10-90.67
		s-100.8-32.67-136,7.33C1406.96,745.28,1405.57,789.88,1417.48,787.14z"/>
</g>
<linearGradient id="SVGID_14_" gradientUnits="userSpaceOnUse" x1="1458.7642" y1="1427.7714" x2="1298.7642" y2="1615.7714" gradientTransform="matrix(1 0 0 -1 0 2539.6279)">
	<stop  offset="0" style="stop-color:#8A8A8A"/>
	<stop  offset="0.8272" style="stop-color:#2E2E2E"/>
	<stop  offset="0.8952" style="stop-color:#313131"/>
	<stop  offset="0.9525" style="stop-color:#3C3C3C"/>
	<stop  offset="0.9979" style="stop-color:#4A4A4A"/>
</linearGradient>
<path fill="url(#SVGID_14_)" d="M1223.86,1146.45c0,0,157.42-64.41,223.23-119.95c65.81-55.54,109.68-107.8,118.07-138.77
	s-65.16-114.2-148.39-106.45c0,0-25.81,1.18-80,49.95c-54.19,48.77-148.39,129.41-181.3,212.64
	C1122.56,1127.1,1173.54,1162.58,1223.86,1146.45z"/>
<g>
	<path fill="#606060" d="M1139.17,987.21l148.79,201.89c4.4,5.98,3.13,14.39-2.85,18.79c-5.98,4.4-14.39,3.13-18.79-2.85l-0.04-0.05
		l-147.83-202.58c-4.18-5.73-2.93-13.77,2.81-17.95C1126.99,980.27,1134.99,981.48,1139.17,987.21z"/>
</g>
<g>
	<g>
		<path fill="#606060" d="M899.92,629.87l54.15,125.57c9.05,20.92,17.99,41.88,26.94,62.84c8.98,20.95,17.9,41.93,26.71,62.95
			c8.82,21.02,17.68,42.03,26.33,63.13c8.66,21.09,17.19,42.25,25.59,63.47c8.36,21.24,16.56,42.55,24.31,64.08
			c1.94,5.38,3.84,10.78,5.69,16.21c0.93,2.71,1.87,5.42,2.85,8.12c1.01,2.69,2.06,5.37,3.16,8.04c2.23,5.33,4.64,10.64,7.43,15.93
			c1.34,2.67,2.83,5.29,4.35,7.99c1.56,2.66,3.18,5.39,5.08,8.11l0,0v6.18c0,5.31-3.82,9.73-8.87,10.67
			c-5.99,1.11-11.81,2.5-17.61,3.97c-5.8,1.46-11.54,3.07-17.25,4.72c-11.41,3.35-22.68,7.01-33.85,10.93
			c-22.33,7.78-44.09,16.99-66.07,25.65c-43.89,17.5-87.86,34.81-131.89,51.93c-88.09,34.2-176.33,68.01-264.91,100.88
			c-44.26,16.51-88.6,32.84-133.03,48.89l-66.66,24.04c-22.26,7.9-44.49,15.88-66.8,23.66c-44.55,15.72-89.19,31.18-133.92,46.37
			l-33.57,11.32l-33.62,11.17c-22.39,7.53-44.87,14.79-67.31,22.17c-0.58,0.19-1.21-0.13-1.4-0.71c-0.19-0.58,0.13-1.21,0.71-1.4
			l0,0h0.01l33.69-10.94c11.24-3.63,22.45-7.33,33.65-11.06l33.59-11.25l33.54-11.4c44.67-15.33,89.31-30.78,133.75-46.75
			c88.95-31.8,177.44-64.85,265.63-98.7c44.1-16.91,88.07-34.13,131.99-51.49s87.77-34.89,131.51-52.71
			c43.74-17.79,87.41-35.76,131-53.92c21.77-9.15,43.7-17.88,65.01-28.13c10.67-5.09,21.21-10.49,31.6-16.22
			c5.19-2.88,10.35-5.83,15.44-8.94c5.09-3.1,10.16-6.29,15.04-9.77l-8.87,16.85l0,0c0.7-2.85,1.15-5.69,1.33-8.56
			c0.24-2.86,0.24-5.73,0.16-8.58c-0.19-5.72-0.89-11.37-1.97-16.94c-1.05-5.57-2.51-11.05-4.19-16.46
			c-1.64-5.42-3.34-10.83-5.08-16.23c-6.93-21.61-14.36-43.12-22.08-64.52c-7.67-21.42-15.69-42.73-23.83-64
			c-8.16-21.26-16.38-42.5-24.84-63.65c-8.46-21.15-17.03-42.26-25.67-63.34c-8.67-21.07-17.51-42.06-26.37-63.06
			c-17.84-41.92-35.92-83.76-54.81-125.22c-0.53-1.16-0.02-2.53,1.14-3.07c1.16-0.53,2.53-0.02,3.07,1.14
			C899.91,629.83,899.92,629.86,899.92,629.87z"/>
	</g>
	<g>
		<path fill="#606060" d="M1459.6,1712.58c-28.38-45.42-57.12-90.62-85.91-135.78l-43.3-67.67l-43.45-67.57l-43.65-67.45
			l-21.84-33.72l-21.92-33.66l-43.85-67.33c-7.27-11.24-14.98-22.21-23.29-32.8c-4.17-5.29-8.47-10.49-12.98-15.55
			c-2.27-2.53-4.56-5.04-6.95-7.49c-2.38-2.46-4.81-4.88-7.41-7.19l19.88,4.63l0,0l-1.34,0.4l-1.39,0.48l-2.78,1.02
			c-1.85,0.71-3.69,1.46-5.51,2.24c-3.65,1.55-7.26,3.22-10.83,4.96c-7.13,3.48-14.11,7.26-20.94,11.27
			c-13.69,8-26.78,16.93-39.46,26.4c-25.44,18.83-50.37,38.38-74.81,58.52c-48.88,40.3-95.83,82.99-140.68,127.79
			c-44.86,44.79-87.48,91.84-127.73,140.85c-40.18,49.05-78.05,100.05-112.81,153.12c-34.8,53.03-66.72,107.98-95.26,164.65
			c-28.46,56.7-53.61,115.1-74.87,174.9c-5.3,14.95-10.42,29.98-15.2,45.1c-2.46,7.54-4.72,15.15-7.07,22.72l-3.37,11.41l-1.68,5.71
			l-1.61,5.73c-4.39,15.25-8.37,30.61-12.27,45.99c-1.85,7.71-3.81,15.4-5.54,23.15l-2.65,11.6l-2.51,11.63
			c-0.85,3.87-1.65,7.76-2.43,11.65l-2.36,11.66l-2.22,11.69l-1.11,5.85l-1.04,5.86l-2.07,11.72l-1.93,11.74
			c-1.33,7.82-2.42,15.68-3.63,23.52c-4.51,31.41-7.96,62.97-10.45,94.6c-0.07,0.86-0.82,1.5-1.68,1.44
			c-0.86-0.07-1.5-0.82-1.44-1.68v-0.01c10.26-126.78,37.02-252.18,79.34-372.12c21.05-60.01,46.01-118.64,74.31-175.6
			c28.24-56.99,59.88-112.3,94.44-165.72c34.57-53.41,71.99-104.98,111.9-154.55c19.97-24.77,40.55-49.06,61.71-72.83
			c21.17-23.76,42.92-47.01,65.17-69.78c44.51-45.51,91.18-88.94,139.86-130.03c24.35-20.54,49.2-40.49,74.6-59.75
			c12.76-9.56,25.36-19.31,37.7-29.54c6.17-5.11,12.29-10.32,18.34-15.7c3.03-2.69,6.04-5.41,9.03-8.2c1.5-1.39,2.99-2.8,4.49-4.23
			l4.57-4.45l0,0l7.13-2.22c5.35-1.66,11.03,1.32,12.69,6.67c0.01,0.04,0.04,0.13,0.05,0.18c0.97,3.34,2.12,6.58,3.32,9.78
			c1.19,3.21,2.48,6.36,3.79,9.49c2.64,6.25,5.5,12.37,8.48,18.4c6,12.05,12.61,23.71,19.64,35.11l42.03,68.48l21.01,34.24
			l21.1,34.19l42.22,68.35l42.42,68.23l42.57,68.13c28.46,45.37,56.97,90.71,85.84,135.83c0.43,0.67,0.23,1.56-0.44,1.98
			S1460.01,1713.25,1459.6,1712.58L1459.6,1712.58z"/>
	</g>
</g>
<radialGradient id="SVGID_15_" cx="1175.5294" cy="1369.0302" r="43.6192" gradientTransform="matrix(0.7693 0.6389 1.4585 -1.7559 -1725.525 2823.4241)" gradientUnits="userSpaceOnUse">
	<stop  offset="0" style="stop-color:#383838"/>
	<stop  offset="0.261" style="stop-color:#3B3B3B"/>
	<stop  offset="0.4579" style="stop-color:#454545"/>
	<stop  offset="0.6337" style="stop-color:#555555"/>
	<stop  offset="0.7972" style="stop-color:#6C6C6C"/>
	<stop  offset="0.9509" style="stop-color:#898989"/>
	<stop  offset="1" style="stop-color:#949494"/>
</radialGradient>
<path fill="url(#SVGID_15_)" d="M1106.14,1247.14c0,0-20-12.67,19.33-76c39.33-63.33,72.67-89.33,97.34-80.66
	c24.67,8.67,22,51.33-14,94C1172.81,1227.15,1122.14,1254.48,1106.14,1247.14z"/>
<radialGradient id="SVGID_16_" cx="1107.5632" cy="1453.8265" r="33.5746" gradientTransform="matrix(0.3856 0.9227 2.8908 -1.208 -3522.231 1820.0831)" gradientUnits="userSpaceOnUse">
	<stop  offset="0" style="stop-color:#383838"/>
	<stop  offset="0.261" style="stop-color:#3B3B3B"/>
	<stop  offset="0.4579" style="stop-color:#454545"/>
	<stop  offset="0.6337" style="stop-color:#555555"/>
	<stop  offset="0.7972" style="stop-color:#6C6C6C"/>
	<stop  offset="0.9509" style="stop-color:#898989"/>
	<stop  offset="1" style="stop-color:#949494"/>
</radialGradient>
<path fill="url(#SVGID_16_)" d="M1020.08,1116.14c0,0-4.67-19.33,55.33-50.67s91.33-34,101.33-22s12,52.67-48.67,69.33
	C1067.4,1129.46,1030.08,1126.81,1020.08,1116.14z"/>
<g>
	<g>
		<path fill="#333333" d="M1326.52,1076.61c5.92,3.14,11.92,6.06,17.95,8.9c3.01,1.43,6.05,2.8,9.07,4.2l9.12,4.07
			c12.18,5.37,24.46,10.46,36.82,15.35c24.7,9.83,49.74,18.78,74.97,27.2c25.23,8.42,50.66,16.34,76.33,23.6
			c12.85,3.6,25.75,7.06,38.73,10.28c13,3.2,26.05,6.26,39.31,8.75c11.96,2.24,19.84,13.76,17.59,25.72
			c-0.96,5.14-3.64,9.52-7.32,12.67l-4.48,3.83l0,0c-1.33,0.9-1.82,1.14-2.62,1.61c-0.77,0.46-1.4,0.79-2.07,1.15l-1.99,1.09
			l-1.91,0.99c-1.27,0.65-2.55,1.32-3.8,1.94l-3.73,1.81c-2.49,1.25-4.93,2.35-7.39,3.51c-2.46,1.17-4.91,2.26-7.35,3.34
			c-9.78,4.41-19.49,8.53-29.25,12.54c-9.73,4.02-19.44,7.98-29.19,11.74c-9.72,3.87-19.46,7.57-29.19,11.32
			c-38.94,14.79-78.06,28.72-117.05,42.61c-19.33,6.85-38.46,14.21-57.28,22.25c-18.81,8.04-37.25,16.91-55.16,26.58
			c-8.99,4.78-17.77,9.89-26.46,15.08c-8.66,5.23-17.11,10.74-25.19,16.65c-8.06,5.91-15.84,12.15-22.82,18.86
			c-3.51,3.33-6.81,6.8-9.74,10.32c-1.46,1.74-2.82,3.55-3.98,5.26c-0.6,0.85-1.13,1.7-1.55,2.49l-0.31,0.58l-0.22,0.51
			c-0.1,0.18-0.1,0.29-0.12,0.4l-0.02,0.09c0,0.02,0.03,0,0.05,0l0.06-0.01c0,0.01,0.01,0,0.1-0.11l0.2-0.26l0,0l-15.22,9.23
			c-8.08,0.01-16.12,0.43-24.16,0.87c-8.03,0.48-16.05,1.1-24.06,1.81c-16.02,1.45-31.99,3.33-47.94,5.44
			c-15.95,2.1-31.88,4.42-47.78,6.99c-15.9,2.64-31.78,5.37-47.6,8.8c-13.67,2.96-27.15-5.71-30.12-19.38
			c-2.96-13.67,5.71-27.15,19.38-30.12c1.85-0.4,3.83-0.58,5.65-0.57c16.18,0.18,32.29-0.33,48.4-0.95
			c16.1-0.67,32.17-1.61,48.21-2.76c16.05-1.13,32.07-2.5,48.06-4.31c7.99-0.91,15.97-1.92,23.94-3.06c7.96-1.18,15.92-2.39,23.84-4
			l-15.22,9.23l0,0l0.33-0.46c0.13-0.18,0.19-0.25,0.24-0.31l0.34-0.4l0.34-0.39l0.28-0.3c0.37-0.39,0.76-0.81,1.08-1.12l1-0.99
			l0.96-0.88c0.65-0.61,1.26-1.11,1.88-1.65c0.62-0.56,1.22-1.04,1.82-1.55c2.41-2.02,4.8-3.77,7.14-5.52
			c4.71-3.43,9.36-6.57,14.02-9.55c9.3-6,18.6-11.4,27.91-16.66c9.32-5.21,18.61-10.29,27.96-15.15c2.33-1.24,4.68-2.41,7.02-3.61
			c2.34-1.2,4.69-2.39,7.05-3.54l7.06-3.49l7.09-3.4c18.9-9.06,37.98-17.5,57.04-25.94c19.07-8.4,38.18-16.66,57.4-24.63
			l28.47-12.04c4.74-2,9.45-4.08,14.16-6.15l14.12-6.21c18.75-8.45,37.46-16.93,55.89-25.94l13.78-6.8
			c4.6-2.25,9.16-4.55,13.69-6.92c9.1-4.67,18.08-9.47,27-14.34c8.84-4.97,17.68-9.94,26.14-15.19c2.13-1.31,4.25-2.61,6.31-3.95
			c2.06-1.34,4.18-2.65,6.15-4.01l2.99-2.04c0.99-0.68,1.9-1.36,2.85-2.03l1.4-1.01l1.29-0.98c0.42-0.33,0.89-0.68,1.18-0.94
			c0.28-0.24,0.87-0.71,0.58-0.56l0,0l5.79,42.22c-11.61-6.88-23.43-13.2-35.31-19.37c-11.89-6.15-23.86-12.07-35.89-17.84
			c-24.08-11.48-48.4-22.32-72.92-32.65c-24.52-10.32-49.23-20.12-74.27-29.04c-12.51-4.49-25.1-8.77-37.8-12.77l-9.54-2.96
			c-3.2-0.94-6.38-1.92-9.59-2.83c-6.41-1.85-12.84-3.62-19.36-5.17c-7.27-1.73-11.76-9.02-10.03-16.28
			c1.73-7.27,9.02-11.76,16.28-10.03C1324.43,1075.67,1325.55,1076.1,1326.52,1076.61z"/>
	</g>
	<g>
		<path fill="#333333" d="M778.78,1441.98c17.35-5.35,34.85-9.98,52.57-14.17c17.72-4.15,35.63-7.77,53.87-10.53
			c18.25-2.73,36.79-4.71,56.11-4.71c9.68,0.06,19.55,0.55,29.86,2.28c5.16,0.87,10.43,2.04,15.84,3.75
			c5.41,1.72,10.99,3.98,16.63,7.27l0,0l2.18,1.61c9.53,7.06,11.53,20.51,4.46,30.04c-3.06,4.13-7.34,6.85-11.97,8.03l-1.04,0.26
			l-0.94,0.23l-1.83,0.42l-3.59,0.79c-2.38,0.51-4.74,1-7.1,1.47c-4.71,0.94-9.41,1.81-14.11,2.61c-9.39,1.62-18.78,3.03-28.19,4.23
			c-18.8,2.38-37.64,4.04-56.51,4.72c-4.71,0.21-9.43,0.27-14.14,0.37c-4.72,0.01-9.42,0.07-14.13-0.04
			c-4.7-0.03-9.41-0.23-14.11-0.39c-2.35-0.1-4.7-0.25-7.04-0.38l-3.51-0.2l-3.52-0.27c-9.36-0.64-18.7-1.73-27.95-3.04
			c-9.26-1.32-18.44-3.11-27.52-5.14c-1.31-0.29-2.14-1.6-1.85-2.91c0.26-1.17,1.32-1.95,2.47-1.9h0.05
			c9.16,0.36,18.28,0.48,27.39,0.12c9.11-0.37,18.17-0.95,27.2-1.96l3.38-0.35l3.38-0.42c2.25-0.29,4.5-0.55,6.74-0.86
			c4.49-0.66,8.97-1.28,13.43-2.06c4.47-0.71,8.91-1.58,13.35-2.4c4.43-0.91,8.86-1.77,13.27-2.78
			c17.64-3.87,35.05-8.66,52.19-14.08c8.57-2.72,17.06-5.62,25.45-8.69c4.19-1.53,8.36-3.12,12.48-4.75
			c2.06-0.81,4.11-1.64,6.12-2.48l3-1.26l1.46-0.63l0.7-0.31c0.23-0.1,0.47-0.21,0.59-0.28l-5.29,39.72l0,0
			c-1.83-1.72-4.33-3.48-7.25-5.09c-2.92-1.61-6.26-3.09-9.81-4.41c-7.11-2.65-15.09-4.62-23.29-6.2
			c-16.48-3.1-33.96-4.53-51.55-5.15c-17.62-0.59-35.44-0.33-53.3,0.49c-17.84,0.85-35.78,2.2-53.58,4.25l-0.04,0.01
			c-1.36,0.16-2.59-0.82-2.75-2.18C776.91,1443.43,777.66,1442.32,778.78,1441.98z"/>
	</g>
</g>
<radialGradient id="SVGID_17_" cx="1291.7396" cy="1548.4385" r="83.8557" gradientTransform="matrix(0.6965 0.7175 2.2444 -2.1787 -3083.2874 3437.9343)" gradientUnits="userSpaceOnUse">
	<stop  offset="0" style="stop-color:#1C1C1C"/>
	<stop  offset="0.2312" style="stop-color:#252525"/>
	<stop  offset="0.4938" style="stop-color:#363636"/>
	<stop  offset="1" style="stop-color:#666666"/>
</radialGradient>
<path fill="url(#SVGID_17_)" d="M1495.38,826.71c0,0,7.54,72.4-39.22,119.16s-150.83,141.79-196.08,150.84
	s-108.69,40.63-130.31,55.71c-21.62,15.08-48.27,35.7-55.31,26.15c-7.04-9.55,27.65-25.64,42.74-44.25
	c15.08-18.6,57.82-63.86,62.85-93.02c5.03-29.16,22.12-92.52,77.43-135.76c55.31-43.24,156.88-142.8,201.13-115.65
	C1502.86,817.05,1495.38,826.71,1495.38,826.71z"/>
</svg>
