<svg id="图层_2" data-name="图层 2" xmlns="http://www.w3.org/2000/svg" viewBox="0 0 616 752"><defs><style>.cls-1{fill:#e5c9a5;}.cls-2{fill:#34383f;}.cls-3{fill:#636363;}.cls-4{fill:#fff;}</style></defs><title>八大 鱼</title><rect class="cls-1" width="616" height="752"/><path class="cls-2" d="M120.83,367.5c-17.92,2.88-35.75,7.46-52.06,15.16L74,384c4.19,1.08,4.57,1.27,10.7,2.87,7.56-2.65,23.44-5.34,28.31-8.38,8-5,8.5-11.24,8.5-11.24Z" transform="translate(2 -4)"/><path class="cls-3" d="M35,367c8-1.5,16-3.5,25-9s29-13.5,46-12,38.5-.5,49.5-3,44.5-15,53-21.5S254,295.5,264,288s76-36,86-39.5,79-33,79-33l41.67-18.83c-1.67-2-1.67-5.67-5-6s-16.17,9-16.17,9c-6.17,4.33-53.83,27-55.83,27.66-12.48,4.16-32,11.34-32,11.34-7.67,3.33-30,6.33-30,6.33-6.34,5.67-31.67,8.33-31.67,8.33C289.33,263,268,264,268,264c-5.33,6.67-33.33,7.67-33.33,7.67a19,19,0,0,1-5.67,8.66c-4.67,4.34-12-1.33-12-1.33s-12,11-20.67,10.67S193.67,275,193.67,275c-7.67,5-38,6.33-38,6.33C154,296.67,120,298,120,298c-3.67,7.67-23.67,10.67-23.67,10.67l-1,6.33c-1,6.33-24.66,15.33-29.33,12.84s-14.67,3.49-22.67,3.83a43.18,43.18,0,0,1-9-1.16c-10.75,3.51-23.47,8.15-24.12,13.16-1,7.66,12.5,13.5,14.66,18.16.59,1.26,1.44,3.14,2.59,5.18A28.44,28.44,0,0,0,35,367Z" transform="translate(2 -4)"/><path class="cls-2" d="M456,231.5c10.5-2,17-27.5,17-27.5-10.08,2-60,23.5-60,23.5S445.5,233.5,456,231.5Z" transform="translate(2 -4)"/><path class="cls-2" d="M584.75,167.75c-22.75,1.5-72.5-1.25-72.5-1.25S556,129,558.5,125.25s4.25-6.25,0-7.25c0,0-61.5,29.5-106,70.5,0,0-36.5,23.5-85,32.5s-111,18-127,20.5c0,0-1.5-17.5-3-25,0,0-54,31-73,40.5s-25.17,14.67-36.17,22.33-44.66,26-54.33,30.5-19.17,13-26.33,16.17c-2.49,1.1-7.66,2.64-13.38,4.51a43.18,43.18,0,0,0,9,1.16c8-.34,18-6.33,22.67-3.83S94.33,321.33,95.33,315l1-6.33s20-3,23.67-10.67c0,0,34-1.33,35.67-16.67,0,0,30.33-1.33,38-6.33,0,0-6,14.33,2.66,14.67S217,279,217,279s7.33,5.67,12,1.33a19,19,0,0,0,5.67-8.66s28-1,33.33-7.67c0,0,21.33-1,32-10.67,0,0,25.33-2.66,31.67-8.33,0,0,22.33-3,30-6.33,0,0,19.52-7.18,32-11.34,2-.66,49.66-23.33,55.83-27.66,0,0,12.83-9.34,16.17-9s3.33,4,5,6l18.66-11-18.66,11c1.66,2,34.66-3,41-3.67s45.82-7.23,46.42-7.33C583.45,179.54,604.7,173.41,605,170,605,170,607.5,166.25,584.75,167.75Z" transform="translate(2 -4)"/><path class="cls-2" d="M293,337.5l-4.78-9.5L274,331.68s-3.65,1.13-8.71,3c-7.12,8.33-13.84,16.54-20,24.25C263.08,359.19,293,337.5,293,337.5Z" transform="translate(2 -4)"/><path class="cls-4" d="M511.67,193c-6.34.67-39.34,5.67-41,3.67L429,215.5s-69,29.5-79,33-76,32-86,39.5-47,27-55.5,33.5-42,19-53,21.5-32.5,4.5-49.5,3-37,6.5-46,12-17,7.5-25,9a28.44,28.44,0,0,1-7.58,0c3.12,5.52,8.46,12.15,16.75,10.32,0,0,15.33,9.5,22.66,4.84l1.94.49c16.31-7.7,34.14-12.28,52.06-15.16l.67-.24s0,.05,0,.13c-.11.89-1.13,6.52-8.48,11.11-4.87,3-20.75,5.73-28.31,8.38,13.61,3.55,34.78,9,41.81,11.12,13.5,4,81.5,8.5,112-30.5q3.25-4.17,6.79-8.6c6.16-7.71,12.88-15.92,20-24.25,28.31-33.14,62.76-68.16,91.71-81.15,39-17.5,56-26,56-26S462.92,206,473,204c0,0,47.15-9.16,85.09-18.33C557.49,185.77,518,192.34,511.67,193Z" transform="translate(2 -4)"/><ellipse class="cls-4" cx="47.64" cy="343.88" rx="20.67" ry="12.33" transform="translate(-89.09 21.64) rotate(-15.67)"/><ellipse class="cls-2" cx="41.41" cy="338.65" rx="7.09" ry="5.05" transform="translate(-87.91 19.76) rotate(-15.67)"/><ellipse class="cls-2" cx="21.92" cy="340.62" rx="1.83" ry="1.04"/><path class="cls-2" d="M23.1,359.57c1.74,2.05,3.39,4.16,5.08,6.22.82,1,1.67,2.08,2.52,3.09s1.69,2,2.59,2.89a10.46,10.46,0,0,0,6.11,3.39,15.6,15.6,0,0,0,7.16-.91,19.39,19.39,0,0,0,8.89-6.44c.7-1,1.54-2.19,2.41-3.23A73,73,0,0,1,69.63,353.5c-3.41,4.15-6.89,8.22-9.9,12.49-.75,1.09-1.33,2.12-2.15,3.36a21.3,21.3,0,0,1-2.75,3.26A19.9,19.9,0,0,1,43.35,378a15.19,15.19,0,0,1-4.41-.06,11.35,11.35,0,0,1-4.19-1.67,14.53,14.53,0,0,1-3.24-2.88,46.89,46.89,0,0,1-4.62-6.74C25.53,364.36,24.24,362,23.1,359.57Z" transform="translate(2 -4)"/><path class="cls-2" d="M44.31,377.19a27.13,27.13,0,0,0,8.53,4.23,22.14,22.14,0,0,0,18-2.2,51.11,51.11,0,0,0,7.56-5.65c2.41-2.08,4.7-4.31,7-6.58s4.44-4.61,6.62-7q6.47-7.11,12.75-14.47a171,171,0,0,1-11.57,15.5,126.06,126.06,0,0,1-13.44,14,49.64,49.64,0,0,1-7.94,5.78,22.92,22.92,0,0,1-9.49,2.93A23.87,23.87,0,0,1,44.31,377.19Z" transform="translate(2 -4)"/><path class="cls-2" d="M15.92,337.84a18.77,18.77,0,0,0-4,3.68,6.93,6.93,0,0,0-1.2,2.23,3.36,3.36,0,0,0,.13,2.24,2.78,2.78,0,0,0,.27.51,1.44,1.44,0,0,0,.32.38,8,8,0,0,0,1,.78c.7.52,1.47,1,2.24,1.47,1.57.93,3.14,1.87,4.74,2.78l4.74,2.83c1.56,1,3.14,2,4.66,3a51.4,51.4,0,0,1,4.42,3.4,23.36,23.36,0,0,1,2,2,8.05,8.05,0,0,1,1.54,2.34,9.29,9.29,0,0,0-1.93-1.93A24.73,24.73,0,0,0,32.61,362c-1.52-1-3.1-1.94-4.67-2.87l-9.56-5.48c-1.58-1-3.18-1.89-4.73-2.94-.77-.53-1.54-1.06-2.29-1.67a8.22,8.22,0,0,1-1.11-1,3.16,3.16,0,0,1-.49-.72,4.13,4.13,0,0,1-.32-.75,4.54,4.54,0,0,1,.1-3.17,7.58,7.58,0,0,1,1.68-2.44A15.12,15.12,0,0,1,15.92,337.84Z" transform="translate(2 -4)"/><path class="cls-2" d="M383,338.18a62.28,62.28,0,0,0-16.73,4.88l1.67.43c1.35.35,1.47.41,3.44.92,2.43-.85,7.54-1.71,9.1-2.69,2.57-1.61,2.73-3.61,2.73-3.61Z" transform="translate(2 -4)"/><path class="cls-3" d="M355.42,338a22.34,22.34,0,0,0,8-2.9c2.89-1.76,9.32-4.34,14.78-3.85a60.06,60.06,0,0,0,15.91-1c3.54-.8,14.3-4.82,17-6.91s14.62-8.35,17.83-10.77,24.43-11.57,27.64-12.69,25.39-10.61,25.39-10.61l13.4-6.05c-.54-.64-.54-1.82-1.61-1.93s-5.2,2.89-5.2,2.89c-2,1.4-17.3,8.68-17.94,8.9-4,1.33-10.29,3.64-10.29,3.64-2.46,1.07-9.64,2-9.64,2-2,1.83-10.18,2.68-10.18,2.68-3.42,3.11-10.28,3.43-10.28,3.43-1.72,2.14-10.71,2.47-10.71,2.47a6.18,6.18,0,0,1-1.83,2.78c-1.5,1.39-3.85-.43-3.85-.43s-3.86,3.54-6.64,3.43-.86-4.71-.86-4.71c-2.47,1.6-12.21,2-12.21,2-.54,4.93-11.47,5.36-11.47,5.36-1.18,2.46-7.6,3.43-7.6,3.43l-.33,2c-.32,2-7.92,4.93-9.42,4.13s-4.72,1.12-7.29,1.23a13.94,13.94,0,0,1-2.91-.37c-3.45,1.12-7.54,2.62-7.75,4.23-.32,2.46,4,4.33,4.72,5.83.18.41.46,1,.83,1.67A8.92,8.92,0,0,0,355.42,338Z" transform="translate(2 -4)"/><path class="cls-2" d="M490.73,294.48c3.38-.65,5.47-8.84,5.47-8.84-3.25.64-19.29,7.55-19.29,7.55S487.36,295.12,490.73,294.48Z" transform="translate(2 -4)"/><path class="cls-2" d="M532.11,274c-7.31.48-23.3-.4-23.3-.4s14.06-12.06,14.86-13.26,1.37-2,0-2.33c0,0-19.76,9.48-34.06,22.66a84.33,84.33,0,0,1-27.32,10.44c-15.59,2.89-35.68,5.79-40.82,6.59,0,0-.48-5.62-1-8,0,0-17.36,10-23.47,13a72.5,72.5,0,0,0-11.62,7.18,198.14,198.14,0,0,1-17.46,9.8c-3.11,1.45-6.16,4.18-8.47,5.2-.8.35-2.46.85-4.3,1.45a13.94,13.94,0,0,0,2.91.37c2.57-.11,5.79-2,7.29-1.23s9.1-2.09,9.42-4.13l.33-2s6.42-1,7.6-3.43c0,0,10.93-.43,11.47-5.36,0,0,9.74-.43,12.21-2,0,0-1.93,4.6.86,4.71s6.64-3.43,6.64-3.43,2.35,1.82,3.85.43a6.18,6.18,0,0,0,1.83-2.78s9-.33,10.71-2.47c0,0,6.86-.32,10.28-3.43,0,0,8.15-.85,10.18-2.68,0,0,7.18-1,9.64-2,0,0,6.28-2.31,10.29-3.64.64-.22,16-7.5,17.94-8.9,0,0,4.13-3,5.2-2.89s1.07,1.29,1.61,1.93l6-3.53-6,3.53c.53.64,11.14-1,13.17-1.18s14.73-2.32,14.92-2.35c8.15-2,15-3.95,15.08-5C538.62,274.71,539.42,273.5,532.11,274Z" transform="translate(2 -4)"/><path class="cls-2" d="M438.34,328.54l-1.53-3.05-4.57,1.18s-1.18.37-2.8,1c-2.29,2.68-4.45,5.31-6.43,7.79C428.73,335.51,438.34,328.54,438.34,328.54Z" transform="translate(2 -4)"/><path class="cls-4" d="M508.62,282.1c-2,.22-12.64,1.82-13.17,1.18l-13.4,6.05s-22.17,9.48-25.39,10.61S432.24,310.22,429,312.63s-15.1,8.68-17.83,10.77-13.5,6.11-17,6.91a60.06,60.06,0,0,1-15.91,1c-5.46-.49-11.89,2.09-14.78,3.85a22.34,22.34,0,0,1-8,2.9,8.92,8.92,0,0,1-2.43,0c1,1.77,2.72,3.9,5.38,3.32,0,0,4.93,3,7.28,1.55l.63.16A62.28,62.28,0,0,1,383,338.18l.21-.07v0a5.35,5.35,0,0,1-2.73,3.57c-1.56,1-6.67,1.84-9.1,2.69,4.38,1.15,11.18,2.91,13.44,3.58,4.34,1.28,26.19,2.73,36-9.8.7-.9,1.42-1.82,2.18-2.77,2-2.48,4.14-5.11,6.43-7.79,9.1-10.65,20.17-21.91,29.47-26.08,12.54-5.63,18-8.36,18-8.36s16-6.91,19.29-7.55c0,0,15.15-2.95,27.34-5.89C523.35,279.78,510.64,281.89,508.62,282.1Z" transform="translate(2 -4)"/><ellipse class="cls-4" cx="359.48" cy="330.59" rx="6.64" ry="3.96" transform="translate(-73.92 105.36) rotate(-15.67)"/><ellipse class="cls-2" cx="357.48" cy="328.91" rx="2.28" ry="1.62" transform="translate(-73.54 104.75) rotate(-15.67)"/><ellipse class="cls-2" cx="352.58" cy="326.83" rx="0.59" ry="0.33"/><path class="cls-2" d="M351.6,335.64c1.21,1.23,2.3,2.63,3.43,3.77a3.17,3.17,0,0,0,1.85,1,4.87,4.87,0,0,0,2.17-.3,5.65,5.65,0,0,0,2-1.12,6.28,6.28,0,0,0,.8-.83c.21-.28.5-.7.79-1a20.07,20.07,0,0,1,3.95-3.43c-1,1.41-2.09,2.76-3,4.14A10.44,10.44,0,0,1,362,340a6.79,6.79,0,0,1-2.43,1.5,6.2,6.2,0,0,1-2.89.29,4.36,4.36,0,0,1-2.51-1.57A12.89,12.89,0,0,1,352.7,338,22,22,0,0,1,351.6,335.64Z" transform="translate(2 -4)"/><path class="cls-2" d="M358.42,341.3a8.23,8.23,0,0,0,5.7,1.48,9.82,9.82,0,0,0,5.13-2.78c1.53-1.33,3-2.82,4.37-4.31l4.21-4.55a46.23,46.23,0,0,1-3.62,5.07,37.59,37.59,0,0,1-4.3,4.54,15.68,15.68,0,0,1-2.59,1.87,7.34,7.34,0,0,1-3.12.93A7.54,7.54,0,0,1,358.42,341.3Z" transform="translate(2 -4)"/><path class="cls-2" d="M349.29,328.65a6.5,6.5,0,0,0-1.22,1.24,1.3,1.3,0,0,0-.28,1.34c.12.31.71.62,1.18.91l1.52.88a35.54,35.54,0,0,1,3,1.92,12.76,12.76,0,0,1,1.4,1.15,4,4,0,0,1,1.09,1.45,5.75,5.75,0,0,0-1.39-1.06c-.5-.31-1-.58-1.52-.87-1-.56-2.07-1.13-3.09-1.73-.5-.31-1-.61-1.52-1-.25-.17-.49-.35-.74-.55a4.09,4.09,0,0,1-.37-.36,1.48,1.48,0,0,1-.28-.52,1.59,1.59,0,0,1,.05-1.1,2.61,2.61,0,0,1,.59-.81A4.66,4.66,0,0,1,349.29,328.65Z" transform="translate(2 -4)"/><path class="cls-2" d="M448,648.33s53.17,14.34,58,15.5,6.83-4.33,1.83-6.16-28.46-9.34-28.46-9.34Z" transform="translate(2 -4)"/><path class="cls-2" d="M370.67,674.67s14.5,7.33,17.5,6,5.83-5.67-11-12.5S370.67,674.67,370.67,674.67Z" transform="translate(2 -4)"/><path class="cls-2" d="M314.67,602.67C332.67,606,368,609,376,608.33s32.67-1,32.67-1c6.66-5,60-16.66,60-16.66-29.34-5-103,9-103,9-67.67-15-122-13-122-13,4,4,10.83,8.07,18.67,11.92C275.68,599.06,301.64,600.25,314.67,602.67Z" transform="translate(2 -4)"/><path class="cls-4" d="M408.67,607.33l23.66,10.34c7-17.34,36.34-27,36.34-27S415.33,602.33,408.67,607.33Z" transform="translate(2 -4)"/><path class="cls-4" d="M414.45,621c-11.78-2.67-49.78,1.67-59.78,4.67s-38.34-8-46-9.67c-5.34-1.16-28.4-8.61-46.33-17.41-7.84-3.85-14.71-8-18.67-11.92-6.34,31,28,42,51,53.66s76,34.34,76,34.34c8.66-4,41-13,67.33-19,17.58-4,41.7-3.56,55.79-2.81C475.43,645,424.09,623.18,414.45,621Z" transform="translate(2 -4)"/><path class="cls-3" d="M477.29,636.24c-19.54-8-45-18.57-45-18.57l-23.66-10.34s-24.67.34-32.67,1-43.33-2.33-61.33-5.66c-13-2.42-39-3.61-52.33-4.08,17.93,8.8,41,16.25,46.33,17.41,7.66,1.67,36,12.67,46,9.67s48-7.34,59.78-4.67c9.64,2.18,61,24,79.34,31.86,7,.36,11.54.81,11.54.81a73.22,73.22,0,0,0-14.66-9C487.2,643.07,482.13,639.7,477.29,636.24Z" transform="translate(2 -4)"/><path class="cls-2" d="M541.33,659.33c.34-2.33,44.67-14,44.67-14S549,647,547,647c-34.71,0-48-2-48-2-2-.71-11-4.35-21.71-8.76,4.84,3.46,9.91,6.83,13.38,8.43a73.22,73.22,0,0,1,14.66,9S530,665,544,670.67s35,9,35,9S541,661.67,541.33,659.33Z" transform="translate(2 -4)"/><path class="cls-2" d="M281.25,626.75s.13-3.62,9.38-1.12,31.87,11.75,31.87,11.75-13.12.62-17.75,0S280.5,631.5,281.25,626.75Z" transform="translate(2 -4)"/><path class="cls-2" d="M244,587.13a28.28,28.28,0,0,0,2,5.64l.65,1.35c.22.44.48.87.72,1.31A27.45,27.45,0,0,0,249,598a46.06,46.06,0,0,0,7.86,8.92l2.28,1.92c.76.65,1.61,1.18,2.41,1.77,1.58,1.22,3.36,2.14,5,3.22.84.55,1.75,1,2.64,1.42l2.67,1.37,5.52,2.42c-1.91-.63-3.82-1.29-5.71-2l-2.76-1.24c-.91-.43-1.86-.8-2.73-1.32a48,48,0,0,1-5.19-3.14c-.82-.59-1.69-1.11-2.47-1.76l-2.36-1.93a43.66,43.66,0,0,1-7.85-9.25A29.63,29.63,0,0,1,244,587.13Z" transform="translate(2 -4)"/><path class="cls-2" d="M248.5,603.06a48.52,48.52,0,0,0,4.91,6.45,57,57,0,0,0,12.33,10.36,73.22,73.22,0,0,0,7.14,3.88c-1.29-.44-2.59-.87-3.85-1.41s-2.5-1.12-3.68-1.81A41.71,41.71,0,0,1,252.83,610c-.86-1.07-1.65-2.19-2.4-3.33A28.59,28.59,0,0,1,248.5,603.06Z" transform="translate(2 -4)"/><path class="cls-2" d="M243.36,588.38a107.93,107.93,0,0,0,1,11,46.64,46.64,0,0,0,1.12,5.33,17.32,17.32,0,0,0,2.06,4.84,8.27,8.27,0,0,0,.78,1l1,1,2,1.92c1.33,1.27,2.64,2.56,4,3.81s2.69,2.51,4,3.75a51.65,51.65,0,0,0,4.25,3.53,26.57,26.57,0,0,1-4.78-2.87c-1.52-1.08-3-2.23-4.41-3.41s-2.82-2.4-4.17-3.68l-2-1.92c-.33-.32-.65-.64-1-1a9.53,9.53,0,0,1-1-1.19,16.94,16.94,0,0,1-2.15-5.35,36.53,36.53,0,0,1-.88-5.56A57.36,57.36,0,0,1,243.36,588.38Z" transform="translate(2 -4)"/><ellipse class="cls-4" cx="268.42" cy="600.08" rx="8.83" ry="13.67" transform="translate(-346.33 823.62) rotate(-86.15)"/><ellipse class="cls-2" cx="264.46" cy="596.27" rx="3.07" ry="4.74" transform="translate(-346.22 816.11) rotate(-86.15)"/></svg>